<?xml version="1.0" encoding="UTF-8"?>
<svg version="1.1" xmlns="http://www.w3.org/2000/svg" width="382" height="55">
<path d="M0 0 C3.96 0 7.92 0 12 0 C17.4369135 10.75716298 22.71909111 21.57945314 27.86669922 32.47802734 C29.02293437 34.92350703 30.18525148 37.36604166 31.34765625 39.80859375 C32.08630562 41.36961753 32.82460109 42.93080883 33.5625 44.4921875 C33.90925781 45.21912811 34.25601563 45.94606873 34.61328125 46.69503784 C37 51.77117107 37 51.77117107 37 54 C32.05 54 27.1 54 22 54 C18 45.25 18 45.25 18 43 C10.41 43.33 2.82 43.66 -5 44 C-6.65 47.3 -8.3 50.6 -10 54 C-14.62 54 -19.24 54 -24 54 C-23.0456468 49.228234 -21.48221769 45.41991619 -19.39453125 41.09375 C-19.03284348 40.33259888 -18.6711557 39.57144775 -18.29850769 38.78723145 C-17.14173948 36.35561847 -15.97737903 33.92773629 -14.8125 31.5 C-13.67045552 29.10696044 -12.52999217 26.71317179 -11.38961792 24.31933594 C-10.64708047 22.76106537 -9.90386302 21.20311863 -9.15994263 19.64550781 C-6.04766721 13.12340161 -3.01106612 6.56959882 0 0 Z M5 17 C4.16013916 18.93467942 3.32831973 20.87285129 2.5 22.8125 C2.0359375 23.89144531 1.571875 24.97039063 1.09375 26.08203125 C-0.17549303 28.94882024 -0.17549303 28.94882024 0 32 C4.29 32 8.58 32 13 32 C11.02 27.05 9.04 22.1 7 17 C6.34 17 5.68 17 5 17 Z " fill="#27543F" transform="translate(24,0)"/>
<path d="M0 0 C4.95 0 9.9 0 15 0 C15.33 5.94 15.66 11.88 16 18 C17.98 17.01 19.96 16.02 22 15 C27.24602726 14.43792565 30.5772872 15.11562208 35 18 C40.18233179 23.18233179 41.73976882 27.72108713 42.3125 34.9375 C42.12499399 41.38770667 39.71090596 47.54373761 35 52 C29.52724432 55.13251272 25.07331864 55.41710768 19 54 C16.5 52.4375 16.5 52.4375 15 51 C14.67 51.99 14.34 52.98 14 54 C9.38 54 4.76 54 0 54 C0 36.18 0 18.36 0 0 Z M16.1875 27.0625 C14.06623155 30.52351695 13.59168364 33.9940963 14.40234375 37.9765625 C15.08725647 40.16910877 15.08725647 40.16910877 17 43 C19.8845108 44.41142752 19.8845108 44.41142752 23 44 C25.59912251 42.8213337 25.59912251 42.8213337 27 40 C27.64923629 35.60124178 27.95590805 31.6303388 25.66015625 27.71484375 C24.04217842 25.69437025 24.04217842 25.69437025 21 25.5625 C18.08941565 25.79499624 18.08941565 25.79499624 16.1875 27.0625 Z " fill="#2A5E46" transform="translate(168,0)"/>
<path d="M0 0 C4.61935552 4.65106734 6.15298346 9.38515391 6.25 15.8125 C6.17326071 21.60980484 5.5265488 25.2328275 1.5234375 29.6171875 C-3.31047464 34.23037305 -7.80745534 35.95319328 -14.44921875 36.02734375 C-21.09025809 35.630712 -26.73699545 34.15185598 -31.60546875 29.44921875 C-35.5945822 24.23096671 -35.73394484 18.75012106 -35.48046875 12.3515625 C-34.68299 6.78866192 -32.73336912 3.08053319 -28.25 -0.33203125 C-19.2503555 -5.82103856 -8.9668443 -5.38323637 0 0 Z M-21 11 C-21.87650708 15.74553328 -21.65910074 18.990752 -19 23.0625 C-18.34 23.701875 -17.68 24.34125 -17 25 C-12.71470863 24.62330132 -12.71470863 24.62330132 -9.125 22.4375 C-7.51504445 18.94926297 -7.33543705 15.72893657 -8 12 C-9.50341458 8.93114486 -9.50341458 8.93114486 -12 7 C-16.38506139 6.01336119 -18.57420747 7.31638913 -21 11 Z " fill="#285842" transform="translate(157,19)"/>
<path d="M0 0 C4.3758881 4.60029262 5.12482216 7.29090424 5.09765625 13.5390625 C5.09443359 14.84101562 5.09121094 16.14296875 5.08789062 17.484375 C5.07953466 18.86458399 5.07106971 20.24479232 5.0625 21.625 C5.05748501 23.01301926 5.0529221 24.40104022 5.04882812 25.7890625 C5.03700985 29.19272673 5.0190739 32.5963687 5 36 C0.71 36 -3.58 36 -8 36 C-8.33 35.34 -8.66 34.68 -9 34 C-10.2065625 34.7734375 -10.2065625 34.7734375 -11.4375 35.5625 C-16.0112829 37.40806152 -19.27497649 37.25099013 -24 36 C-27.09920128 34.36587569 -29.21555069 32.99839002 -31.375 30.25 C-32.73337678 25.3598436 -32.83540465 21.53714455 -30.4375 17.125 C-24.08137171 11.58375996 -15.96116415 12.78450984 -8 13 C-8.66 11.68 -9.32 10.36 -10 9 C-16.41762359 8.79626592 -21.77599753 9.41930096 -28 11 C-28.99 8.03 -29.98 5.06 -31 2 C-21.271461 -3.11160524 -10.18553255 -5.97488514 0 0 Z M-18 21 C-18.33 21.99 -18.66 22.98 -19 24 C-18.01 25.485 -18.01 25.485 -17 27 C-13.56769552 26.73606499 -13.56769552 26.73606499 -10 26 C-7.7226499 23.18490007 -7.7226499 23.18490007 -8 20 C-13.08303686 19.88679144 -13.08303686 19.88679144 -18 21 Z " fill="#D88B24" transform="translate(287,18)"/>
<path d="M0 0 C4.13653992 3.95669036 5.91933006 7.40016483 7 13 C7 15.31 7 17.62 7 20 C-0.92 20.33 -8.84 20.66 -17 21 C-13.47242357 25.37675169 -13.47242357 25.37675169 -9.0625 25.375 C-5.6888536 25.21196133 -3.08374392 24.40971151 0 23 C0.99 23 1.98 23 3 23 C3.99 25.97 4.98 28.94 6 32 C1.64510882 36.16554809 -3.92046715 36.95625664 -9.75 37.0390625 C-16.55138272 36.64231517 -22.76410561 35.46991169 -27.56640625 30.3203125 C-31.66437101 24.87970971 -32.65728169 19.82084769 -32 13 C-30.8332682 7.28408459 -28.42906514 3.73566103 -23.8203125 0.1875 C-16.49489002 -4.59131638 -7.46432481 -4.25162827 0 0 Z M-16.9375 8.875 C-18.1490712 10.90217203 -18.1490712 10.90217203 -18 13 C-13.71 13 -9.42 13 -5 13 C-6.45288986 8.4158037 -6.45288986 8.4158037 -8 7 C-12.950298 6.38059334 -12.950298 6.38059334 -16.9375 8.875 Z " fill="#26251F" transform="translate(245,18)"/>
<path d="M0 0 C0.495 4.95 0.495 4.95 1 10 C-2.3 10.66 -5.6 11.32 -9 12 C-9.33 13.32 -9.66 14.64 -10 16 C-7.03 16 -4.06 16 -1 16 C-1 19.63 -1 23.26 -1 27 C-3.97 27 -6.94 27 -10 27 C-10 35.91 -10 44.82 -10 54 C-14.95 54 -19.9 54 -25 54 C-25 45.09 -25 36.18 -25 27 C-27.31 27 -29.62 27 -32 27 C-32 23.37 -32 19.74 -32 16 C-28.535 15.505 -28.535 15.505 -25 15 C-24.773125 13.948125 -24.54625 12.89625 -24.3125 11.8125 C-22.76711711 6.5002463 -19.59289788 3.92388077 -14.875 1.1875 C-10.10578516 -0.69480652 -5.03609045 -0.24588507 0 0 Z " fill="#DB8C25" transform="translate(89,0)"/>
<path d="M0 0 C4.62 0 9.24 0 14 0 C14 3.63 14 7.26 14 11 C17.63 11 21.26 11 25 11 C25 14.63 25 18.26 25 22 C21.37 22 17.74 22 14 22 C14.33 26.95 14.66 31.9 15 37 C17.97 37 20.94 37 24 37 C26 44.625 26 44.625 26 48 C20.12513132 50.17114712 15.1357666 50.38712875 9 49 C3.9783337 46.53481836 2.04034265 44.14803219 0 39 C-0.33952414 36.02733178 -0.28621637 33.11180308 -0.1875 30.125 C-0.17396484 29.34125 -0.16042969 28.5575 -0.14648438 27.75 C-0.11141789 25.83303218 -0.05762072 23.91642249 0 22 C-2.31 22 -4.62 22 -7 22 C-7 18.37 -7 14.74 -7 11 C-4.69 11 -2.38 11 0 11 C0 7.37 0 3.74 0 0 Z " fill="#F09926" transform="translate(302,5)"/>
<path d="M0 0 C1 2 1 2 0.44140625 3.9453125 C0.15136719 4.66460938 -0.13867188 5.38390625 -0.4375 6.125 C-0.86869141 7.21167969 -0.86869141 7.21167969 -1.30859375 8.3203125 C-1.53675781 8.87460937 -1.76492188 9.42890625 -2 10 C-4.76276177 9.47731534 -7.3260876 8.89130413 -10 8 C-11.39439664 7.93334624 -12.79169875 7.91461801 -14.1875 7.9375 C-15.445625 7.958125 -16.70375 7.97875 -18 8 C-18.33 8.99 -18.66 9.98 -19 11 C-17.89140625 11.17015625 -16.7828125 11.3403125 -15.640625 11.515625 C-14.17694232 11.75957211 -12.71340804 12.00441076 -11.25 12.25 C-10.52039063 12.35957031 -9.79078125 12.46914063 -9.0390625 12.58203125 C-4.54706055 13.3579225 -1.80121155 14.12794555 1 18 C2.11677698 22.61601153 2.4130323 24.84785727 0.8125 29.3125 C-2.22526731 33.81677566 -5.15986064 35.51958973 -10.5234375 36.71484375 C-18.35091397 37.6161147 -26.04340577 36.72096901 -33 33 C-32.01 29.7 -31.02 26.4 -30 23 C-27.525 23.7425 -27.525 23.7425 -25 24.5 C-20.12109511 25.8443813 -16.03467954 26.28498186 -11 26 C-11 25.01 -11 24.02 -11 23 C-12.30324219 22.85304688 -12.30324219 22.85304688 -13.6328125 22.703125 C-25.30345101 21.18881396 -25.30345101 21.18881396 -30 17 C-32.47299485 13.29050773 -32.77371767 10.30024136 -32 6 C-29.17179353 1.31578303 -26.37401441 -0.89216401 -21.1640625 -2.53125 C-13.87521184 -4.11006242 -6.82303087 -2.9512316 0 0 Z " fill="#32241A" transform="translate(362,18)"/>
<path d="M0 0 C0.33 3.96 0.66 7.92 1 12 C0.07316406 12.19335938 -0.85367188 12.38671875 -1.80859375 12.5859375 C-3.00613281 12.84632812 -4.20367187 13.10671875 -5.4375 13.375 C-6.63246094 13.63023438 -7.82742187 13.88546875 -9.05859375 14.1484375 C-10.02925781 14.42945313 -10.99992187 14.71046875 -12 15 C-13.23060421 17.46120841 -13.2057723 19.25776866 -13.31640625 22.0078125 C-13.35830078 22.99394531 -13.40019531 23.98007812 -13.44335938 24.99609375 C-13.48267578 26.02863281 -13.52199219 27.06117187 -13.5625 28.125 C-13.60568359 29.16527344 -13.64886719 30.20554687 -13.69335938 31.27734375 C-13.79962768 33.8513983 -13.90033527 36.42568131 -14 39 C-18.95 39 -23.9 39 -29 39 C-29 26.46 -29 13.92 -29 1 C-24.38 1 -19.76 1 -15 1 C-14.67 1.99 -14.34 2.98 -14 4 C-13.401875 3.525625 -12.80375 3.05125 -12.1875 2.5625 C-8.18989192 -0.29293434 -4.77565701 -0.09010674 0 0 Z " fill="#E49225" transform="translate(120,15)"/>
<path d="M0 0 C0 0.66 0 1.32 0 2 C-1.32 2 -2.64 2 -4 2 C-3.65555119 4.47266765 -3.65555119 4.47266765 -3 7 C-2.34 7.33 -1.68 7.66 -1 8 C-1.33 6.68 -1.66 5.36 -2 4 C-0.515 4.99 -0.515 4.99 1 6 C1.1875 8.625 1.1875 8.625 1 11 C1.66 11 2.32 11 3 11 C2.505 6.545 2.505 6.545 2 2 C4.5625 3.5 4.5625 3.5 7 6 C7.15374792 8.87728254 6.61846819 11.14553142 6 14 C6.66 14.33 7.32 14.66 8 15 C5.39219722 20.21560556 3.38965425 23.30517288 -2 26 C-7.86177684 27.73107463 -11.67621344 26.82486634 -17 24 C-17.33 23.67 -17.66 23.34 -18 23 C-18.33 23.99 -18.66 24.98 -19 26 C-23.62 26 -28.24 26 -33 26 C-33 22.7 -33 19.4 -33 16 C-32.34 16 -31.68 16 -31 16 C-31 15.34 -31 14.68 -31 14 C-29.68 13.67 -28.36 13.34 -27 13 C-27.061875 11.9275 -27.12375 10.855 -27.1875 9.75 C-26.99552747 5.91054943 -26.71836779 4.61381519 -24 2 C-23.34 2 -22.68 2 -22 2 C-22.33 4.31 -22.66 6.62 -23 9 C-22.01 7.35 -21.02 5.7 -20 4 C-19.34 4.33 -18.68 4.66 -18 5 C-17.3671875 7.06640625 -17.3671875 7.06640625 -16.875 9.5625 C-16.70742187 10.38878906 -16.53984375 11.21507812 -16.3671875 12.06640625 C-16.24601562 12.70449219 -16.12484375 13.34257813 -16 14 C-13.14921909 14.76716851 -13.14921909 14.76716851 -10 15 C-8.18895236 13.94032404 -8.18895236 13.94032404 -7 12 C-6.63729516 9.25756437 -6.63729516 9.25756437 -6.8125 6.3125 C-6.83957031 5.31863281 -6.86664063 4.32476562 -6.89453125 3.30078125 C-6.94673828 2.16189453 -6.94673828 2.16189453 -7 1 C-4.53721199 -0.231394 -2.7204945 -0.07159196 0 0 Z " fill="#302926" transform="translate(201,28)"/>
<path d="M0 0 C1.48521677 0.75911079 2.96303425 1.53271234 4.4375 2.3125 C5.26121094 2.74175781 6.08492187 3.17101562 6.93359375 3.61328125 C9 5 9 5 10 8 C9.22265625 10.05078125 9.22265625 10.05078125 8.0625 12.3125 C6.30569653 16.07010743 5.31466997 18.79011553 6 23 C7.37926773 25.34261608 7.37926773 25.34261608 9 27 C8.67 27.66 8.34 28.32 8 29 C3.78185183 25.0299782 0.38772897 20.69159716 -3 16 C-2.2575 17.051875 -2.2575 17.051875 -1.5 18.125 C0.1936681 21.37119719 0.25162315 23.39340156 0 27 C1.32 27.33 2.64 27.66 4 28 C4 28.99 4 29.98 4 31 C3.39671875 31.06058594 2.7934375 31.12117188 2.171875 31.18359375 C-0.94689261 32.35593625 -1.39414589 34.08715349 -2.75 37.0625 C-3.4925 38.691875 -4.235 40.32125 -5 42 C-9.62 42 -14.24 42 -19 42 C-18.28717385 38.43586926 -17.8163326 36.25104816 -16.34179688 33.14355469 C-16.00474731 32.42641296 -15.66769775 31.70927124 -15.32043457 30.97039795 C-14.95687866 30.21188538 -14.59332275 29.4533728 -14.21875 28.671875 C-13.84520386 27.88226379 -13.47165771 27.09265259 -13.08679199 26.27911377 C-12.29924653 24.61712553 -11.50902874 22.95640129 -10.71630859 21.296875 C-9.49885761 18.74760791 -8.28977432 16.19450348 -7.08203125 13.640625 C-6.31558832 12.02581178 -5.54867757 10.41122051 -4.78125 8.796875 C-4.41769409 8.0302655 -4.05413818 7.26365601 -3.67956543 6.47381592 C-1.11672697 1.11672697 -1.11672697 1.11672697 0 0 Z " fill="#2B6249" transform="translate(19,12)"/>
<path d="M0 0 C2.375 1.125 2.375 1.125 5 3 C5.67863055 4.9959722 6.34641919 6.99568551 7 9 C9.03243548 9.96877057 9.03243548 9.96877057 11 10 C11 9.01 11 8.02 11 7 C9.68 6.67 8.36 6.34 7 6 C7 5.34 7 4.68 7 4 C9.9375 4.8125 9.9375 4.8125 13 6 C14 9 14 9 14.375 11.5625 C14.80029967 14.34945764 14.80029967 14.34945764 18 16 C23.05743635 16.32628622 26.35623493 16.12286403 31 14 C31.99 14 32.98 14 34 14 C34.99 16.97 35.98 19.94 37 23 C32.64510882 27.16554809 27.07953285 27.95625664 21.25 28.0390625 C14.44861728 27.64231517 8.23589439 26.46991169 3.43359375 21.3203125 C-0.76626806 15.74442759 -1.36484985 10.84795095 -1 4 C-0.5 1.5 -0.5 1.5 0 0 Z " fill="#275440" transform="translate(214,27)"/>
<path d="M0 0 C3.3118298 0.30107544 5.53442277 0.68542079 8.3125 2.5625 C10.61278077 5.88512777 11.19874798 9.03268448 11 13 C9.50248896 17.17726764 7.93048674 19.87541257 4 22 C-4.03021464 24.92007805 -13.38867943 24.81961854 -21.3125 21.4375 C-22.199375 20.963125 -23.08625 20.48875 -24 20 C-23.01 16.7 -22.02 13.4 -21 10 C-19.35 10.495 -17.7 10.99 -16 11.5 C-11.12109511 12.8443813 -7.03467954 13.28498186 -2 13 C-2 12.01 -2 11.02 -2 10 C-2.61875 9.896875 -3.2375 9.79375 -3.875 9.6875 C-6 9 -6 9 -8 6 C-7.625 3.8125 -7.625 3.8125 -7 2 C-5.35 1.67 -3.7 1.34 -2 1 C-2.33 1.66 -2.66 2.32 -3 3 C-3.66 3 -4.32 3 -5 3 C-5 3.99 -5 4.98 -5 6 C-4.01 5.67 -3.02 5.34 -2 5 C-0.78130071 2.49552484 -0.78130071 2.49552484 0 0 Z " fill="#2B6249" transform="translate(353,31)"/>
<path d="M0 0 C0 0.66 0 1.32 0 2 C-5.52265988 6.2892288 -9.93706754 8.43242444 -17 8 C-19.61593153 9.83115207 -19.96989455 10.90968366 -21 14 C-23.65234375 15.82421875 -23.65234375 15.82421875 -26.9375 17.6875 C-28.01902344 18.31011719 -29.10054688 18.93273437 -30.21484375 19.57421875 C-33 21 -33 21 -35 21 C-35.52007105 14.06571939 -35.79270765 8.40157636 -31.5625 2.62109375 C-22.50621857 -6.77479824 -10.72510763 -5.01549918 0 0 Z " fill="#976521" transform="translate(157,19)"/>
<path d="M0 0 C0.05398987 2.27057377 0.09278742 4.54151288 0.125 6.8125 C0.14820313 8.07707031 0.17140625 9.34164062 0.1953125 10.64453125 C0 14 0 14 -2 17 C-2.125 10.375 -2.125 10.375 -1 7 C-4.3 7.33 -7.6 7.66 -11 8 C-10.33652273 13.21905837 -10.33652273 13.21905837 -7.37109375 17.16796875 C-6.73300781 17.50441406 -6.09492188 17.84085938 -5.4375 18.1875 C-3.7359375 19.0846875 -3.7359375 19.0846875 -2 20 C-3.89716035 22.56674636 -5.09164313 23.02291078 -8.25 23.8125 C-13.94066555 24.09703328 -17.53882445 23.27058744 -21.875 19.5 C-24.89873541 15.94266423 -25.35898292 13.74870886 -25.2734375 9.03515625 C-24.82329014 5.68477377 -23.51106247 4.18913139 -21 2 C-14.40537099 -1.01059151 -7.11031535 -0.17751134 0 0 Z " fill="#D98C24" transform="translate(280,31)"/>
<path d="M0 0 C3.96 0 7.92 0 12 0 C25 25.70967742 25 25.70967742 25 29 C20.76543725 27.46885867 17.00804228 25.35110294 13.1875 23 C12.59001953 22.64421875 11.99253906 22.2884375 11.37695312 21.921875 C9.88109586 21.00555558 8.43522138 20.00864753 7 19 C7 18.34 7 17.68 7 17 C6.01 17.33 5.02 17.66 4 18 C1.73828125 16.78515625 1.73828125 16.78515625 -0.6875 15.0625 C-1.49574219 14.49660156 -2.30398437 13.93070313 -3.13671875 13.34765625 C-3.75160156 12.90292969 -4.36648437 12.45820313 -5 12 C-4.35522931 10.37457807 -3.70914857 8.74967576 -3.0625 7.125 C-2.52302734 5.76761719 -2.52302734 5.76761719 -1.97265625 4.3828125 C-1 2 -1 2 0 0 Z " fill="#D98C24" transform="translate(24,0)"/>
<path d="M0 0 C4.95 0 9.9 0 15 0 C15 6.6 15 13.2 15 20 C10.545 21.485 10.545 21.485 6 23 C5.67 24.32 5.34 25.64 5 27 C4.34 27.66 3.68 28.32 3 29 C2.01 29 1.02 29 0 29 C0 19.43 0 9.86 0 0 Z " fill="#1E211C" transform="translate(168,0)"/>
<path d="M0 0 C3.64628908 1.35265563 6.82567172 3.0092483 10.125 5.0625 C12.80251948 6.72679402 14.99972402 7.99990801 18 9 C19.07495117 10.76586914 19.07495117 10.76586914 20.04296875 13.03515625 C20.39423828 13.84404297 20.74550781 14.65292969 21.10742188 15.48632812 C21.64206055 16.7615332 21.64206055 16.7615332 22.1875 18.0625 C22.55552734 18.91650391 22.92355469 19.77050781 23.30273438 20.65039062 C24.2115121 22.76300377 25.11006202 24.87939769 26 27 C23.64453125 27.62109375 23.64453125 27.62109375 21 28 C18.6875 26.0625 18.6875 26.0625 17 24 C17.66 23.67 18.32 23.34 19 23 C12.24494398 19.75441594 12.24494398 19.75441594 5 18 C5 18.66 5 19.32 5 20 C4.34 20 3.68 20 3 20 C3 19.01 3 18.02 3 17 C1.35 16.67 -0.3 16.34 -2 16 C-2.33 14.68 -2.66 13.36 -3 12 C0.465 11.505 0.465 11.505 4 11 C3.71125 10.37351562 3.4225 9.74703125 3.125 9.1015625 C2.75375 8.28429688 2.3825 7.46703125 2 6.625 C1.62875 5.81289063 1.2575 5.00078125 0.875 4.1640625 C0 2 0 2 0 0 Z " fill="#1E241F" transform="translate(32,20)"/>
<path d="M0 0 C4.84854625 4.63773989 6.84018851 9.24442993 7.125 15.9375 C7.08375 16.618125 7.0425 17.29875 7 18 C1.19675881 16.00513584 -4.56103374 13.15844939 -8 8 C-9.63150609 7.5338554 -11.26590748 7.07522095 -12.9140625 6.671875 C-16.89276262 5.39034612 -20.42080308 3.12641631 -24 1 C-16.80334791 -4.54618023 -7.88188731 -4.489469 0 0 Z " fill="#CF8624" transform="translate(245,18)"/>
<path d="M0 0 C0.66 0.33 1.32 0.66 2 1 C2 1.66 2 2.32 2 3 C4.97 3 7.94 3 11 3 C13 10.625 13 10.625 13 14 C7.13406968 16.16784381 2.12610515 16.4028478 -4 15 C-8.17490186 12.83799725 -10.09282781 11.21167193 -12 7 C-10.04754815 5.80285445 -8.08785003 4.61751926 -6.125 3.4375 C-5.03445313 2.77621094 -3.94390625 2.11492188 -2.8203125 1.43359375 C-1.88960938 0.96050781 -0.95890625 0.48742188 0 0 Z " fill="#21222B" transform="translate(315,39)"/>
<path d="M0 0 C1.9375 0.625 1.9375 0.625 4 2 C4.6875 4.875 4.6875 4.875 5 8 C5.49646687 10.23410093 5.97580281 11.95160562 7 14 C5.55595535 17.45438131 3.74380347 20.68252023 2 24 C-2.62 24 -7.24 24 -12 24 C-11.25565924 20.27829621 -10.78398291 18.19729996 -9.15234375 15.01171875 C-8.79462891 14.30595703 -8.43691406 13.60019531 -8.06835938 12.87304688 C-7.69517578 12.15181641 -7.32199219 11.43058594 -6.9375 10.6875 C-6.37192383 9.57665039 -6.37192383 9.57665039 -5.79492188 8.44335938 C-4.86871843 6.62612478 -3.93509371 4.81267596 -3 3 C-2.34 3.33 -1.68 3.66 -1 4 C-0.375 6.0625 -0.375 6.0625 0 8 C0.98120464 4.94736336 0.98120464 3.05263664 0 0 Z " fill="#312B2F" transform="translate(12,30)"/>
<path d="M0 0 C1 1 1 1 1.09765625 3.72265625 C1.08605469 4.82480469 1.07445312 5.92695313 1.0625 7.0625 C1.05347656 8.16722656 1.04445313 9.27195312 1.03515625 10.41015625 C1.02355469 11.26480469 1.01195312 12.11945312 1 13 C0.01 12.67 -0.98 12.34 -2 12 C-8.28856096 11.4570118 -13.91738932 12.45520999 -20 14 C-20.99 11.03 -21.98 8.06 -23 5 C-15.08747833 0.84257336 -8.98902617 -0.56597572 0 0 Z " fill="#2B654C" transform="translate(279,15)"/>
<path d="M0 0 C5.80503863 0.20368557 9.27132629 1.07486162 13.5234375 5.1328125 C17.90059013 10.66794202 18.46997801 17.18531883 18 24 C17.67 24.99 17.34 25.98 17 27 C16.34 27 15.68 27 15 27 C15.09765625 24.98177083 15.1953125 22.96354167 15.29296875 20.9453125 C15.19628906 20.30335937 15.09960938 19.66140625 15 19 C14.01 18.34 13.02 17.68 12 17 C12 19.31 12 21.62 12 24 C11.34 24 10.68 24 10 24 C9.34 22.02 8.68 20.04 8 18 C8 18.99 8 19.98 8 21 C7.01 20.67 6.02 20.34 5 20 C5 18.35 5 16.7 5 15 C6.32 15 7.64 15 9 15 C9 14.34 9 13.68 9 13 C6.69 13.33 4.38 13.66 2 14 C1.34 13.01 0.68 12.02 0 11 C1.04800781 10.94392578 1.04800781 10.94392578 2.1171875 10.88671875 C3.02726563 10.82097656 3.93734375 10.75523438 4.875 10.6875 C6.23238281 10.60048828 6.23238281 10.60048828 7.6171875 10.51171875 C10.36221601 10.2117961 10.36221601 10.2117961 12 7 C10.845 7.165 9.69 7.33 8.5 7.5 C4.30092197 8.03238311 0.22936959 8.07552446 -4 8 C-3.67 6.35 -3.34 4.7 -3 3 C-2.01 3 -1.02 3 0 3 C0 2.01 0 1.02 0 0 Z " fill="#2A6048" transform="translate(192,15)"/>
<path d="M0 0 C4.95 0 9.9 0 15 0 C15 4.95 15 9.9 15 15 C10.05 15 5.1 15 0 15 C0 10.05 0 5.1 0 0 Z " fill="#2D2A35" transform="translate(367,39)"/>
<path d="M0 0 C0.33 3.96 0.66 7.92 1 12 C0.08476563 12.20496094 -0.83046875 12.40992188 -1.7734375 12.62109375 C-2.96195313 12.89050781 -4.15046875 13.15992188 -5.375 13.4375 C-7.15003906 13.83775391 -7.15003906 13.83775391 -8.9609375 14.24609375 C-11.89494581 14.85634695 -11.89494581 14.85634695 -14 16 C-15.984375 14.88671875 -15.984375 14.88671875 -18 13 C-18.390625 10.08203125 -18.390625 10.08203125 -18.25 6.8125 C-18.21390625 5.72582031 -18.1778125 4.63914062 -18.140625 3.51953125 C-18.09421875 2.68808594 -18.0478125 1.85664063 -18 1 C-17.01 1 -16.02 1 -15 1 C-14.67 1.99 -14.34 2.98 -14 4 C-13.401875 3.525625 -12.80375 3.05125 -12.1875 2.5625 C-8.18989192 -0.29293434 -4.77565701 -0.09010674 0 0 Z " fill="#23271E" transform="translate(120,15)"/>
<path d="M0 0 C2.31 0 4.62 0 7 0 C7 3.63 7 7.26 7 11 C10.63 11 14.26 11 18 11 C18 14.63 18 18.26 18 22 C13.02056803 22.40039292 10.6998596 21.57335924 6.75 18.5625 C5.89921875 17.92441406 5.0484375 17.28632813 4.171875 16.62890625 C3.45515625 16.09136719 2.7384375 15.55382812 2 15 C1.34 14.67 0.68 14.34 0 14 C0 9.38 0 4.76 0 0 Z " fill="#4C2E18" transform="translate(309,5)"/>
<path d="M0 0 C2.375 1.125 2.375 1.125 5 3 C5.67863055 4.9959722 6.34641919 6.99568551 7 9 C9.03243548 9.96877057 9.03243548 9.96877057 11 10 C11 9.01 11 8.02 11 7 C9.68 6.67 8.36 6.34 7 6 C7 5.34 7 4.68 7 4 C9.9375 4.8125 9.9375 4.8125 13 6 C14.0013988 9.00419641 14.51421457 11.87709365 15 15 C11.25 16.125 11.25 16.125 9 15 C8.67 16.32 8.34 17.64 8 19 C8.66 18.67 9.32 18.34 10 18 C13 17.8125 13 17.8125 16 18 C16.66 18.66 17.32 19.32 18 20 C17.38125 20.268125 16.7625 20.53625 16.125 20.8125 C13.7004767 21.95556848 13.7004767 21.95556848 12 25 C11.34 23.68 10.68 22.36 10 21 C9.67 21.33 9.34 21.66 9 22 C6.6875 22.4375 6.6875 22.4375 4 22 C-0.79479953 16.13968946 -1.38823229 11.28682151 -1 4 C-0.5 1.5 -0.5 1.5 0 0 Z " fill="#2A5F47" transform="translate(214,27)"/>
<path d="M0 0 C0.33 0 0.66 0 1 0 C1.04434583 2.44887506 1.05788554 4.89058815 1.0234375 7.33984375 C1.00497332 9.43552813 1.07924304 11.53203216 1.1875 13.625 C-0.7968279 19.26466876 -5.87082819 22.20688664 -11 25 C-12.32 25 -13.64 25 -15 25 C-15 21.37 -15 17.74 -15 14 C-11.535 13.505 -11.535 13.505 -8 13 C-7.773125 11.948125 -7.54625 10.89625 -7.3125 9.8125 C-6.19820499 5.83172145 -4.11737397 3.71771064 -1 1 C-0.67 0.67 -0.34 0.34 0 0 Z " fill="#362618" transform="translate(72,2)"/>
<path d="M0 0 C2.98745121 2.88401604 4.93045325 4.91627604 6 9 C5.57446809 14.42553191 5.57446809 14.42553191 3 17 C2.01 17 1.02 17 0 17 C0 16.01 0 15.02 0 14 C-0.66 14 -1.32 14 -2 14 C-1.67 15.98 -1.34 17.96 -1 20 C-3.31 19.34 -5.62 18.68 -8 18 C-8.33730842 16.56342755 -8.66969591 15.12569907 -9 13.6875 C-9.185625 12.88699219 -9.37125 12.08648437 -9.5625 11.26171875 C-10 9 -10 9 -10 6 C-7.8125 4.39453125 -7.8125 4.39453125 -5 2.8125 C-4.071875 2.28269531 -3.14375 1.75289062 -2.1875 1.20703125 C-1.465625 0.80871094 -0.74375 0.41039063 0 0 Z " fill="#20211E" transform="translate(157,20)"/>
<path d="M0 0 C0.90621094 0.51949219 1.81242187 1.03898437 2.74609375 1.57421875 C9.47339291 5.42684075 16.20778253 9.26248351 23 13 C20.82550585 15.42993172 20.06996894 15.98250777 16.75 16.8125 C11.05933445 17.09703328 7.46117555 16.27058744 3.125 12.5 C-0.5511963 8.17506318 -0.089056 5.52147212 0 0 Z " fill="#212022" transform="translate(255,38)"/>
<path d="M0 0 C2.42656908 0.97684075 4.81430502 1.99749239 7.18359375 3.10546875 C7.18359375 3.76546875 7.18359375 4.42546875 7.18359375 5.10546875 C1.7834746 9.29952507 -2.85606118 11.81570804 -9.81640625 11.10546875 C-10.80640625 11.43546875 -11.79640625 11.76546875 -12.81640625 12.10546875 C-13.14640625 8.14546875 -13.47640625 4.18546875 -13.81640625 0.10546875 C-9.50846066 -2.04850404 -4.47217267 -1.42042655 0 0 Z " fill="#B07422" transform="translate(149.81640625,15.89453125)"/>
<path d="M0 0 C0.99386719 0.00902344 1.98773438 0.01804688 3.01171875 0.02734375 C4.15060547 0.04474609 4.15060547 0.04474609 5.3125 0.0625 C5.6425 3.3625 5.9725 6.6625 6.3125 10.0625 C3.0125 10.7225 -0.2875 11.3825 -3.6875 12.0625 C-4.0175 13.3825 -4.3475 14.7025 -4.6875 16.0625 C-6.3375 16.7225 -7.9875 17.3825 -9.6875 18.0625 C-9.3575 12.4525 -9.0275 6.8425 -8.6875 1.0625 C-5.53819107 0.01273036 -3.29935544 -0.03881595 0 0 Z " fill="#C78123" transform="translate(83.6875,-0.0625)"/>
<path d="M0 0 C0.268125 1.2375 0.53625 2.475 0.8125 3.75 C1.63881995 7.10283779 2.62671274 9.41095936 5 12 C3.875 13.5 3.875 13.5 2 15 C0.00041636 15.04080783 -2.00045254 15.04254356 -4 15 C-4.66 15.66 -5.32 16.32 -6 17 C-7.875 17.0625 -7.875 17.0625 -10 16 C-11.99610856 13.28420604 -14 10.45780467 -14 7 C-11.4453125 5.2734375 -11.4453125 5.2734375 -8.125 3.375 C-7.03445312 2.74335937 -5.94390625 2.11171875 -4.8203125 1.4609375 C-2 0 -2 0 0 0 Z " fill="#1F2220" transform="translate(136,33)"/>
<path d="M0 0 C3.7895406 0.94738515 6.37009279 2.17136144 9.75 4.0625 C10.73484375 4.61035156 11.7196875 5.15820312 12.734375 5.72265625 C13.48203125 6.14417969 14.2296875 6.56570312 15 7 C15 9.64 15 12.28 15 15 C10.05 15 5.1 15 0 15 C0 10.05 0 5.1 0 0 Z " fill="#252A20" transform="translate(64,39)"/>
<path d="M0 0 C0 3.63 0 7.26 0 11 C-2.97 11 -5.94 11 -9 11 C-9 13.64 -9 16.28 -9 19 C-10.65 19.66 -12.3 20.32 -14 21 C-13.99398628 18.24571553 -13.9466151 15.5027054 -13.875 12.75 C-13.87757812 11.97269531 -13.88015625 11.19539063 -13.8828125 10.39453125 C-13.80505292 8.12006353 -13.65121028 6.18252433 -13 4 C-8.7080913 0.13728217 -5.70104608 -0.45608369 0 0 Z " fill="#26513E" transform="translate(88,16)"/>
<path d="M0 0 C2.31 0 4.62 0 7 0 C7 4.62 7 9.24 7 14 C9.475 14.99 9.475 14.99 12 16 C14.43299484 17.55297543 16.68226329 19.27305892 19 21 C17.265625 21.65234375 17.265625 21.65234375 15 22 C12.08693234 20.64446669 9.66561072 18.82150066 7 17 C7 22.28 7 27.56 7 33 C6.67 33 6.34 33 6 33 C5.74476563 31.12054688 5.74476563 31.12054688 5.484375 29.203125 C5.24045212 27.55195476 4.9956123 25.90091979 4.75 24.25 C4.64042969 23.425 4.53085937 22.6 4.41796875 21.75 C3.64069351 16.6772563 2.7795293 14.59055283 -1 11 C-1.171875 8.203125 -1.171875 8.203125 -0.75 5.25 C-0.62109375 4.26515625 -0.4921875 3.2803125 -0.359375 2.265625 C-0.18148438 1.14414063 -0.18148438 1.14414063 0 0 Z M4 33 C6 34 6 34 6 34 Z " fill="#EB9625" transform="translate(302,5)"/>
<path d="M0 0 C0.99 0.66 1.98 1.32 3 2 C-0.78774694 4.17357444 -4.58082029 6.3376772 -8.375 8.5 C-9.45523437 9.12003906 -10.53546875 9.74007813 -11.6484375 10.37890625 C-12.6796875 10.96542969 -13.7109375 11.55195313 -14.7734375 12.15625 C-15.72653809 12.70087891 -16.67963867 13.24550781 -17.66162109 13.80664062 C-20 15 -20 15 -22 15 C-22.47762932 10.98791373 -22.17851586 9.28450965 -20 5.8125 C-14.83482554 0.28460262 -7.30838963 -1.10995267 0 0 Z " fill="#D58924" transform="translate(352,15)"/>
<path d="M0 0 C3.75257718 -0.34907695 5.56588078 -0.27011863 8.8125 1.75 C12.59857008 5.64424351 12.11523401 9.47659939 12.0625 14.75 C12.05347656 15.92046875 12.04445313 17.0909375 12.03515625 18.296875 C12.02355469 19.18890625 12.01195312 20.0809375 12 21 C9.525 20.01 9.525 20.01 7 19 C7 16.36 7 13.72 7 11 C4.69 11 2.38 11 0 11 C0 7.37 0 3.74 0 0 Z " fill="#295C45" transform="translate(295,16)"/>
<path d="M0 0 C0 0.66 0 1.32 0 2 C-1.32 2 -2.64 2 -4 2 C-3.65555119 4.47266765 -3.65555119 4.47266765 -3 7 C-2.34 7.33 -1.68 7.66 -1 8 C-1.33 6.68 -1.66 5.36 -2 4 C-1.01 4.66 -0.02 5.32 1 6 C1.1875 8.625 1.1875 8.625 1 11 C1.66 11 2.32 11 3 11 C2.67 8.03 2.34 5.06 2 2 C4.5625 3.5 4.5625 3.5 7 6 C7.15374792 8.87728254 6.61846819 11.14553142 6 14 C6.66 14.33 7.32 14.66 8 15 C6.35 16.65 4.7 18.3 3 20 C2.52949219 19.65066406 2.05898437 19.30132812 1.57421875 18.94140625 C0.95160156 18.48636719 0.32898438 18.03132813 -0.3125 17.5625 C-0.92738281 17.11003906 -1.54226562 16.65757813 -2.17578125 16.19140625 C-4.09677101 14.82663692 -4.09677101 14.82663692 -7 14 C-7 9.71 -7 5.42 -7 1 C-4.53721199 -0.231394 -2.7204945 -0.07159196 0 0 Z " fill="#1C201D" transform="translate(201,28)"/>
<path d="M0 0 C1.32 0.66 2.64 1.32 4 2 C4 8.93 4 15.86 4 23 C-0.95 23 -5.9 23 -11 23 C-11 21.35 -11 19.7 -11 18 C-8 16 -8 16 -6 16.375 C-5.01 16.684375 -5.01 16.684375 -4 17 C-3.01 17 -2.02 17 -1 17 C-0.67 11.39 -0.34 5.78 0 0 Z " fill="#C47F23" transform="translate(102,31)"/>
<path d="M0 0 C1.65 0.495 3.3 0.99 5 1.5 C9.87890489 2.8443813 13.96532046 3.28498186 19 3 C18.67 4.65 18.34 6.3 18 8 C17.67 7.34 17.34 6.68 17 6 C16.34 6 15.68 6 15 6 C15 7.65 15 9.3 15 11 C13 10 13 10 12 7 C9.03 6.505 9.03 6.505 6 6 C6 6.66 6 7.32 6 8 C7.65 8.33 9.3 8.66 11 9 C10.67 10.32 10.34 11.64 10 13 C8.58249437 12.88490339 7.16598831 12.75746342 5.75 12.625 C4.56664062 12.52058594 4.56664062 12.52058594 3.359375 12.4140625 C1 12 1 12 -3 10 C-2.01 6.7 -1.02 3.4 0 0 Z " fill="#295B44" transform="translate(332,41)"/>
<path d="M0 0 C1.48521677 0.75911079 2.96303425 1.53271234 4.4375 2.3125 C5.26121094 2.74175781 6.08492187 3.17101562 6.93359375 3.61328125 C9 5 9 5 10 8 C9.11883502 10.94103118 7.76331068 13.49131509 6 16 C3.5625 17.3125 3.5625 17.3125 1 17 C-1.8125 14.5625 -1.8125 14.5625 -4 12 C-3.01 12 -2.02 12 -1 12 C-1.99 11.34 -2.98 10.68 -4 10 C-3.43454163 6.04179141 -2.19097652 3.3340947 0 0 Z " fill="#1E2329" transform="translate(19,12)"/>
<path d="M0 0 C4.95 0 9.9 0 15 0 C15 1.98 15 3.96 15 6 C12.6889639 7.33592797 10.37628245 8.66884431 8.0625 10 C7.40314453 10.3815625 6.74378906 10.763125 6.06445312 11.15625 C1.11328125 14 1.11328125 14 0 14 C0 9.38 0 4.76 0 0 Z " fill="#CD8424" transform="translate(168,0)"/>
<path d="M0 0 C0.763125 0.20625 1.52625 0.4125 2.3125 0.625 C3.3837828 6.65096573 3.41195415 12.51409517 3.3125 18.625 C2.19875 18.0990625 2.19875 18.0990625 1.0625 17.5625 C-1.8197726 16.57990707 -2.89926345 16.5923198 -5.6875 17.625 C-5.76824203 14.99938891 -5.8278623 12.37624324 -5.875 9.75 C-5.90013672 9.00363281 -5.92527344 8.25726563 -5.95117188 7.48828125 C-5.98046875 5.3203125 -5.98046875 5.3203125 -5.6875 1.625 C-2.6875 -0.375 -2.6875 -0.375 0 0 Z " fill="#242119" transform="translate(96.6875,28.375)"/>
<path d="M0 0 C3.63 0 7.26 0 11 0 C15.50079715 5.86467508 15.17437776 10.17326931 14.359375 17.40234375 C14.24078125 18.25957031 14.1221875 19.11679687 14 20 C13.67 20 13.34 20 13 20 C12.67 15.71 12.34 11.42 12 7 C11.67 9.97 11.34 12.94 11 16 C10.01 16 9.02 16 8 16 C8.33 15.01 8.66 14.02 9 13 C7.35 13.66 5.7 14.32 4 15 C5 13 6 11 7 9 C6.21625 9.515625 5.4325 10.03125 4.625 10.5625 C3.75875 11.036875 2.8925 11.51125 2 12 C1.34 11.67 0.68 11.34 0 11 C0.63808594 10.59007812 1.27617187 10.18015625 1.93359375 9.7578125 C2.75988281 9.21898437 3.58617187 8.68015625 4.4375 8.125 C5.26121094 7.59132813 6.08492187 7.05765625 6.93359375 6.5078125 C9.11038871 5.16165694 9.11038871 5.16165694 10 3 C9.16855469 3.54140625 9.16855469 3.54140625 8.3203125 4.09375 C7.59585938 4.5578125 6.87140625 5.021875 6.125 5.5 C5.40570312 5.9640625 4.68640625 6.428125 3.9453125 6.90625 C2 8 2 8 0 8 C0 5.36 0 2.72 0 0 Z " fill="#714E1E" transform="translate(25,0)"/>
<path d="M0 0 C1.875 0.6875 1.875 0.6875 2.875 1.6875 C3.79196124 7.39303659 3.99522642 12.91663206 3.875 18.6875 C2.4828125 18.1615625 2.4828125 18.1615625 1.0625 17.625 C-2.1052953 16.36367372 -2.1052953 16.36367372 -5.125 17.6875 C-5.20574203 15.06188891 -5.2653623 12.43874324 -5.3125 9.8125 C-5.33763672 9.06613281 -5.36277344 8.31976563 -5.38867188 7.55078125 C-5.41796875 5.3828125 -5.41796875 5.3828125 -5.125 1.6875 C-2.125 -0.3125 -2.125 -0.3125 0 0 Z " fill="#442A18" transform="translate(287.125,28.3125)"/>
<path d="M0 0 C4.23217998 2.90206627 6.42745776 6.00080408 8.88671875 10.390625 C9.25410156 10.92171875 9.62148438 11.4528125 10 12 C10.66 12 11.32 12 12 12 C11.505 11.401875 11.01 10.80375 10.5 10.1875 C9 8 9 8 9 5 C10.65 5 12.3 5 14 5 C14.2475 5.639375 14.495 6.27875 14.75 6.9375 C15.81562433 9.18741541 15.81562433 9.18741541 18.125 9.75 C18.74375 9.8325 19.3625 9.915 20 10 C20 10.99 20 11.98 20 13 C21.98 12.67 23.96 12.34 26 12 C24.453125 13.984375 24.453125 13.984375 22 16 C18.546875 16.390625 18.546875 16.390625 14.75 16.25 C13.48671875 16.21390625 12.2234375 16.1778125 10.921875 16.140625 C9.47554687 16.07101563 9.47554687 16.07101563 8 16 C7.67 15.01 7.34 14.02 7 13 C5.68 13 4.36 13 3 13 C3.0928125 11.39125 3.0928125 11.39125 3.1875 9.75 C2.99047658 5.80953169 2.52063064 4.83570947 0 2 C0 1.34 0 0.68 0 0 Z " fill="#275440" transform="translate(15,27)"/>
<path d="M0 0 C0.99 0.66 1.98 1.32 3 2 C1.21234535 6.02222296 -0.06700963 8.87405926 -4 11 C-8.68755479 12.5959769 -13.02883307 13.24855835 -18 13 C-18.33 11.35 -18.66 9.7 -19 8 C-20.32 7.67 -21.64 7.34 -23 7 C-23 6.34 -23 5.68 -23 5 C-21.02 5 -19.04 5 -17 5 C-16.34 6.32 -15.68 7.64 -15 9 C-14.67 7.68 -14.34 6.36 -14 5 C-13.34 5 -12.68 5 -12 5 C-12 5.66 -12 6.32 -12 7 C-10.02463255 6.65213292 -10.02463255 6.65213292 -8 6 C-7.67 5.34 -7.34 4.68 -7 4 C-5 3.33333333 -3 2.66666667 -1 2 C-0.67 1.34 -0.34 0.68 0 0 Z " fill="#1B1F1B" transform="translate(361,42)"/>
<path d="M0 0 C-0.825 0.763125 -1.65 1.52625 -2.5 2.3125 C-5.34055197 4.75434142 -5.34055197 4.75434142 -5 8 C-12.0528764 8.9199404 -16.26938677 5.8742174 -22 2 C-15.19547736 -3.24398129 -7.88883479 -3.15553392 0 0 Z " fill="#E39125" transform="translate(243,17)"/>
<path d="M0 0 C1.9375 0.625 1.9375 0.625 4 2 C4.6875 4.875 4.6875 4.875 5 8 C5.2784375 9.0828125 5.2784375 9.0828125 5.5625 10.1875 C6 12 6 12 6 15 C5.38125 15.268125 4.7625 15.53625 4.125 15.8125 C1.7004767 16.95556848 1.7004767 16.95556848 0 20 C-0.226875 19.236875 -0.45375 18.47375 -0.6875 17.6875 C-2.26731682 14.45263699 -3.83282717 13.58358642 -7 12 C-5.90931332 8.22454612 -5.0916909 5.52956528 -2 3 C-1.34 4.65 -0.68 6.3 0 8 C0.98120464 4.94736336 0.98120464 3.05263664 0 0 Z " fill="#1C201C" transform="translate(12,30)"/>
<path d="M0 0 C0.33 0 0.66 0 1 0 C1 1.98 1 3.96 1 6 C1.66 6.33 2.32 6.66 3 7 C1.64625203 11.06124391 -0.26258828 11.60315649 -3.9375 13.6875 C-5.55978516 14.62142578 -5.55978516 14.62142578 -7.21484375 15.57421875 C-10 17 -10 17 -12 17 C-12.05389087 15.04196493 -12.09274217 13.08351091 -12.125 11.125 C-12.14820312 10.03445312 -12.17140625 8.94390625 -12.1953125 7.8203125 C-12 5 -12 5 -10 3 C-7.03 4.98 -7.03 4.98 -4 7 C-3.67 6.67 -3.34 6.34 -3 6 C-2.01 5.67 -1.02 5.34 0 5 C0 3.35 0 1.7 0 0 Z " fill="#F19A26" transform="translate(134,23)"/>
<path d="M0 0 C-0.969375 0.515625 -1.93875 1.03125 -2.9375 1.5625 C-6.36885 3.73892578 -6.36885 3.73892578 -6.625 7.625 C-6.74875 8.73875 -6.8725 9.8525 -7 11 C-9.5335908 12.94241961 -10.78187214 13 -14 13 C-14.99 10.03 -15.98 7.06 -17 4 C-5.74342105 -1.91447368 -5.74342105 -1.91447368 0 0 Z " fill="#B37522" transform="translate(273,16)"/>
<path d="M0 0 C0.33 0 0.66 0 1 0 C1.10477512 5.78591511 0.99250545 11.29309366 0 17 C0.99 16.34 1.98 15.68 3 15 C5.1875 15.375 5.1875 15.375 7 16 C6.20207031 16.31582031 5.40414062 16.63164062 4.58203125 16.95703125 C1.71986821 19.22164739 1.58560146 19.60377853 1.07421875 23.01171875 C0.92188257 24.56819714 0.79373882 26.12719727 0.6875 27.6875 C0.61466797 28.48478516 0.54183594 29.28207031 0.46679688 30.10351562 C0.29041316 32.0672543 0.14243783 34.03350762 0 36 C-0.33 36 -0.66 36 -1 36 C-1.33 31.05 -1.66 26.1 -2 21 C-3.258125 21.845625 -4.51625 22.69125 -5.8125 23.5625 C-7.95703125 25.00390625 -7.95703125 25.00390625 -10 26 C-10.99 25.67 -11.98 25.34 -13 25 C-11.95199219 24.53787109 -11.95199219 24.53787109 -10.8828125 24.06640625 C-5.44917664 21.14776548 -5.44917664 21.14776548 -2.34619141 16.01611328 C-1.63013734 12.21628631 -1.37201261 8.42778371 -1.18359375 4.5703125 C-1 1 -1 1 0 0 Z " fill="#ED9725" transform="translate(74,1)"/>
<path d="M0 0 C2.35171131 0.59861742 4.6859378 1.26924352 7 2 C8 4 8 4 7.44140625 5.9453125 C7.15136719 6.66460938 6.86132812 7.38390625 6.5625 8.125 C6.27503906 8.84945313 5.98757813 9.57390625 5.69140625 10.3203125 C5.46324219 10.87460937 5.23507812 11.42890625 5 12 C1.44219804 11.39009109 -1.6828589 10.4216319 -5 9 C-3.90931332 5.22454612 -3.0916909 2.52956528 0 0 Z " fill="#1F2D27" transform="translate(355,16)"/>
<path d="M0 0 C0.42483725 9.39739995 0.42483725 9.39739995 -3.03515625 13.2890625 C-9.15162037 18 -9.15162037 18 -11 18 C-11 15.36 -11 12.72 -11 10 C-9.68 9.67 -8.36 9.34 -7 9 C-6.731875 7.88625 -6.46375 6.7725 -6.1875 5.625 C-4.98287931 1.94773683 -4.18319495 0 0 0 Z " fill="#EC3A01" transform="translate(71,6)"/>
<path d="M0 0 C2.97 0 5.94 0 9 0 C9 3.63 9 7.26 9 11 C7.6078125 10.7215625 7.6078125 10.7215625 6.1875 10.4375 C2.98656229 9.75876119 2.98656229 9.75876119 0 11 C0 7.37 0 3.74 0 0 Z " fill="#996620" transform="translate(91,16)"/>
<path d="M0 0 C0.99 0.33 1.98 0.66 3 1 C2.01 1.33 1.02 1.66 0 2 C0 2.99 0 3.98 0 5 C2.46800047 3.84826645 4.04783565 2.95216435 6 1 C6.28571429 9.57142857 6.28571429 9.57142857 4 13 C3.34 11.68 2.68 10.36 2 9 C1.236875 9.33 0.47375 9.66 -0.3125 10 C-3.78480146 11.29201915 -5.48619861 11.17126713 -9 10 C-8.67 8.68 -8.34 7.36 -8 6 C-3.25 6.875 -3.25 6.875 -1 8 C-1.66 7.01 -2.32 6.02 -3 5 C-2.75 2.875 -2.75 2.875 -2 1 C-1.34 0.67 -0.68 0.34 0 0 Z " fill="#2A6148" transform="translate(157,32)"/>
<path d="M0 0 C2.475 0.99 2.475 0.99 5 2 C5 4.64 5 7.28 5 10 C6.65 10 8.3 10 10 10 C10 12.31 10 14.62 10 17 C5.52166481 15.59252323 2.78156762 13.81472131 0 10 C-0.41356339 6.62428887 -0.29553928 3.38228289 0 0 Z " fill="#DD3803" transform="translate(311,6)"/>
<path d="M0 0 C3.63 1.98 7.26 3.96 11 6 C7.25 12.875 7.25 12.875 5 14 C0.06127451 9.22058824 0.06127451 9.22058824 -0.09765625 6.0546875 C-0.06510417 4.03645833 -0.03255208 2.01822917 0 0 Z " fill="#272019" transform="translate(255,38)"/>
<path d="M0 0 C0.99 0.66 1.98 1.32 3 2 C3.6875 5.625 3.6875 5.625 4 9 C3.360625 9.309375 2.72125 9.61875 2.0625 9.9375 C0.06389179 10.8345163 0.06389179 10.8345163 -1 12 C-2.66617115 12.04063832 -4.33388095 12.042721 -6 12 C-6.33 12.66 -6.66 13.32 -7 14 C-7.33 12.02 -7.66 10.04 -8 8 C-4.25 5 -4.25 5 -2 5 C-1.34 3.35 -0.68 1.7 0 0 Z " fill="#1D2620" transform="translate(360,34)"/>
<path d="M0 0 C0.78375 0.185625 1.5675 0.37125 2.375 0.5625 C4.97089775 1.25962266 4.97089775 1.25962266 7 0 C8.44848582 -0.08342159 9.90070869 -0.10732861 11.3515625 -0.09765625 C12.20234375 -0.09443359 13.053125 -0.09121094 13.9296875 -0.08789062 C14.81914062 -0.07951172 15.70859375 -0.07113281 16.625 -0.0625 C17.5221875 -0.05798828 18.419375 -0.05347656 19.34375 -0.04882812 C21.56256648 -0.03702591 23.78125018 -0.02056155 26 0 C25.34 1.32 24.68 2.64 24 4 C20.5625177 4.02901394 17.12506688 4.04680335 13.6875 4.0625 C12.22280273 4.07506836 12.22280273 4.07506836 10.72851562 4.08789062 C9.79072266 4.09111328 8.85292969 4.09433594 7.88671875 4.09765625 C7.02264404 4.10289307 6.15856934 4.10812988 5.26831055 4.11352539 C3 4 3 4 0 3 C0 2.01 0 1.02 0 0 Z " fill="#1C231E" transform="translate(178,22)"/>
<path d="M0 0 C1.32 0 2.64 0 4 0 C4.33 1.98 4.66 3.96 5 6 C-0.71271093 8.0662997 -5.03654233 8.0006709 -11 7 C-9.25 5 -9.25 5 -7 3 C-5.68 3 -4.36 3 -3 3 C-2.505 2.505 -2.01 2.01 -1.5 1.5 C-1.005 1.005 -0.51 0.51 0 0 Z " fill="#244636" transform="translate(323,47)"/>
<path d="M0 0 C0.33 3.96 0.66 7.92 1 12 C-0.65 12 -2.3 12 -4 12 C-4 9.69 -4 7.38 -4 5 C-5.2065625 4.566875 -5.2065625 4.566875 -6.4375 4.125 C-9 3 -9 3 -10 1 C-6.52674819 -0.1577506 -3.63932552 -0.06866652 0 0 Z " fill="#B07422" transform="translate(120,15)"/>
<path d="M0 0 C0.05398987 2.27057377 0.09278742 4.54151288 0.125 6.8125 C0.14820313 8.07707031 0.17140625 9.34164062 0.1953125 10.64453125 C0 14 0 14 -2 17 C-2.125 10.375 -2.125 10.375 -1 7 C-2.58357459 7.31127516 -4.16684993 7.62407289 -5.75 7.9375 C-6.63171875 8.11152344 -7.5134375 8.28554688 -8.421875 8.46484375 C-10.63235053 8.92368488 -12.81512068 9.43336074 -15 10 C-11.63672231 6.19803392 -5.34781299 0 0 0 Z " fill="#714F1E" transform="translate(280,31)"/>
<path d="M0 0 C6.92307692 3.07692308 6.92307692 3.07692308 9 7 C9.1875 9.75 9.1875 9.75 9 12 C8.071875 11.649375 7.14375 11.29875 6.1875 10.9375 C3.0197047 9.67617372 3.0197047 9.67617372 0 11 C0 7.37 0 3.74 0 0 Z " fill="#C98223" transform="translate(282,16)"/>
<path d="M0 0 C1.32 0.33 2.64 0.66 4 1 C4 1.66 4 2.32 4 3 C-0.23295636 6.30438293 -4.17457598 9.06294566 -9.625 8.875 C-10.800625 8.441875 -10.800625 8.441875 -12 8 C-12 7.01 -12 6.02 -12 5 C-10.68 5.33 -9.36 5.66 -8 6 C-8.7425 5.319375 -8.7425 5.319375 -9.5 4.625 C-11 3 -11 3 -11 1 C-8.07120629 1.62759865 -5.63904371 2.58622659 -3 4 C-2.67 3.01 -2.34 2.02 -2 1 C-1.34 1.33 -0.68 1.66 0 2 C0 1.34 0 0.68 0 0 Z " fill="#F19925" transform="translate(153,18)"/>
<path d="M0 0 C3.96 0 7.92 0 12 0 C12 0.99 12 1.98 12 3 C10.88625 3.433125 9.7725 3.86625 8.625 4.3125 C4.82487666 5.69911119 4.82487666 5.69911119 3 9 C2.01 8.67 1.02 8.34 0 8 C0 5.36 0 2.72 0 0 Z " fill="#1D1E1A" transform="translate(367,39)"/>
<path d="M0 0 C1.65 0.33 3.3 0.66 5 1 C5 3.64 5 6.28 5 9 C2.03 9 -0.94 9 -4 9 C-3.08541782 5.34167128 -1.99523834 3.12298174 0 0 Z " fill="#282853" transform="translate(74,45)"/>
<path d="M0 0 C0.53625 0.2475 1.0725 0.495 1.625 0.75 C0.51125 1.348125 -0.6025 1.94625 -1.75 2.5625 C-4.40211597 4.40558665 -5.26703999 5.42009646 -6.28515625 8.53125 C-6.76195355 11.27195151 -7.13719537 13.9788481 -7.375 16.75 C-6.385 16.75 -5.395 16.75 -4.375 16.75 C-4.375 17.41 -4.375 18.07 -4.375 18.75 C-6.025 19.41 -7.675 20.07 -9.375 20.75 C-9.36898628 17.99571553 -9.3216151 15.2527054 -9.25 12.5 C-9.25257812 11.72269531 -9.25515625 10.94539063 -9.2578125 10.14453125 C-9.18005104 7.87000843 -9.02417744 5.93309415 -8.375 3.75 C-3.90274632 -0.4108154 -3.90274632 -0.4108154 0 0 Z " fill="#2A281C" transform="translate(83.375,16.25)"/>
<path d="M0 0 C3.40667322 0.44824648 5.07914607 1.05276405 8 3 C8.40843923 5.71203652 8.13336867 8.2437142 8 11 C6.68 11 5.36 11 4 11 C2.33333333 7.66666667 0.66666667 4.33333333 -1 1 C-0.67 0.67 -0.34 0.34 0 0 Z " fill="#28261B" transform="translate(108,17)"/>
<path d="M0 0 C2.31 0 4.62 0 7 0 C7 0.99 7 1.98 7 3 C5.68 2.67 4.36 2.34 3 2 C2.37542378 8.07267964 2.37542378 8.07267964 4.8125 13.375 C5.534375 13.91125 6.25625 14.4475 7 15 C8 16 9 17 10 18 C5.75354935 18 3.61475228 16.18249194 0 14 C0 9.38 0 4.76 0 0 Z " fill="#432D19" transform="translate(309,5)"/>
<path d="M0 0 C3.79039882 0.52644428 6.21815268 1.31750437 9 4 C10.27098065 7.53414619 10.09969872 11.03012757 10.0625 14.75 C10.05347656 15.92046875 10.04445313 17.0909375 10.03515625 18.296875 C10.02355469 19.18890625 10.01195312 20.0809375 10 21 C7.525 20.01 7.525 20.01 5 19 C5.33 18.01 5.66 17.02 6 16 C6.66 16.33 7.32 16.66 8 17 C7.91766541 10.3471062 7.91766541 10.3471062 5.125 4.5625 C4.42375 4.046875 3.7225 3.53125 3 3 C2 2 1 1 0 0 Z " fill="#25251C" transform="translate(297,16)"/>
<path d="M0 0 C1.65 0 3.3 0 5 0 C5 3.96 5 7.92 5 12 C2.525 11.01 2.525 11.01 0 10 C0 6.7 0 3.4 0 0 Z " fill="#82591F" transform="translate(302,5)"/>
<path d="M0 0 C0.28571429 7.42857143 0.28571429 7.42857143 -2 11 C-3.65 10.67 -5.3 10.34 -7 10 C-6.67506385 6.4257023 -6.36129314 4.44287547 -4.0625 1.625 C-2 0 -2 0 0 0 Z " fill="#262427" transform="translate(183,6)"/>
<path d="M0 0 C3.63 0 7.26 0 11 0 C9.83630874 3.49107379 9.11026462 3.85222763 6.0625 5.6875 C5.35222656 6.12449219 4.64195313 6.56148438 3.91015625 7.01171875 C2 8 2 8 0 8 C0 5.36 0 2.72 0 0 Z " fill="#312318" transform="translate(25,0)"/>
<path d="M0 0 C0.66 0 1.32 0 2 0 C2.02907584 4.3958194 2.0468244 8.79161399 2.0625 13.1875 C2.07087891 14.43337891 2.07925781 15.67925781 2.08789062 16.96289062 C2.09111328 18.16494141 2.09433594 19.36699219 2.09765625 20.60546875 C2.10289307 21.71043701 2.10812988 22.81540527 2.11352539 23.95385742 C2.00901923 26.75799379 1.64097959 29.27417329 1 32 C0.67 32 0.34 32 0 32 C-1.38297872 10.46808511 -1.38297872 10.46808511 0 0 Z " fill="#EF9826" transform="translate(280,16)"/>
<path d="M0 0 C3.59391114 1.33488128 6.75490696 2.96022723 10 5 C8.68 7.31 7.36 9.62 6 12 C3.32098068 9.68118495 2.33795597 7.68185532 1.3125 4.3125 C1.06113281 3.50425781 0.80976562 2.69601563 0.55078125 1.86328125 C0.36902344 1.24839844 0.18726563 0.63351563 0 0 Z " fill="#2F2419" transform="translate(32,20)"/>
<path d="M0 0 C0.66 0.33 1.32 0.66 2 1 C2.96070434 3.88211302 3.10581883 5.69850044 3.0625 8.6875 C3.05347656 9.49574219 3.04445313 10.30398437 3.03515625 11.13671875 C3.02355469 11.75160156 3.01195313 12.36648437 3 13 C1.35 13 -0.3 13 -2 13 C-2.05416188 11.39620659 -2.09286638 9.79188594 -2.125 8.1875 C-2.14820312 7.29417969 -2.17140625 6.40085937 -2.1953125 5.48046875 C-2 3 -2 3 0 0 Z " fill="#CD3605" transform="translate(95,30)"/>
<path d="M0 0 C4.14766984 2.84411646 6.29860059 5.85617062 8.796875 10.09375 C10.25069771 12.39720935 11.96848391 14.19420792 14 16 C12.02 16 10.04 16 8 16 C7.67 15.01 7.34 14.02 7 13 C5.68 13 4.36 13 3 13 C3.0928125 11.39125 3.0928125 11.39125 3.1875 9.75 C2.99047658 5.80953169 2.52063064 4.83570947 0 2 C0 1.34 0 0.68 0 0 Z " fill="#1D2821" transform="translate(15,27)"/>
<path d="M0 0 C0.33 0 0.66 0 1 0 C1.22114415 2.79119779 1.42743301 5.5821212 1.625 8.375 C1.68945312 9.1690625 1.75390625 9.963125 1.8203125 10.78125 C1.96058587 12.85028224 1.98758237 14.92625536 2 17 C1.34 17.66 0.68 18.32 0 19 C-0.99 18.34 -1.98 17.68 -3 17 C-6.14221967 17.31506627 -6.14221967 17.31506627 -9 18 C-9 17.01 -9 16.02 -9 15 C-6.6875 13.875 -6.6875 13.875 -4 13 C-3.01 13.66 -2.02 14.32 -1 15 C-0.67 10.05 -0.34 5.1 0 0 Z " fill="#EE9726" transform="translate(100,31)"/>
<path d="M0 0 C0.66 0.33 1.32 0.66 2 1 C2 1.99 2 2.98 2 4 C1.36578125 4.22429688 0.7315625 4.44859375 0.078125 4.6796875 C-2.22016157 5.83785757 -2.22016157 5.83785757 -2.828125 8.3828125 C-2.96734375 9.28773437 -3.1065625 10.19265625 -3.25 11.125 C-3.39953125 12.03507812 -3.5490625 12.94515625 -3.703125 13.8828125 C-3.80109375 14.58148438 -3.8990625 15.28015625 -4 16 C-4.99 16 -5.98 16 -7 16 C-6.96591928 6.26995516 -6.96591928 6.26995516 -4.59765625 3.15625 C-2.9375 1.8125 -2.9375 1.8125 0 0 Z " fill="#2A5F47" transform="translate(83,17)"/>
<path d="M0 0 C0 3.3 0 6.6 0 10 C-5.75 8.375 -5.75 8.375 -8 5 C-2.25 0 -2.25 0 0 0 Z " fill="#672D13" transform="translate(133,17)"/>
<path d="M0 0 C0.66 0.99 1.32 1.98 2 3 C2.391875 2.505 2.78375 2.01 3.1875 1.5 C5.55091715 -0.45593143 7.01435003 -0.24207973 10 0 C10 0.66 10 1.32 10 2 C8.68 2 7.36 2 6 2 C6 3.65 6 5.3 6 7 C1.12637153 6.54663921 -1.39042389 5.2910841 -5 2 C-3.35 1.34 -1.7 0.68 0 0 Z " fill="#1C241E" transform="translate(224,47)"/>
<path d="M0 0 C4 0 4 0 6.5625 0.5625 C9.1271951 1.2236306 9.1271951 1.2236306 12 0 C12.66 1.65 13.32 3.3 14 5 C13.01 5.495 13.01 5.495 12 6 C11.34 5.67 10.68 5.34 10 5 C7.44014782 4.7275833 4.88070064 4.55435019 2.3125 4.37890625 C0 4 0 4 -2 2 C-1.34 1.34 -0.68 0.68 0 0 Z " fill="#1C241F" transform="translate(147,41)"/>
<path d="M0 0 C0.66 1.98 1.32 3.96 2 6 C-3.37704918 7.3442623 -3.37704918 7.3442623 -6.375 5.6875 C-8 4 -8 4 -8 2 C-5.09399739 0.74335022 -3.20395416 0 0 0 Z " fill="#1B241E" transform="translate(248,41)"/>
<path d="M0 0 C1.98 0.99 1.98 0.99 4 2 C4 4.31 4 6.62 4 9 C3.67 9 3.34 9 3 9 C2.67 11.64 2.34 14.28 2 17 C1.34 17 0.68 17 0 17 C0 11.39 0 5.78 0 0 Z " fill="#78531F" transform="translate(102,31)"/>
<path d="M0 0 C6 2 6 2 8 5 C5.525 4.01 5.525 4.01 3 3 C2.67 7.62 2.34 12.24 2 17 C1.34 17 0.68 17 0 17 C0 11.39 0 5.78 0 0 Z " fill="#58401D" transform="translate(309,22)"/>
<path d="M0 0 C0.33 0 0.66 0 1 0 C1.33 2.64 1.66 5.28 2 8 C2.99 7.67 3.98 7.34 5 7 C5.66 7.33 6.32 7.66 7 8 C7 5.36 7 2.72 7 0 C7.66 0 8.32 0 9 0 C9 3.63 9 7.26 9 11 C7.6078125 10.7215625 7.6078125 10.7215625 6.1875 10.4375 C2.98656229 9.75876119 2.98656229 9.75876119 0 11 C0 7.37 0 3.74 0 0 Z " fill="#41341B" transform="translate(91,16)"/>
<path d="M0 0 C0.99 0.33 1.98 0.66 3 1 C3 4.3 3 7.6 3 11 C1.68 11 0.36 11 -1 11 C-1.02688151 9.35425434 -1.04634123 7.70838587 -1.0625 6.0625 C-1.07410156 5.14597656 -1.08570313 4.22945312 -1.09765625 3.28515625 C-1 1 -1 1 0 0 Z " fill="#EC3A02" transform="translate(285,31)"/>
<path d="M0 0 C3.3 0.33 6.6 0.66 10 1 C7.22719294 4.08089673 4.93673644 5.68775452 1 7 C0.67 4.69 0.34 2.38 0 0 Z " fill="#82591F" transform="translate(231,15)"/>
<path d="M0 0 C2.31 0 4.62 0 7 0 C7.5625 1.9375 7.5625 1.9375 8 4 C7.67 4.33 7.34 4.66 7 5 C5.47480724 4.91062197 3.95318071 4.75462854 2.4375 4.5625 C1.19806641 4.40974609 1.19806641 4.40974609 -0.06640625 4.25390625 C-0.70449219 4.17011719 -1.34257812 4.08632813 -2 4 C-1.34 2.68 -0.68 1.36 0 0 Z " fill="#264D3B" transform="translate(335,49)"/>
<path d="M0 0 C7.75 0.875 7.75 0.875 10 2 C9.67 3.32 9.34 4.64 9 6 C7.68 6.33 6.36 6.66 5 7 C5 6.34 5 5.68 5 5 C3.35 5 1.7 5 0 5 C0.66 4.01 1.32 3.02 2 2 C1.34 1.34 0.68 0.68 0 0 Z " fill="#234334" transform="translate(37,38)"/>
<path d="M0 0 C2.60334924 2.71182212 2.99456691 3.89133813 3.1875 7.75 C3.125625 8.8225 3.06375 9.895 3 11 C2.34 11 1.68 11 1 11 C0.34 9.02 -0.32 7.04 -1 5 C-1 5.99 -1 6.98 -1 8 C-1.99 7.67 -2.98 7.34 -4 7 C-4 5.35 -4 3.7 -4 2 C-2.68 2 -1.36 2 0 2 C0 1.34 0 0.68 0 0 Z " fill="#2A5E46" transform="translate(201,28)"/>
<path d="M0 0 C0.66 0 1.32 0 2 0 C2 5.28 2 10.56 2 16 C1.01 16.33 0.02 16.66 -1 17 C-1.02684679 14.35409986 -1.04676357 11.70846904 -1.0625 9.0625 C-1.07087891 8.30775391 -1.07925781 7.55300781 -1.08789062 6.77539062 C-1.09652441 4.85005687 -1.05224333 2.92464419 -1 1 C-0.67 0.67 -0.34 0.34 0 0 Z " fill="#1E2019" transform="translate(92,29)"/>
<path d="M0 0 C0.99 0.33 1.98 0.66 3 1 C3 3.31 3 5.62 3 8 C1.35 8.33 -0.3 8.66 -2 9 C-2 9.66 -2 10.32 -2 11 C-2.66 11 -3.32 11 -4 11 C-4 9.35 -4 7.7 -4 6 C-2.68 6 -1.36 6 0 6 C0 4.02 0 2.04 0 0 Z " fill="#285641" transform="translate(172,33)"/>
<path d="M0 0 C1 1 1 1 1.09765625 3.94140625 C1.08605469 5.13636719 1.07445312 6.33132812 1.0625 7.5625 C1.05347656 8.76003906 1.04445313 9.95757812 1.03515625 11.19140625 C1.02355469 12.11824219 1.01195312 13.04507813 1 14 C0.67 14 0.34 14 0 14 C-0.06058594 13.37351562 -0.12117188 12.74703125 -0.18359375 12.1015625 C-0.26738281 11.28429688 -0.35117187 10.46703125 -0.4375 9.625 C-0.51871094 8.81289063 -0.59992188 8.00078125 -0.68359375 7.1640625 C-0.89090114 4.95727195 -0.89090114 4.95727195 -2 3 C-2.66 3 -3.32 3 -4 3 C-4.66 4.32 -5.32 5.64 -6 7 C-6 4.69 -6 2.38 -6 0 C-3.49749232 -1.25125384 -2.59701335 -0.83774624 0 0 Z " fill="#272119" transform="translate(289,29)"/>
<path d="M0 0 C2.31 1.65 4.62 3.3 7 5 C6.67 7.31 6.34 9.62 6 12 C1.6409923 8.51279384 1.05447817 5.27239085 0 0 Z " fill="#1E2D25" transform="translate(213,37)"/>
<path d="M0 0 C-0.84884766 0.56267578 -0.84884766 0.56267578 -1.71484375 1.13671875 C-6.35772851 4.19363427 -6.35772851 4.19363427 -9 8.875 C-9 9.57625 -9 10.2775 -9 11 C-9.66 11 -10.32 11 -11 11 C-11.4375 7.8125 -11.4375 7.8125 -11 4 C-7.76267769 0.31676552 -4.80970985 -1.70255216 0 0 Z " fill="#21251D" transform="translate(277,16)"/>
<path d="M0 0 C0.99 0 1.98 0 3 0 C3.33 3.63 3.66 7.26 4 11 C2.68 11 1.36 11 0 11 C0 7.37 0 3.74 0 0 Z " fill="#43341B" transform="translate(57,16)"/>
<path d="M0 0 C5.25471679 1.1897472 6.63292872 1.51057163 10 6 C6.7 5.34 3.4 4.68 0 4 C0 4.66 0 5.32 0 6 C-0.66 6 -1.32 6 -2 6 C-1.49396008 3.83125748 -1.00016187 2.00032373 0 0 Z " fill="#1B211C" transform="translate(195,15)"/>
<path d="M0 0 C3.3 0 6.6 0 10 0 C10.33 0.99 10.66 1.98 11 3 C6.31034294 4.11658501 3.46236469 3.80619523 -1 2 C-0.67 1.34 -0.34 0.68 0 0 Z " fill="#C88223" transform="translate(186,51)"/>
<path d="M0 0 C0 2.31 0 4.62 0 7 C-1.65 7.33 -3.3 7.66 -5 8 C-5.33 6.35 -5.66 4.7 -6 3 C-2.25 0 -2.25 0 0 0 Z " fill="#906120" transform="translate(264,21)"/>
<path d="M0 0 C-0.33 5.94 -0.66 11.88 -1 18 C-1.33 18 -1.66 18 -2 18 C-2.33 13.38 -2.66 8.76 -3 4 C-4.98 4.99 -6.96 5.98 -9 7 C-9 6.34 -9 5.68 -9 5 C-7.28515625 3.7109375 -7.28515625 3.7109375 -5.0625 2.375 C-3.96615234 1.70597656 -3.96615234 1.70597656 -2.84765625 1.0234375 C-1 0 -1 0 0 0 Z " fill="#3F321C" transform="translate(73,21)"/>
<path d="M0 0 C2.31 0.33 4.62 0.66 7 1 C7.33 2.32 7.66 3.64 8 5 C6 6 6 6 3.4375 5.3125 C1 4 1 4 0.1875 1.875 C0.125625 1.25625 0.06375 0.6375 0 0 Z " fill="#234234" transform="translate(29,32)"/>
<path d="M0 0 C1.32 0.66 2.64 1.32 4 2 C1.5 7.75 1.5 7.75 -3 10 C-2.01 6.7 -1.02 3.4 0 0 Z " fill="#26503D" transform="translate(332,41)"/>
<path d="M0 0 C0.33 0 0.66 0 1 0 C1.33 2.64 1.66 5.28 2 8 C2.99 7.67 3.98 7.34 5 7 C5.66 7.33 6.32 7.66 7 8 C7.33 7.01 7.66 6.02 8 5 C8.33 7.31 8.66 9.62 9 12 C8.071875 11.649375 7.14375 11.29875 6.1875 10.9375 C3.0197047 9.67617372 3.0197047 9.67617372 0 11 C0 7.37 0 3.74 0 0 Z " fill="#40321C" transform="translate(282,16)"/>
<path d="M0 0 C0.99 0 1.98 0 3 0 C3 3.63 3 7.26 3 11 C2.01 11 1.02 11 0 11 C0 7.37 0 3.74 0 0 Z " fill="#9B6721" transform="translate(324,16)"/>
<path d="M0 0 C1.46015291 0.28241641 2.91809793 0.57626614 4.375 0.875 C5.18710938 1.03742187 5.99921875 1.19984375 6.8359375 1.3671875 C9 2 9 2 11 4 C10.31292969 4.06058594 9.62585938 4.12117188 8.91796875 4.18359375 C7.56638672 4.30927734 7.56638672 4.30927734 6.1875 4.4375 C4.84751953 4.55931641 4.84751953 4.55931641 3.48046875 4.68359375 C0.87256441 4.93489767 0.87256441 4.93489767 -2 6 C-1.34 4.02 -0.68 2.04 0 0 Z " fill="#1C231E" transform="translate(223,41)"/>
<path d="M0 0 C1.65 0 3.3 0 5 0 C5 0.99 5 1.98 5 3 C2.03312999 4.64826111 -0.65626525 5.44271087 -4 6 C-4 4.68 -4 3.36 -4 2 C-3.67 2.66 -3.34 3.32 -3 4 C-2.34 4 -1.68 4 -1 4 C-0.67 2.68 -0.34 1.36 0 0 Z " fill="#295C45" transform="translate(359,40)"/>
<path d="M0 0 C2.05078125 0.03255208 4.1015625 0.06510417 6.15234375 0.09765625 C3.37953669 3.17855298 1.08908019 4.78541077 -2.84765625 6.09765625 C-2.89037725 4.4315372 -2.88829457 2.7638274 -2.84765625 1.09765625 C-1.84765625 0.09765625 -1.84765625 0.09765625 0 0 Z " fill="#282F22" transform="translate(267.84765625,30.90234375)"/>
<path d="M0 0 C0 3 0 3 -2 6 C-2.39013716 7.9896995 -2.73202649 9.99019869 -3 12 C-4.32 12 -5.64 12 -7 12 C-6.67566492 6.64847115 -3.50295176 3.71719957 0 0 Z " fill="#1C251F" transform="translate(175,27)"/>
<path d="M0 0 C4.8 3.32307692 4.8 3.32307692 5.8125 6.75 C5.874375 7.4925 5.93625 8.235 6 9 C4.1875 8.9375 4.1875 8.9375 2 8 C0.25 4.4375 0.25 4.4375 -1 1 C-0.67 0.67 -0.34 0.34 0 0 Z " fill="#1C221D" transform="translate(106,19)"/>
<path d="M0 0 C2.375 0.25 2.375 0.25 5 1 C6.3125 3.0625 6.3125 3.0625 7 5 C5.68 4.67 4.36 4.34 3 4 C3 5.32 3 6.64 3 8 C2.34 8 1.68 8 1 8 C0.67 5.36 0.34 2.72 0 0 Z " fill="#46361C" transform="translate(171,0)"/>
<path d="M0 0 C0.66 0.33 1.32 0.66 2 1 C1.01 2.98 0.02 4.96 -1 7 C-2.98 7 -4.96 7 -7 7 C-7 6.01 -7 5.02 -7 4 C-1.7265625 0.77734375 -1.7265625 0.77734375 0 0 Z " fill="#26241E" transform="translate(351,18)"/>
<path d="M0 0 C0.33 0 0.66 0 1 0 C1.33 1.65 1.66 3.3 2 5 C2.598125 4.79375 3.19625 4.5875 3.8125 4.375 C6 4 6 4 9 6 C8.67 6.99 8.34 7.98 8 9 C7.401875 8.814375 6.80375 8.62875 6.1875 8.4375 C3.83591238 7.77906313 3.83591238 7.77906313 1 9 C-0.4783226 6.04335481 -0.06032783 3.25770263 0 0 Z " fill="#DA8C24" transform="translate(281,21)"/>
<path d="M0 0 C0.28571429 8.57142857 0.28571429 8.57142857 -2 12 C-2.33 9.36 -2.66 6.72 -3 4 C-4.98 4.99 -4.98 4.99 -7 6 C-5.96557526 2.89672578 -3.70631018 0 0 0 Z " fill="#F69D26" transform="translate(71,24)"/>
<path d="M0 0 C0.33 0 0.66 0 1 0 C1.33 4.29 1.66 8.58 2 13 C2.66 13 3.32 13 4 13 C4 13.66 4 14.32 4 15 C2.35 15.66 0.7 16.32 -1 17 C-0.67 11.39 -0.34 5.78 0 0 Z " fill="#45351C" transform="translate(75,1)"/>
<path d="M0 0 C-1.75 6.75 -1.75 6.75 -4 9 C-4.99 9 -5.98 9 -7 9 C-7 8.01 -7 7.02 -7 6 C-6.34 5.67 -5.68 5.34 -5 5 C-4.835 4.34 -4.67 3.68 -4.5 3 C-4.335 2.34 -4.17 1.68 -4 1 C-2 0 -2 0 0 0 Z " fill="#352017" transform="translate(69,10)"/>
<path d="M0 0 C0 2.64 0 5.28 0 8 C-0.99 8 -1.98 8 -3 8 C-2.67 7.01 -2.34 6.02 -2 5 C-3.65 5.66 -5.3 6.32 -7 7 C-5.80061288 4.10148113 -3.63852862 0 0 0 Z " fill="#3C301B" transform="translate(36,8)"/>
<path d="M0 0 C2.91517292 1.07401108 4.77810176 1.77810176 7 4 C7.125 7.125 7.125 7.125 7 10 C6.34 10 5.68 10 5 10 C3.33333333 6.66666667 1.66666667 3.33333333 0 0 Z " fill="#2A6149" transform="translate(107,18)"/>
<path d="M0 0 C4.67692308 1.47692308 4.67692308 1.47692308 6.3125 4.125 C6.539375 4.74375 6.76625 5.3625 7 6 C4.525 5.01 4.525 5.01 2 4 C1.67 5.32 1.34 6.64 1 8 C0 7 0 7 -0.0625 3.4375 C-0.041875 2.303125 -0.02125 1.16875 0 0 Z " fill="#342B1B" transform="translate(122,28)"/>
<path d="M0 0 C0.33 0 0.66 0 1 0 C1.19335938 0.68707031 1.38671875 1.37414062 1.5859375 2.08203125 C1.97652344 3.43361328 1.97652344 3.43361328 2.375 4.8125 C2.63023438 5.70582031 2.88546875 6.59914063 3.1484375 7.51953125 C3.95266661 10.20467896 3.95266661 10.20467896 6 13 C3.5625 12.625 3.5625 12.625 1 12 C-0.26237731 9.47524538 -0.09856404 7.68799534 -0.0625 4.875 C-0.05347656 3.96492188 -0.04445313 3.05484375 -0.03515625 2.1171875 C-0.02355469 1.41851563 -0.01195313 0.71984375 0 0 Z " fill="#2B644B" transform="translate(104,16)"/>
<path d="M0 0 C0.33 0 0.66 0 1 0 C1.20625 1.2375 1.4125 2.475 1.625 3.75 C2.42872548 7.08309684 3.23635876 8.61965806 6.125 10.5 C7.07375 10.995 8.0225 11.49 9 12 C8.34 12.66 7.68 13.32 7 14 C4.30969236 12.63425709 2.04133177 11.24086044 0 9 C-0.61361622 5.91644958 -0.42575 3.10189288 0 0 Z " fill="#282119" transform="translate(310,10)"/>
<path d="M0 0 C0.33 0 0.66 0 1 0 C1 2.64 1 5.28 1 8 C0.01 8.495 0.01 8.495 -1 9 C-1 7.68 -1 6.36 -1 5 C-2.65 5.33 -4.3 5.66 -6 6 C-4 4 -2 2 0 0 Z " fill="#322A1B" transform="translate(242,18)"/>
<path d="M0 0 C0.33 1.65 0.66 3.3 1 5 C-1.64 4.67 -4.28 4.34 -7 4 C-3.375 0 -3.375 0 0 0 Z " fill="#234233" transform="translate(319,50)"/>
<path d="M0 0 C5.75 -0.125 5.75 -0.125 8 1 C6.25 4.875 6.25 4.875 4 6 C2.62437146 4.71034824 1.29233607 3.37310707 0 2 C0 1.34 0 0.68 0 0 Z " fill="#295D46" transform="translate(151,45)"/>
<path d="M0 0 C1.65 0 3.3 0 5 0 C5.33 1.32 5.66 2.64 6 4 C4.35 4.33 2.7 4.66 1 5 C0.67 3.35 0.34 1.7 0 0 Z " fill="#373ED9" transform="translate(42,31)"/>
<path d="M0 0 C1.65 0 3.3 0 5 0 C4.67 1.65 4.34 3.3 4 5 C2.35 4.67 0.7 4.34 -1 4 C-0.67 2.68 -0.34 1.36 0 0 Z " fill="#373DD7" transform="translate(177,12)"/>
<path d="M0 0 C0.66 0.33 1.32 0.66 2 1 C1.67 1.99 1.34 2.98 1 4 C2.65 3.34 4.3 2.68 6 2 C4.9024777 4.99324263 4.32317108 5.84610901 1.375 7.25 C0.59125 7.4975 -0.1925 7.745 -1 8 C-0.67 5.36 -0.34 2.72 0 0 Z " fill="#322A1B" transform="translate(79,3)"/>
<path d="M0 0 C3.0625 0.1875 3.0625 0.1875 5.0625 2.1875 C4.134375 2.5896875 4.134375 2.5896875 3.1875 3 C0.7629767 4.14306848 0.7629767 4.14306848 -0.9375 7.1875 C-1.06125 6.383125 -1.185 5.57875 -1.3125 4.75 C-1.621875 3.4815625 -1.621875 3.4815625 -1.9375 2.1875 C-2.5975 1.8575 -3.2575 1.5275 -3.9375 1.1875 C-2.9375 0.1875 -2.9375 0.1875 0 0 Z " fill="#2A6048" transform="translate(226.9375,44.8125)"/>
<path d="M0 0 C1.32 0.66 2.64 1.32 4 2 C3.34 3.32 2.68 4.64 2 6 C0.68 5.67 -0.64 5.34 -2 5 C-1.125 1.125 -1.125 1.125 0 0 Z " fill="#393FE2" transform="translate(336,30)"/>
<path d="M0 0 C0.66 0.33 1.32 0.66 2 1 C1.67 3.31 1.34 5.62 1 8 C-0.9375 7.25 -0.9375 7.25 -3 6 C-3.75 3.875 -3.75 3.875 -4 2 C-2.125 0.9375 -2.125 0.9375 0 0 Z " fill="#252322" transform="translate(334,28)"/>
<path d="M0 0 C0.66 0.33 1.32 0.66 2 1 C2 4.96 2 8.92 2 13 C1.01 12.67 0.02 12.34 -1 12 C-0.67 8.04 -0.34 4.08 0 0 Z " fill="#362E1B" transform="translate(278,15)"/>
<path d="M0 0 C1.98 0 3.96 0 6 0 C5.67 1.65 5.34 3.3 5 5 C4.01 5.33 3.02 5.66 2 6 C1.34 4.02 0.68 2.04 0 0 Z " fill="#295C45" transform="translate(18,16)"/>
<path d="M0 0 C1.98 0 3.96 0 6 0 C5.34 1.98 4.68 3.96 4 6 C3.34 6 2.68 6 2 6 C0 3 0 3 0 0 Z " fill="#E03803" transform="translate(308,45)"/>
<path d="M0 0 C0.33 0 0.66 0 1 0 C1 3.63 1 7.26 1 11 C-0.98 10.34 -2.96 9.68 -5 9 C-5 8.01 -5 7.02 -5 6 C-3.68 6 -2.36 6 -1 6 C-0.67 4.02 -0.34 2.04 0 0 Z " fill="#342A1A" transform="translate(99,36)"/>
<path d="M0 0 C0.33 0 0.66 0 1 0 C1.08226668 3.04386724 0.97608217 5.07175348 0 8 C-2.475 7.01 -2.475 7.01 -5 6 C-5 4.68 -5 3.36 -5 2 C-3.68 2.33 -2.36 2.66 -1 3 C-0.67 2.01 -0.34 1.02 0 0 Z " fill="#9E6921" transform="translate(307,33)"/>
<path d="M0 0 C-4.455 2.97 -4.455 2.97 -9 6 C-9.66 5.34 -10.32 4.68 -11 4 C-9.92892883 3.13050683 -8.84254056 2.27985795 -7.75 1.4375 C-7.14671875 0.96183594 -6.5434375 0.48617187 -5.921875 -0.00390625 C-4 -1 -4 -1 0 0 Z " fill="#E59325" transform="translate(278,32)"/>
<path d="M0 0 C0.99 0.33 1.98 0.66 3 1 C3 1.66 3 2.32 3 3 C2.34 3 1.68 3 1 3 C1.99 5.64 2.98 8.28 4 11 C2.68 11 1.36 11 0 11 C0 7.37 0 3.74 0 0 Z " fill="#2C654B" transform="translate(295,16)"/>
<path d="M0 0 C0.66 0 1.32 0 2 0 C1.125 4.75 1.125 4.75 0 7 C-1.32 7 -2.64 7 -4 7 C-2.92598892 4.08482708 -2.22189824 2.22189824 0 0 Z " fill="#1B1F1B" transform="translate(83,20)"/>
<path d="M0 0 C2.4375 0.8125 2.4375 0.8125 5 2 C5.33 2.99 5.66 3.98 6 5 C4.68 4.67 3.36 4.34 2 4 C1.67 5.32 1.34 6.64 1 8 C0.67 8 0.34 8 0 8 C0 5.36 0 2.72 0 0 Z " fill="#352C1B" transform="translate(139,19)"/>
<path d="M0 0 C2.875 -0.125 2.875 -0.125 6 0 C8 2 8 2 8 5 C7.01 5.33 6.02 5.66 5 6 C4.67 5.01 4.34 4.02 4 3 C1.98491642 2.26676204 1.98491642 2.26676204 0 2 C0 1.34 0 0.68 0 0 Z " fill="#1D2620" transform="translate(147,47)"/>
<path d="M0 0 C1.32 0 2.64 0 4 0 C4 1.65 4 3.3 4 5 C2.35 5 0.7 5 -1 5 C-0.67 3.35 -0.34 1.7 0 0 Z " fill="#3A41EB" transform="translate(128,40)"/>
<path d="M0 0 C0.99 0 1.98 0 3 0 C5 6.625 5 6.625 5 10 C0 4.5 0 4.5 0 0 Z " fill="#1E2A23" transform="translate(214,30)"/>
<path d="M0 0 C0 2.64 0 5.28 0 8 C-0.99 8 -1.98 8 -3 8 C-2.67 7.01 -2.34 6.02 -2 5 C-2.99 5 -3.98 5 -5 5 C-5 4.34 -5 3.68 -5 3 C-1.42307692 0 -1.42307692 0 0 0 Z " fill="#352C1B" transform="translate(69,27)"/>
<path d="M0 0 C1.32 0.33 2.64 0.66 4 1 C3.67 2.32 3.34 3.64 3 5 C1.35 4.67 -0.3 4.34 -2 4 C-1.34 2.68 -0.68 1.36 0 0 Z " fill="#3B41ED" transform="translate(218,21)"/>
<path d="M0 0 C1.9375 0.6875 1.9375 0.6875 4 2 C4.75 4.625 4.75 4.625 5 7 C3.68 6.67 2.36 6.34 1 6 C0.67 4.02 0.34 2.04 0 0 Z " fill="#1B201B" transform="translate(297,20)"/>
<path d="M0 0 C0.66 0 1.32 0 2 0 C2 4.95 2 9.9 2 15 C1.01 14.67 0.02 14.34 -1 14 C-0.67 9.38 -0.34 4.76 0 0 Z " fill="#FA9F26" transform="translate(280,16)"/>
<path d="M0 0 C0.99 0 1.98 0 3 0 C2.34 1.98 1.68 3.96 1 6 C-0.32 6 -1.64 6 -3 6 C-1.125 1.125 -1.125 1.125 0 0 Z " fill="#1C241F" transform="translate(273,20)"/>
<path d="M0 0 C1.65 0 3.3 0 5 0 C5 1.65 5 3.3 5 5 C3.35 4.67 1.7 4.34 0 4 C0 2.68 0 1.36 0 0 Z " fill="#3B41F2" transform="translate(266,50)"/>
<path d="M0 0 C3.37462715 0.54723683 5.08235 1.0549 8 3 C8 3.66 8 4.32 8 5 C5.125 4.75 5.125 4.75 2 4 C0.625 1.9375 0.625 1.9375 0 0 Z " fill="#383FE1" transform="translate(194,42)"/>
<path d="M0 0 C1.65 0 3.3 0 5 0 C4.67 1.65 4.34 3.3 4 5 C2.68 4.67 1.36 4.34 0 4 C0 2.68 0 1.36 0 0 Z " fill="#3A41ED" transform="translate(233,31)"/>
<path d="M0 0 C1.32 0.33 2.64 0.66 4 1 C3.67 2.32 3.34 3.64 3 5 C1.35 4.67 -0.3 4.34 -2 4 C-1.34 2.68 -0.68 1.36 0 0 Z " fill="#3B41EF" transform="translate(352,21)"/>
<path d="M0 0 C1.65 0 3.3 0 5 0 C4.34 1.98 3.68 3.96 3 6 C2.01 6 1.02 6 0 6 C0 4.02 0 2.04 0 0 Z " fill="#295B45" transform="translate(168,16)"/>
<path d="M0 0 C0 0.99 0 1.98 0 3 C-0.99 3 -1.98 3 -3 3 C-3 3.99 -3 4.98 -3 6 C-3.66 6 -4.32 6 -5 6 C-5 5.34 -5 4.68 -5 4 C-5.99 3.67 -6.98 3.34 -8 3 C-2.25 0 -2.25 0 0 0 Z " fill="#1F3329" transform="translate(192,15)"/>
<path d="M0 0 C0.33 0 0.66 0 1 0 C1.04898438 0.71027344 1.09796875 1.42054688 1.1484375 2.15234375 C1.22320312 3.07144531 1.29796875 3.99054687 1.375 4.9375 C1.44460937 5.85402344 1.51421875 6.77054687 1.5859375 7.71484375 C1.72257812 8.46894531 1.85921875 9.22304687 2 10 C2.66 10.33 3.32 10.66 4 11 C3.02149805 12.02104551 2.02019573 13.0206121 1 14 C0.67 14 0.34 14 0 14 C0 9.38 0 4.76 0 0 Z " fill="#DB8D24" transform="translate(76,1)"/>
<path d="M0 0 C-0.625 1.9375 -0.625 1.9375 -2 4 C-5.125 4.75 -5.125 4.75 -8 5 C-3.375 0 -3.375 0 0 0 Z " fill="#3940E6" transform="translate(378,42)"/>
<path d="M0 0 C2.0625 1.6875 2.0625 1.6875 4 4 C3.75 6.75 3.75 6.75 3 9 C1 8 1 8 -0.1875 5.0625 C-1 2 -1 2 0 0 Z " fill="#285843" transform="translate(10,30)"/>
<path d="M0 0 C1.98 0 3.96 0 6 0 C5.34 1.65 4.68 3.3 4 5 C3.01 4.67 2.02 4.34 1 4 C0.3125 1.9375 0.3125 1.9375 0 0 Z " fill="#EC3A02" transform="translate(150,26)"/>
<path d="M0 0 C1.65 0 3.3 0 5 0 C4.67 1.65 4.34 3.3 4 5 C3.01 5 2.02 5 1 5 C0.67 3.35 0.34 1.7 0 0 Z " fill="#F83C00" transform="translate(35,26)"/>
<path d="M0 0 C0.66 0 1.32 0 2 0 C2 2.64 2 5.28 2 8 C0.35 8 -1.3 8 -3 8 C-3 7.34 -3 6.68 -3 6 C-2.34 5.67 -1.68 5.34 -1 5 C-0.34444881 2.47266765 -0.34444881 2.47266765 0 0 Z " fill="#F09925" transform="translate(96,16)"/>
<path d="M0 0 C0.99 0.33 1.98 0.66 3 1 C3 2.65 3 4.3 3 6 C3.99 6 4.98 6 6 6 C6 6.99 6 7.98 6 9 C3.5067466 8.00269864 2.22532561 7.34925469 0.75 5.0625 C0 3 0 3 0 0 Z " fill="#261E18" transform="translate(313,10)"/>
<path d="M0 0 C2.475 0.99 2.475 0.99 5 2 C5 2.99 5 3.98 5 5 C4.236875 4.814375 3.47375 4.62875 2.6875 4.4375 C-0.08967375 3.77180827 -0.08967375 3.77180827 -3 5 C-1.125 1.125 -1.125 1.125 0 0 Z " fill="#E49225" transform="translate(285,44)"/>
<path d="M0 0 C1.65 0 3.3 0 5 0 C4.67 1.65 4.34 3.3 4 5 C3.01 5 2.02 5 1 5 C0.67 3.35 0.34 1.7 0 0 Z " fill="#F13B01" transform="translate(259,45)"/>
<path d="M0 0 C1.98 0.99 3.96 1.98 6 3 C6 3.66 6 4.32 6 5 C3.03 4.505 3.03 4.505 0 4 C0 2.68 0 1.36 0 0 Z " fill="#393FE1" transform="translate(5,42)"/>
<path d="M0 0 C0.66 0.33 1.32 0.66 2 1 C2 2.98 2 4.96 2 7 C1.34 7 0.68 7 0 7 C-0.33 7.66 -0.66 8.32 -1 9 C-1.09765625 2.84765625 -1.09765625 2.84765625 -1 1 C-0.67 0.67 -0.34 0.34 0 0 Z " fill="#F23B01" transform="translate(95,30)"/>
<path d="M0 0 C-0.33 1.98 -0.66 3.96 -1 6 C-3.475 5.01 -3.475 5.01 -6 4 C-6 3.34 -6 2.68 -6 2 C-2.25 0 -2.25 0 0 0 Z " fill="#81581F" transform="translate(341,16)"/>
<path d="M0 0 C-2.31 1.32 -4.62 2.64 -7 4 C-7.33 2.68 -7.66 1.36 -8 0 C-4.94736336 -0.98120464 -3.05263664 -0.98120464 0 0 Z " fill="#CF8523" transform="translate(273,16)"/>
<path d="M0 0 C2.475 0.99 2.475 0.99 5 2 C4.67 2.99 4.34 3.98 4 5 C3.34 4.67 2.68 4.34 2 4 C2 5.65 2 7.3 2 9 C0.14223235 5.86501708 -0.20140476 3.62528568 0 0 Z " fill="#F43B01" transform="translate(311,6)"/>
<path d="M0 0 C1.65 0 3.3 0 5 0 C4.625 2.4375 4.625 2.4375 4 5 C3.01 5.495 3.01 5.495 2 6 C1.34 4.02 0.68 2.04 0 0 Z " fill="#F43B01" transform="translate(68,45)"/>
<path d="M0 0 C0.99 0.33 1.98 0.66 3 1 C3 1.66 3 2.32 3 3 C0 5 0 5 -4 5 C-3 2 -3 2 0 0 Z " fill="#393FE5" transform="translate(184,42)"/>
<path d="M0 0 C1.32 0 2.64 0 4 0 C3.67 1.65 3.34 3.3 3 5 C1.68 5.33 0.36 5.66 -1 6 C-1 5.01 -1 4.02 -1 3 C-0.34 2.67 0.32 2.34 1 2 C0.67 1.34 0.34 0.68 0 0 Z " fill="#1C251F" transform="translate(349,31)"/>
<path d="M0 0 C0.99 0 1.98 0 3 0 C3.33 1.98 3.66 3.96 4 6 C3.01 6.33 2.02 6.66 1 7 C1 5.35 1 3.7 1 2 C0.34 1.67 -0.32 1.34 -1 1 C-0.67 0.67 -0.34 0.34 0 0 Z " fill="#2C674D" transform="translate(324,47)"/>
<path d="M0 0 C1.65 0 3.3 0 5 0 C5 0.99 5 1.98 5 3 C4.01 2.67 3.02 2.34 2 2 C1.67 4.64 1.34 7.28 1 10 C0.67 10 0.34 10 0 10 C0 6.7 0 3.4 0 0 Z " fill="#C47F23" transform="translate(101,30)"/>
<path d="M0 0 C0.99 0.33 1.98 0.66 3 1 C2.67 3.31 2.34 5.62 2 8 C1.34 8 0.68 8 0 8 C0 5.36 0 2.72 0 0 Z " fill="#2D271A" transform="translate(313,28)"/>
<path d="M0 0 C-1 3 -1 3 -4.0625 4.6875 C-5.031875 5.120625 -6.00125 5.55375 -7 6 C-7 5.01 -7 4.02 -7 3 C-2.77777778 0 -2.77777778 0 0 0 Z " fill="#E59225" transform="translate(35,3)"/>
<path d="M0 0 C1.98 0 3.96 0 6 0 C6 0.99 6 1.98 6 3 C4.02 3 2.04 3 0 3 C0 2.01 0 1.02 0 0 Z " fill="#EA9526" transform="translate(376,51)"/>
<path d="M0 0 C0.66 0 1.32 0 2 0 C1.34 1.98 0.68 3.96 0 6 C-0.99 6 -1.98 6 -3 6 C-2.42655063 3.13275314 -2.1385485 2.1385485 0 0 Z " fill="#1E2720" transform="translate(144,49)"/>
<path d="M0 0 C0.33 0.99 0.66 1.98 1 3 C-0.32 4.32 -1.64 5.64 -3 7 C-3 5.02 -3 3.04 -3 1 C-2.01 0.67 -1.02 0.34 0 0 Z " fill="#2D654C" transform="translate(171,28)"/>
<path d="M0 0 C1.98 0.99 3.96 1.98 6 3 C6 3.33 6 3.66 6 4 C3.36 4 0.72 4 -2 4 C-1.34 2.68 -0.68 1.36 0 0 Z " fill="#28241A" transform="translate(19,12)"/>
<path d="M0 0 C1.65 0 3.3 0 5 0 C5.33 0.99 5.66 1.98 6 3 C4.02 3 2.04 3 0 3 C0 2.01 0 1.02 0 0 Z " fill="#ED9726" transform="translate(0,51)"/>
<path d="M0 0 C2.97 0.495 2.97 0.495 6 1 C5.67 1.99 5.34 2.98 5 4 C3.02 3.34 1.04 2.68 -1 2 C-0.67 1.34 -0.34 0.68 0 0 Z " fill="#F39B26" transform="translate(186,51)"/>
<path d="M0 0 C3.24299151 2.38957269 5.50902342 4.2047869 7 8 C6.01 8 5.02 8 4 8 C0 2.74285714 0 2.74285714 0 0 Z " fill="#1F2F26" transform="translate(48,46)"/>
<path d="M0 0 C0.33 0.99 0.66 1.98 1 3 C-0.32 3 -1.64 3 -3 3 C-3 3.66 -3 4.32 -3 5 C-3.66 5 -4.32 5 -5 5 C-5 3.68 -5 2.36 -5 1 C-3.35 0.67 -1.7 0.34 0 0 Z " fill="#2C624A" transform="translate(173,39)"/>
<path d="M0 0 C0.66 0 1.32 0 2 0 C1.25 2.875 1.25 2.875 0 6 C-1.98 6.99 -1.98 6.99 -4 8 C-2.68 5.36 -1.36 2.72 0 0 Z " fill="#1D2721" transform="translate(356,32)"/>
<path d="M0 0 C0.66 0 1.32 0 2 0 C2.33 2.64 2.66 5.28 3 8 C0.9375 6.25 0.9375 6.25 -1 4 C-0.75 1.75 -0.75 1.75 0 0 Z " fill="#2F4C37" transform="translate(134,33)"/>
<path d="M0 0 C0.66 0 1.32 0 2 0 C2 1.98 2 3.96 2 6 C0.68 5.67 -0.64 5.34 -2 5 C-1.34 3.35 -0.68 1.7 0 0 Z " fill="#295B45" transform="translate(276,20)"/>
<path d="M0 0 C0.33 0 0.66 0 1 0 C1 1.98 1 3.96 1 6 C-0.65 6.33 -2.3 6.66 -4 7 C-4.66 6.01 -5.32 5.02 -6 4 C-5.34 3.67 -4.68 3.34 -4 3 C-1.875 3.9375 -1.875 3.9375 0 5 C0 3.35 0 1.7 0 0 Z " fill="#D48924" transform="translate(307,12)"/>
<path d="M0 0 C1.98 0 3.96 0 6 0 C4.71034824 1.37562854 3.37310707 2.70766393 2 4 C1.34 4 0.68 4 0 4 C0 2.68 0 1.36 0 0 Z " fill="#F73B00" transform="translate(27,0)"/>
</svg>
