<svg width="74" height="40" viewBox="0 0 74 40" fill="none" xmlns="http://www.w3.org/2000/svg">
<path d="M29.6193 11.644C37.3756 14.1461 36.9586 22.9032 36.7918 24.7381C34.4566 23.2368 29.9529 23.9874 29.3691 24.0708C26.3667 24.5713 24.365 25.9891 22.9472 26.9065C21.2792 28.0741 20.2784 28.9915 19.6112 29.7421C18.6103 29.9089 17.5261 29.9923 16.4419 30.1591H16.1917C12.8556 30.5762 6.68394 31.4102 6.18354 33.9122C6.10013 34.079 6.10014 34.3292 6.10014 34.5794C6.10014 35.0798 6.10014 35.4968 5.68313 35.9138C5.09932 36.4976 4.1819 36.581 3.51469 36.3308C2.43048 35.9972 1.59646 34.8296 1.51306 33.8288C1.42966 32.6612 2.26367 30.9932 9.60299 26.9065C13.6897 24.6547 16.0249 23.6538 17.7763 22.9866C19.778 22.1526 20.9456 21.6522 22.7804 20.0676C23.6144 19.4004 25.6161 16.8149 29.6193 11.644Z" fill="#F8F4F1"/>
<path d="M44.549 20.7354C45.4664 21.8196 50.0535 27.9913 48.8025 32.3281C48.8025 32.4949 48.7191 32.5783 48.6357 32.7451C48.5523 32.6617 48.4689 32.6617 48.3021 32.6617C48.0519 32.5783 47.8017 32.4949 47.3847 32.4115C42.2138 31.1605 37.7935 32.1613 33.2064 33.4124C29.2866 34.4966 26.1173 35.5808 20.2792 37.499C20.2792 37.499 16.3593 38.75 9.10343 38.75C9.02003 38.75 8.93663 38.75 8.85322 38.75C8.35282 38.75 7.4354 38.75 6.68479 38.0828C6.26778 37.6658 6.01758 37.082 6.01758 36.248C6.43458 35.7476 6.43458 35.2472 6.43458 34.7468C6.43458 34.58 6.43459 34.3298 6.51799 34.163C7.01839 31.8277 13.1901 31.0771 16.1925 30.6601H16.4427C17.527 30.4933 18.6112 30.4099 19.6954 30.2431C22.6144 29.8261 25.3667 29.4091 28.0355 28.7419C37.3765 26.4066 43.0478 22.2366 44.549 20.7354Z" fill="#F8F4F1"/>
<path d="M49.0531 32.745C49.0531 32.8284 48.9697 32.9118 48.9697 32.9952C48.9697 33.0786 48.8863 33.0786 48.8029 33.0786C48.8029 33.0786 48.8029 33.0786 48.7195 33.0786C48.6361 32.9952 48.5527 32.9118 48.6361 32.8284C48.6361 32.745 48.7195 32.745 48.7195 32.6616C48.8029 32.6616 48.8029 32.6616 48.8863 32.6616C48.8863 32.745 48.9697 32.745 49.0531 32.745Z" fill="white"/>
<path d="M48.9691 32.328C48.8857 32.4948 48.8857 32.5782 48.8023 32.745C48.7189 32.745 48.7189 32.745 48.6355 32.745C48.7189 32.5782 48.7189 32.4948 48.8023 32.328C50.1367 27.9911 45.4662 21.9028 44.5488 20.7352C44.6322 20.6518 44.6322 20.6518 44.7156 20.5684C45.5496 21.6526 50.3035 27.8243 48.9691 32.328Z" fill="white"/>
<path d="M49.1351 32.4112C49.1351 32.578 49.0517 32.6614 48.9683 32.8282C48.8849 32.8282 48.8015 32.8282 48.8015 32.7448C48.8849 32.578 48.8849 32.4946 48.9683 32.3278C50.3861 27.8241 45.5489 21.569 44.7148 20.5682L44.7982 20.4848C44.7982 20.4848 44.7982 20.4848 44.8816 20.4014C45.6323 21.4856 50.5529 27.7407 49.1351 32.4112Z" fill="white"/>
<path d="M44.7999 20.4852L44.7165 20.5686C44.7165 20.652 44.6331 20.652 44.5497 20.7354C44.4663 20.652 44.3829 20.5686 44.3829 20.5686C44.2995 20.4852 44.2995 20.4018 44.3829 20.3184C44.4663 20.235 44.6331 20.235 44.6331 20.3184C44.7165 20.3184 44.7999 20.3184 44.7999 20.4852C44.7999 20.4018 44.7999 20.4018 44.7999 20.4852Z" fill="white"/>
<path d="M36.709 25.2386C36.8758 25.1552 36.9592 25.0718 37.126 25.0718C37.126 25.1552 37.126 25.1552 37.126 25.1552C37.126 25.2386 37.0426 25.322 36.9592 25.322C36.9592 25.322 36.8758 25.322 36.709 25.2386C36.7924 25.2386 36.7924 25.2386 36.709 25.2386Z" fill="white"/>
<path d="M67.8185 12.9788C71.9052 15.314 74.0736 22.1529 72.072 26.8234C70.2372 31.0769 65.3999 32.8283 61.5634 33.4955C57.3934 34.2461 52.3059 34.1627 48.6362 33.1619C48.7196 33.1619 48.803 33.0785 48.803 33.0785C48.803 32.9951 48.8864 32.9117 48.8864 32.8283C55.3083 34.4963 68.4857 33.8291 71.5716 26.6566C73.4064 22.2363 71.4048 15.6476 67.4849 13.3958C63.8153 11.3107 56.3092 12.9788 56.2257 13.0622C55.4751 13.3124 51.6387 14.5634 48.0524 17.3156C47.552 17.7327 47.0516 18.1497 46.8848 18.3165L46.8014 18.3999C45.7172 19.3173 44.9666 20.1513 44.7164 20.4849C44.633 20.4015 44.633 20.4015 44.633 20.3181C44.5496 20.2347 44.4662 20.2347 44.3828 20.3181L44.4662 20.2347C44.7164 19.9845 45.5504 19.0671 46.6346 18.0663L46.8014 17.8995C46.9682 17.7327 47.4686 17.3156 47.969 16.8986C51.5553 14.063 55.4751 12.812 56.2257 12.5618C56.2257 12.5618 56.3091 12.5618 56.476 12.4784C57.8938 10.7269 57.0598 8.2249 57.0598 8.1415C56.3926 6.47347 54.9747 4.13823 52.4727 2.72041C50.7213 1.71959 48.9698 1.38599 47.2184 1.38599C45.5504 1.38599 43.9657 1.71959 42.6313 1.96979C41.5471 2.1366 38.9617 2.63701 36.2928 4.38843C33.9576 5.88966 32.79 7.39088 30.4547 10.3933L29.7875 11.2273C29.7041 11.2273 29.6207 11.1439 29.5373 11.1439C29.4539 11.1439 29.3705 11.1439 29.2871 11.2273L30.1211 10.2265C32.4564 7.14068 33.7074 5.55605 36.0426 4.05483C38.8783 2.3034 41.4637 1.80299 42.5479 1.55279C45.3002 1.05238 49.1366 0.301767 52.7229 2.3868C55.3083 3.88803 56.7262 6.30667 57.4768 8.05809C57.4768 8.1415 58.3108 10.4767 57.0598 12.395C59.3116 12.0614 64.7327 11.2273 67.8185 12.9788Z" fill="white"/>
<path d="M29.4539 11.6441C29.3705 11.6441 29.2871 11.4773 29.2871 11.3939C29.2871 11.3939 29.2871 11.3939 29.2871 11.3105C29.3705 11.227 29.4539 11.2271 29.5373 11.2271C29.6207 11.2271 29.7041 11.3105 29.7875 11.3105L29.6207 11.4773C29.5373 11.5607 29.5373 11.5607 29.5373 11.6441C29.6207 11.6441 29.5373 11.6441 29.4539 11.6441Z" fill="white"/>
<path d="M44.3821 20.5683C44.3821 20.5683 44.4655 20.6517 44.5489 20.7351C43.0476 22.2363 37.3763 26.4898 28.0354 28.7416C25.3665 29.4088 22.6977 29.8258 19.6953 30.2428C19.7787 30.2428 19.7787 30.2428 19.8621 30.1594C19.9455 29.9926 20.1123 29.9092 20.2791 29.7424C22.9479 29.3254 25.4499 28.9084 27.952 28.3246C31.3714 27.4906 34.3739 26.4064 36.7925 25.2387H36.8759C36.9593 25.2387 37.0427 25.3221 37.0427 25.2387C37.1261 25.2387 37.1261 25.1553 37.2095 25.0719C37.2095 25.0719 37.2095 25.0719 37.2095 24.9885C41.2128 23.0703 43.7148 21.0687 44.4655 20.2346C44.2987 20.3181 44.2987 20.4849 44.3821 20.5683Z" fill="white"/>
<path d="M37.1268 24.9885C36.96 25.0719 36.8766 25.1553 36.7098 25.1553C34.5414 23.4873 29.6207 24.4047 29.3705 24.4047C26.4514 24.9051 24.5332 26.2395 23.1154 27.1569C21.7809 28.0743 20.8635 28.9084 20.1963 29.5756C19.9461 29.5756 19.7793 29.659 19.5291 29.659C20.1963 28.9084 21.1971 27.9909 22.8652 26.8233C24.283 25.9059 26.2846 24.4881 29.2871 23.9877C29.7875 23.9043 34.3746 23.1537 36.7098 24.6549C36.8766 22.8201 37.2936 14.0629 29.5373 11.5609C29.5373 11.4775 29.6207 11.4775 29.6207 11.3941L29.7875 11.2273C38.211 14.0629 37.2936 23.9043 37.1268 24.9885Z" fill="white"/>
<path d="M19.6128 29.7426C19.863 29.7426 20.0298 29.6592 20.28 29.6592C20.1132 29.826 19.9464 29.9928 19.863 30.0762C19.863 30.0762 19.7796 30.1596 19.6962 30.1596C19.6128 30.1596 19.6128 30.1596 19.5294 30.0762C19.446 30.0762 19.446 29.9094 19.6128 29.7426C19.6128 29.826 19.5294 29.826 19.6128 29.7426Z" fill="white"/>
<path d="M48.552 32.8283C48.4686 32.9117 48.552 33.0785 48.6354 33.0785C48.4686 32.9951 48.3018 32.9951 48.135 32.9117C47.8848 32.8283 47.6346 32.7449 47.2176 32.6615C42.1301 31.4939 37.7098 32.4947 33.2896 33.6623C29.3697 34.7466 26.2004 35.8308 20.3623 37.749C20.2789 37.749 16.4425 39 9.01977 39C8.93636 39 8.85296 39 8.76956 39C8.26915 39 7.10153 39 6.35092 38.166C5.93391 37.749 5.68371 37.1652 5.60031 36.4146C4.9331 36.915 4.01568 36.915 3.34847 36.6648C2.01405 36.2478 1.18004 34.9134 1.01323 33.8292C0.846431 32.2445 2.18085 30.4931 9.35337 26.5732C13.44 24.3214 15.8587 23.3206 17.6101 22.57C19.6117 21.736 20.696 21.3189 22.5308 19.7343C23.3648 18.9837 25.3664 16.3983 29.3697 11.144C29.3697 11.144 29.3697 11.144 29.3697 11.2274C29.3697 11.3108 29.3697 11.4776 29.5365 11.4776C29.6199 11.4776 29.6199 11.4776 29.7033 11.4776C25.7 16.6485 23.6984 19.2339 22.8644 19.9845C21.0296 21.5692 19.8619 22.0696 17.8603 22.9036C16.1089 23.6542 13.6902 24.5716 9.68698 26.8234C2.34766 30.9101 1.43024 32.4947 1.59704 33.7458C1.68044 34.6632 2.51446 35.9142 3.59868 36.2478C4.26589 36.4146 5.2667 36.4146 5.76711 35.8308C6.10072 35.4138 6.10072 34.9968 6.18412 34.4964C6.18412 34.2462 6.18412 34.0794 6.26752 33.8292C6.85133 31.2437 12.9396 30.4931 16.2757 30.0761H16.5259C17.6101 29.9093 18.6943 29.8259 19.6951 29.6591C19.6951 29.6591 19.6951 29.6591 19.6117 29.7425C19.5283 29.8259 19.5283 29.9927 19.6117 29.9927C19.6951 29.9927 19.6951 30.0761 19.7785 30.0761C18.7777 30.2429 17.6935 30.3263 16.5259 30.4931H16.2757C13.2732 30.9101 7.10153 31.6607 6.60112 33.996C6.60112 34.1628 6.60113 34.3296 6.51772 34.5798C6.51772 35.0802 6.43432 35.5806 6.10072 36.081C6.18412 36.8316 6.35092 37.4988 6.76793 37.9158C7.43514 38.583 8.43596 38.583 8.93636 38.583C9.01976 38.583 9.10317 38.583 9.18657 38.583C16.4425 38.583 20.2789 37.332 20.3623 37.332C26.117 35.4138 29.3697 34.3296 33.2896 33.2453C37.7932 31.9943 42.2969 30.9935 47.4678 32.2445C47.8848 32.3279 48.135 32.4113 48.3852 32.4947C48.4686 32.4947 48.552 32.5781 48.7188 32.5781C48.552 32.7449 48.552 32.8283 48.552 32.8283Z" fill="white"/>
<path d="M29.3691 11.3107L30.2032 10.2265C32.5384 7.14068 33.7894 5.55605 36.1247 4.05483C38.9603 2.3034 41.5457 1.80299 42.63 1.55279C45.3822 1.05238 49.2187 0.301767 52.8049 2.3868C55.3904 3.88803 56.8082 6.30667 57.5588 8.05809C57.5588 8.1415 58.3928 10.4767 57.1418 12.395C59.3102 12.0614 64.7313 11.2273 67.8172 12.9788C71.9038 15.314 74.0723 22.1529 72.0706 26.8234C70.2358 31.0769 65.3985 32.8283 61.5621 33.4955C57.392 34.2461 52.3045 34.1627 48.6349 33.1619" stroke="#F8F4F1" stroke-miterlimit="10"/>
<path d="M48.6354 33.0785C48.4686 32.9951 48.3018 32.9951 48.135 32.9117C47.8848 32.8283 47.6346 32.7449 47.2176 32.6615C42.1301 31.4939 37.7098 32.4947 33.2896 33.6624C29.3697 34.7466 26.2004 35.8308 20.3623 37.749C20.2789 37.749 16.4425 39 9.01977 39C8.93636 39 8.85296 39 8.76956 39C8.26915 39 7.10153 39 6.35092 38.166C5.93391 37.749 5.68371 37.1652 5.60031 36.4146C4.9331 36.915 4.01568 36.915 3.34847 36.6648C2.01405 36.2478 1.18004 34.9134 1.01323 33.8292C0.846431 32.2445 2.18085 30.4931 9.35337 26.5732C13.44 24.3214 15.8587 23.3206 17.6101 22.57C19.6117 21.736 20.696 21.3189 22.5308 19.7343C23.3648 18.9837 25.3664 16.3983 29.3697 11.144" stroke="#F8F4F1" stroke-miterlimit="10"/>
<path d="M19.6954 30.1596C18.6946 30.3264 17.6104 30.4098 16.4427 30.5766H16.1925C13.1901 30.9937 7.01839 31.7443 6.51799 34.0795C6.51799 34.2463 6.51799 34.4131 6.43458 34.6633C6.43458 35.1637 6.35118 35.6641 6.01758 36.1645C6.10098 36.9151 6.26778 37.5824 6.68479 37.9994C7.352 38.6666 8.35282 38.6666 8.85322 38.6666C8.93663 38.6666 9.02003 38.6666 9.10343 38.6666C16.3593 38.6666 20.1958 37.4156 20.2792 37.4156C26.0339 35.4973 29.2866 34.4131 33.2064 33.3289C37.7101 32.0779 42.2138 31.0771 47.3847 32.3281C47.8017 32.4115 48.0519 32.4949 48.3021 32.5783C48.3855 32.5783 48.4689 32.6617 48.6357 32.6617C48.7191 32.6617 48.7191 32.6617 48.8025 32.6617C48.8859 32.6617 48.9693 32.6617 48.9693 32.7451C55.3912 34.4131 68.5686 33.7459 71.6545 26.5734C73.4893 22.1531 71.4877 15.5644 67.5678 13.3126C63.8981 11.2275 56.392 12.8956 56.3086 12.979C55.558 13.2292 51.7215 14.4802 48.1353 17.2324C47.6349 17.6494 47.1344 18.0664 46.9676 18.2332L46.8842 18.3166C45.8 19.2341 45.0494 20.0681 44.7992 20.4017C44.7992 20.4017 44.7992 20.4017 44.7158 20.4851L44.6324 20.5685C44.6324 20.6519 44.549 20.6519 44.4656 20.7353C42.9644 22.2365 37.2931 26.49 27.9521 28.7418C25.3667 29.3256 22.6979 29.7426 19.6954 30.1596Z" stroke="#F8F4F1" stroke-miterlimit="10"/>
<path d="M44.3811 20.2348C44.7147 19.9011 45.4654 18.9837 46.633 17.9829L46.7998 17.8995C46.9666 17.7327 47.467 17.3157 47.9674 16.8987C51.5537 14.0631 55.4735 12.812 56.2241 12.5618C56.2241 12.5618 56.3075 12.5618 56.4743 12.4784C57.8922 10.727 57.0581 8.22496 57.0581 8.14156C56.3909 6.47353 54.9731 4.13829 52.4711 2.72047C50.7196 1.71965 48.9682 1.38605 47.2168 1.38605C45.5488 1.38605 43.9641 1.71965 42.6297 1.96986C41.5455 2.13666 38.96 2.63707 36.2912 4.38849C33.956 5.88972 32.7883 7.39094 30.4531 10.3934L29.7859 11.2274L29.6191 11.3942C29.5357 11.4776 29.5357 11.4776 29.5357 11.561C25.5324 16.7319 23.5308 19.3173 22.6968 20.0679C20.8619 21.6526 19.6943 22.153 17.6927 22.987C15.9413 23.7376 13.5226 24.655 9.51936 26.9069C2.18004 30.9935 1.26263 32.5782 1.42943 33.8292C1.51283 34.7466 2.34685 35.9976 3.43107 36.3312C4.09828 36.498 5.09909 36.498 5.5995 35.9142C5.93311 35.4972 5.93311 35.0802 6.01651 34.5798C6.01651 34.3296 6.01651 34.1628 6.09991 33.9126C6.68372 31.3271 12.772 30.5765 16.1081 30.1595H16.3583C17.4425 29.9927 18.5267 29.9093 19.5275 29.7425C19.7777 29.7425 19.9445 29.6591 20.1947 29.6591C22.8636 29.2421 25.3656 28.8251 27.8677 28.2413C31.2871 27.4073 34.2896 26.3231 36.7082 25.1554C36.875 25.072 36.9584 24.9886 37.1252 24.9886C41.2119 23.0704 43.6305 21.0688 44.3811 20.2348Z" stroke="#F8F4F1" stroke-miterlimit="10"/>
<path d="M19.6942 30.1592C19.6108 30.1592 19.6108 30.1592 19.5274 30.0758C19.444 29.9924 19.444 29.909 19.5274 29.8256C19.5274 29.8256 19.5274 29.8256 19.6108 29.7422C20.278 28.9915 21.2788 28.0741 22.9469 26.9065C24.3647 25.9891 26.3663 24.5713 29.3688 24.0709C29.8692 23.9875 34.4562 23.2368 36.7915 24.7381C36.9583 22.9032 37.3753 14.1461 29.619 11.6441C29.5356 11.6441 29.5356 11.6441 29.4522 11.6441C29.3688 11.6441 29.2854 11.4773 29.2854 11.3939C29.2854 11.3939 29.2854 11.3939 29.2854 11.3105C29.3688 11.227 29.4522 11.2271 29.5356 11.2271C29.619 11.2271 29.7024 11.3105 29.7858 11.3105C38.1259 14.0627 37.2085 23.9041 37.0417 24.9883C37.0417 25.0717 37.0417 25.0717 37.0417 25.0717C37.0417 25.1551 36.9583 25.2385 36.8749 25.2385C36.7915 25.2385 36.7081 25.2385 36.7081 25.2385C36.7081 25.2385 36.7081 25.2385 36.6247 25.2385C34.4562 23.5705 29.5356 24.4879 29.2854 24.4879C26.3663 24.9883 24.4481 26.3227 23.0303 27.2401C21.6958 28.1575 20.7784 28.9915 20.1112 29.6588C19.9444 29.8256 19.7776 29.9924 19.6942 30.0758C19.7776 30.1592 19.7776 30.1592 19.6942 30.1592Z" stroke="#F8F4F1" stroke-miterlimit="10"/>
<path d="M44.5488 20.4014C44.5488 20.4014 44.5488 20.4848 44.7156 20.5682C45.5496 21.6524 50.3869 27.9075 48.9691 32.3278C48.8857 32.4946 48.8857 32.578 48.8023 32.7448C48.8023 32.8282 48.7189 32.9116 48.7189 32.9116" stroke="#F8F4F1" stroke-miterlimit="10"/>
<path d="M49.052 32.7451C49.052 32.8285 48.9686 32.9119 48.9686 32.9953C48.9686 33.0787 48.8852 33.0787 48.8018 33.0787C48.8018 33.0787 48.8018 33.0787 48.7184 33.0787C48.635 32.9953 48.5516 32.9119 48.635 32.8285C48.635 32.7451 48.7184 32.7451 48.7184 32.6617C48.8018 32.4949 48.8018 32.4115 48.8852 32.2447C50.2196 27.9078 45.5491 21.8195 44.6317 20.6519C44.5483 20.5685 44.4649 20.4851 44.4649 20.4851C44.3815 20.4017 44.3815 20.3183 44.4649 20.2349C44.5483 20.1515 44.7151 20.1515 44.7151 20.2349C44.7151 20.2349 44.7985 20.3183 44.7985 20.4017C45.6325 21.4025 50.5532 27.741 49.1354 32.4115C49.1354 32.4949 49.052 32.6617 49.052 32.7451Z" stroke="#F8F4F1" stroke-miterlimit="10"/>
</svg>
