<svg width="42" height="48" viewBox="0 0 42 48" fill="none" xmlns="http://www.w3.org/2000/svg">
<path d="M2.90995 47.9998C2.84341 47.9998 0.581119 47.9998 0.0488152 45.3383C-0.483489 42.7433 3.50879 38.0856 3.70841 37.886L12.6245 23.3807C14.9533 19.8542 12.1587 17.2592 12.0257 17.1927C11.9591 17.1262 11.0276 16.0616 11.1607 14.7973C11.2272 14.0654 11.6264 13.4666 12.3583 12.9343C14.8203 11.2043 20.6091 15.8619 20.8752 16.0616C21.0083 16.1946 23.8694 18.59 24.069 20.5196C24.1356 21.0519 24.0025 21.4511 23.7363 21.7838C23.204 22.3827 22.339 22.3827 21.9398 22.3827C21.8733 22.3827 21.8067 22.3827 21.8067 22.3827C21.8067 22.3827 21.6737 22.4492 19.6775 22.05C19.4779 22.05 18.2802 22.3161 16.9495 23.5138C15.4191 24.8446 11.4268 29.6353 11.3603 29.7018C11.3603 29.7018 9.09798 32.4964 8.56568 33.6276C8.03338 34.7587 3.64187 41.2129 3.44225 41.4791C2.84341 42.211 1.31304 44.2071 1.44611 45.4048C1.51265 45.7375 1.64573 45.9371 1.91188 46.1367C3.70841 47.2013 5.23878 45.0721 5.30532 44.939L8.76529 39.8156L12.9572 33.3614C13.0237 33.1618 13.2899 32.4299 13.8887 32.0307C13.9553 31.7645 14.0883 31.2322 14.421 31.0326C14.6872 30.6999 16.151 28.8368 16.8829 28.1715L17.2156 28.5707C16.4837 29.2361 14.7537 31.3653 14.7537 31.4318C14.5541 31.4984 14.421 31.8976 14.421 32.1637V32.2968L14.2879 32.3634C13.6891 32.6961 13.4895 33.4945 13.4895 33.4945V33.561L9.2976 40.0152L5.83762 45.1387C5.17224 46.0702 3.50879 47.4675 1.7788 46.4694C1.37958 46.2033 1.11342 45.8706 1.04689 45.4048C0.780733 43.7414 3.04303 41.2129 3.10956 41.0798C3.10956 41.0133 7.70068 34.426 8.16645 33.2949C8.69875 32.0972 10.8945 29.3692 11.0276 29.2361C11.2272 29.0365 15.0864 24.3788 16.6833 22.9815C18.2802 21.5842 19.6775 21.3846 19.7441 21.3846H19.8106H19.8771C20.6756 21.5177 21.6071 21.7173 21.8067 21.7173C21.8733 21.7173 21.9398 21.7173 22.0729 21.7173C22.4056 21.7173 23.1375 21.7173 23.5367 21.2515C23.7363 21.0519 23.8029 20.7857 23.7363 20.3865C23.6033 18.7231 20.8087 16.3277 20.7421 16.2612C19.1452 14.9969 14.6206 11.9362 12.8241 13.2004C12.2253 13.5996 11.8926 14.1319 11.826 14.6643C11.693 15.7289 12.558 16.6604 12.558 16.6604C12.558 16.6604 15.8183 19.5881 13.2233 23.5138L4.10763 38.2187C4.0411 38.2852 0.115354 42.9429 0.58112 45.2717C1.04689 47.534 2.90995 47.534 2.97649 47.534C2.97649 47.534 4.70648 47.401 7.368 43.941C10.0961 40.3479 13.556 34.0933 13.556 34.0268L14.0218 34.293C13.9553 34.3595 10.4953 40.6141 7.76722 44.2737C4.90609 47.9333 2.97649 47.9998 2.90995 47.9998Z" fill="#F8F4F1"/>
<path d="M13.6888 34.2928C13.6223 34.2928 13.6223 34.2928 13.5557 34.2928C13.1565 34.2263 13.0234 33.6274 13.0234 33.4944L13.4892 33.4278C13.4892 33.6274 13.6223 33.8271 13.6888 33.8271C13.6888 33.8271 13.8219 33.8271 14.1546 33.3613C14.4207 32.8955 14.4873 32.6294 14.4873 32.5628C14.4207 32.4963 14.2877 32.4298 14.2211 32.4298V31.8975C14.4207 31.8975 14.82 31.964 14.953 32.2967C15.0861 32.6294 14.953 33.0286 14.6203 33.5609C14.3542 33.8936 14.0215 34.2928 13.6888 34.2928Z" fill="#F8F4F1"/>
<path d="M14.821 32.7628L14.5548 32.3636C14.7544 32.2305 14.954 32.0975 14.954 31.9644C14.954 31.8978 14.954 31.8313 14.8875 31.7648C14.7544 31.6317 14.5548 31.4986 14.4883 31.4321L14.6879 30.9663C14.7544 30.9663 15.0871 31.1659 15.2867 31.4986C15.4198 31.6982 15.4198 31.8978 15.4198 32.0975C15.4198 32.3636 15.2202 32.5632 14.821 32.7628Z" fill="#F8F4F1"/>
<path d="M16.6164 37.8195C16.4834 37.8195 16.2838 37.753 16.0841 37.6199C15.1526 36.7549 15.5518 35.8899 15.6184 35.8899L16.8826 34.293C17.1488 34.0269 17.8141 33.3615 17.9472 32.8957C18.0137 32.6296 18.1468 32.43 18.3464 32.2969L16.9491 28.4377C16.9491 28.3711 16.9491 28.2381 17.0157 28.1715C17.0822 28.105 17.1488 28.0385 17.2153 28.105C17.2818 28.105 17.8807 28.1715 18.1468 28.6373C18.3464 28.9034 18.9453 30.6334 19.278 31.4984L24.0022 25.3769C24.1352 25.1773 27.196 20.5197 28.6598 18.9893C30.0571 17.4589 32.3194 13.9324 32.3194 13.9324L37.4428 7.54475C37.8421 7.14552 38.2413 6.61322 38.3078 6.4136C38.2413 6.21399 38.1082 5.8813 38.2413 5.54861C38.3078 5.34899 38.574 5.08284 39.1063 5.0163C39.6386 4.94976 39.9713 3.55247 40.0378 2.5544C40.0378 2.42132 39.8382 1.88902 39.439 1.75594C39.0398 1.62287 38.4409 2.02209 37.7755 2.75401C37.709 2.82055 37.5759 2.88709 37.5094 2.82055C37.4428 2.82055 36.9771 2.5544 36.7109 2.88709L36.7775 3.48593C36.7775 3.55247 36.7775 3.619 36.7109 3.68554C36.5113 3.81862 35.5798 5.34899 34.7148 6.74629C34.5817 6.94591 31.7206 10.8051 30.789 11.6701C29.9241 12.5351 24.0687 20.1204 24.0022 20.187C23.9356 20.32 23.736 20.32 23.6695 20.2535C23.5364 20.187 23.5364 19.9874 23.6029 19.9208C23.8691 19.5881 29.5914 12.2024 30.4564 11.3374C31.3213 10.4724 34.3156 6.54668 34.3156 6.48014C34.7148 5.8813 35.9125 3.9517 36.3117 3.48593L36.2452 2.88709C36.2452 2.82055 36.2452 2.82055 36.2452 2.75401C36.5779 2.15517 37.1767 2.15517 37.5759 2.28825C38.3744 1.42325 39.0398 1.09056 39.6386 1.22364C40.3705 1.42325 40.5701 2.42132 40.5701 2.42132C40.5701 2.95363 40.3705 5.28246 39.2394 5.41553C38.9732 5.41553 38.8401 5.54861 38.7736 5.68168C38.7071 5.8813 38.7736 6.08091 38.8401 6.14745C38.9067 6.28053 39.0398 6.48014 37.8421 7.8109L32.7852 14.1985C32.7186 14.3316 30.5229 17.7916 29.0591 19.322C27.6618 20.8523 24.4679 25.6431 24.4679 25.6431L19.3445 32.0973C19.278 32.1638 19.278 32.1638 19.2114 32.1638C19.278 32.1638 19.411 32.2303 19.4776 32.2969C19.7437 32.4965 19.8103 32.8292 19.8103 33.3615C19.8103 33.428 19.8103 33.428 19.8103 33.428C19.8103 33.428 19.5441 33.8938 18.6126 35.0249C18.0803 35.6903 18.0137 36.023 18.0137 36.023C18.0803 36.0896 18.0803 36.1561 18.0137 36.2226C17.9472 36.3557 17.4814 37.6199 16.8161 37.753C16.7495 37.8195 16.683 37.8195 16.6164 37.8195ZM16.0176 36.0896C16.0176 36.0896 15.818 36.6219 16.4168 37.2207C16.5499 37.3538 16.6165 37.3538 16.683 37.2872C16.9491 37.2207 17.3484 36.6219 17.4814 36.1561V36.0896C17.4814 35.7569 17.6811 35.2911 18.2134 34.6923C18.9453 33.8273 19.2114 33.3615 19.3445 33.2284C19.3445 32.9623 19.3445 32.7627 19.2114 32.6961C19.0784 32.6296 18.8122 32.6961 18.7457 32.6961C18.6791 32.6961 18.6126 32.6961 18.5461 32.6961C18.5461 32.6961 18.4795 32.7627 18.413 33.0288C18.2134 33.6942 17.3484 34.4926 17.2153 34.6257L16.0176 36.0896ZM17.6145 28.7704L18.8787 32.1638C18.9453 32.1638 19.0118 32.1638 19.0784 32.1638C19.0118 32.1638 19.0118 32.0973 18.9453 32.0307C18.5461 30.8996 17.8141 29.1031 17.6811 28.9034C17.6811 28.8369 17.6145 28.7704 17.6145 28.7704Z" fill="#F8F4F1"/>
<path d="M7.38585 42.0938L2.83008 41.5264L2.77251 41.9885L7.32828 42.556L7.38585 42.0938Z" fill="#F8F4F1"/>
<path d="M7.64884 41.3879L3.43555 40.77L3.35831 41.2967L7.5716 41.9146L7.64884 41.3879Z" fill="#F8F4F1"/>
<path d="M13.1676 33.0304L8.82617 32.3682L8.7459 32.8944L13.0873 33.5566L13.1676 33.0304Z" fill="#F8F4F1"/>
<path d="M13.6885 32.8295L11.4262 32.6964L9.23047 32.0976L9.36355 31.6318L11.4928 32.2307L13.6885 32.2972V32.8295Z" fill="#F8F4F1"/>
<path d="M4.10771 45.4717C3.84156 45.4717 3.50887 45.3386 3.30925 45.139C3.0431 44.9394 2.97656 44.6067 2.97656 44.274C2.97656 43.9413 3.10964 43.6086 3.37579 43.409C3.64194 43.2094 3.9081 43.0098 4.24079 43.0098C4.57348 43.0098 4.90617 43.0763 5.10578 43.3425C5.57154 43.8082 5.57154 44.6067 5.10578 45.139C4.83963 45.4051 4.57348 45.5382 4.24079 45.5382C4.17425 45.4717 4.10771 45.4717 4.10771 45.4717ZM4.30732 43.409C4.04117 43.409 3.84156 43.5421 3.70848 43.6751C3.50887 43.8748 3.44233 44.0744 3.44233 44.274C3.44233 44.4736 3.50887 44.6732 3.64194 44.7398C3.77502 44.8728 3.97463 44.9394 4.17425 44.9394C4.37386 44.9394 4.57347 44.8063 4.70655 44.6732C5.03924 44.3405 5.03924 43.8748 4.77309 43.6086C4.64001 43.4755 4.4404 43.409 4.30732 43.409Z" fill="#F8F4F1"/>
<path d="M3.24406 44.2143L1.31445 44.2031L1.31138 44.7354L3.24098 44.7466L3.24406 44.2143Z" fill="#F8F4F1"/>
<path d="M3.26584 43.7806L1.54883 43.5693L1.49196 44.0316L3.20897 44.2428L3.26584 43.7806Z" fill="#F8F4F1"/>
<path d="M5.79211 44.5437L5.25195 44.2852L5.05088 44.7053L5.59104 44.9638L5.79211 44.5437Z" fill="#F8F4F1"/>
<path d="M6.151 43.9704L5.23828 43.7842L5.14517 44.2405L6.05789 44.4268L6.151 43.9704Z" fill="#F8F4F1"/>
<path d="M17.5685 29.2025L17.2227 28.8906L14.9055 31.46L15.2514 31.7719L17.5685 29.2025Z" fill="#F8F4F1"/>
<path d="M17.8126 33.714L16.0508 30.7363L15.6499 30.9735L17.4118 33.9512L17.8126 33.714Z" fill="#F8F4F1"/>
<path d="M17.3046 34.3296L15.6992 31.1152L15.223 31.3531L16.8284 34.5674L17.3046 34.3296Z" fill="#F8F4F1"/>
<path d="M37.7383 3.35696L36.6445 2.28662L36.3188 2.6195L37.4125 3.68985L37.7383 3.35696Z" fill="#F8F4F1"/>
<path d="M39.838 5.81491L39.0395 5.14953L39.3722 4.7503L39.838 5.14953C40.5699 4.35107 40.703 2.68762 40.7695 2.35493C40.703 2.15532 40.3037 1.15725 39.4387 0.624945C39.3057 0.558407 39.1726 0.491869 39.0395 0.558407C38.3741 0.758021 37.5757 1.88917 37.3095 2.35493L36.8438 2.08878C36.9768 1.88917 37.8418 0.292255 38.9064 0.0261032C39.1726 -0.0404348 39.4387 0.0261031 39.7049 0.159179C40.836 0.891097 41.2353 2.15532 41.2353 2.22186V2.2884V2.35493C41.2353 2.42147 41.0356 4.7503 39.971 5.68183L39.838 5.81491Z" fill="#F8F4F1"/>
<path d="M39.2401 7.07928L38.3751 6.34736L38.7078 5.94813L39.3732 6.48044C39.3732 6.48044 39.3732 6.48044 39.3732 6.4139C39.3732 6.34736 39.3732 6.28082 39.2401 6.14775L38.3086 5.41583L38.6413 5.0166L39.5728 5.74852C39.839 6.01467 39.9055 6.28082 39.9055 6.48044C39.839 6.81313 39.5063 6.9462 39.4397 6.9462L39.2401 7.07928Z" fill="#F8F4F1"/>
<path d="M19.7449 33.428L19.3457 33.1618L24.203 26.508L30.5906 18.0577L39.1075 6.67969L39.5067 6.94584L24.6022 26.8407L19.7449 33.428Z" fill="#F8F4F1"/>
<path d="M15.2853 40.3479C14.0876 40.3479 13.1561 39.0837 13.0895 39.0172L13.023 38.8841C13.023 38.8175 12.9565 38.2187 13.2892 37.9526C13.4222 37.8195 13.6884 37.7529 14.0211 37.886L14.1542 37.9526V38.0856C14.1542 38.0856 14.2207 38.6845 14.6199 38.9506C14.8195 39.0837 15.1522 39.1502 15.4849 39.0172H15.618L15.6845 39.0837C15.8176 39.1502 16.3499 39.4829 16.2834 39.8822C16.2168 40.2148 15.8176 40.3479 15.4849 40.3479C15.4184 40.3479 15.3518 40.3479 15.2853 40.3479ZM13.5553 38.8175C13.7549 39.0172 14.5534 40.0152 15.4849 39.8822C15.8176 39.8156 15.8841 39.7491 15.8841 39.7491C15.8841 39.7491 15.7511 39.6825 15.618 39.5495C15.1522 39.6825 14.753 39.616 14.4868 39.3499C14.0876 39.0837 13.888 38.5514 13.8215 38.2852C13.7549 38.2852 13.6884 38.2852 13.6884 38.2852C13.5553 38.4183 13.5553 38.6179 13.5553 38.8175Z" fill="#F8F4F1"/>
<path d="M15.8184 39.4166L15.4192 39.217L15.8849 38.352C15.8184 38.2854 15.6853 38.0858 15.3526 37.7531C15.2861 37.6866 15.2196 37.6866 15.153 37.6866C14.8203 37.6866 14.4211 38.0858 14.2215 38.352L13.8223 38.0193C13.8888 37.9528 14.4876 37.1543 15.153 37.1543C15.4192 37.1543 15.6188 37.2208 15.7519 37.4204C16.1511 37.8197 16.3507 38.1524 16.4172 38.2854L16.4838 38.4185L15.8184 39.4166Z" fill="#F8F4F1"/>
<path d="M19.6118 21.9838C17.8818 21.6511 12.7583 17.8585 12.4922 17.7254L12.7583 17.3262C12.8249 17.3927 18.0814 21.2519 19.6783 21.5181L19.6118 21.9838Z" fill="#F8F4F1"/>
<path d="M21.673 21.518C20.5419 21.518 19.4773 21.1853 19.4107 21.1853L16.2835 19.3888C12.4242 17.8584 11.2931 14.6646 11.2266 14.5315L11.6923 14.3984C11.6923 14.3984 12.8235 17.5257 16.4831 18.923L19.5438 20.7195C19.5438 20.7195 22.538 21.6511 23.6026 20.3203L24.0019 20.653C23.4696 21.3184 22.538 21.518 21.673 21.518Z" fill="#F8F4F1"/>
<path d="M23.4039 19.7876C15.2863 12.0027 12.0259 13.8658 12.0259 13.8658L11.7598 13.4665C11.8928 13.4 15.3528 11.4038 23.7366 19.4549L23.4039 19.7876Z" fill="#F8F4F1"/>
<path d="M15.6862 18.3239C15.6197 18.3239 15.6197 18.3239 15.6862 18.3239C14.2889 17.7251 13.4239 16.9932 13.0912 16.0616C12.7585 15.2632 13.0912 14.5978 13.0912 14.5978C13.0912 14.5313 13.1578 14.5312 13.2243 14.5312C13.2908 14.5312 13.2908 14.5978 13.2908 14.6643C13.2908 14.6643 13.0247 15.2632 13.2908 15.9951C13.6235 16.8601 14.422 17.5255 15.7527 18.1243C15.8193 18.1243 15.8193 18.1908 15.8193 18.2574C15.7527 18.3239 15.6862 18.3239 15.6862 18.3239Z" fill="#F8F4F1"/>
<path d="M18.9467 20.6527C18.8802 20.6527 18.8802 20.5862 18.8802 20.5862C18.8802 19.9208 18.5475 19.5881 18.0817 19.1223C17.9487 18.9893 17.8821 18.9227 17.7491 18.7897C17.1502 18.1908 15.6864 18.3239 15.6864 18.3239H15.6198L14.5552 17.4589C13.4906 16.6604 13.4906 15.6624 13.5572 15.5958C13.5572 15.5293 13.6237 15.5293 13.6237 15.5293C13.6902 15.5293 13.6902 15.5958 13.6902 15.5958C13.6902 15.5958 13.6237 16.5274 14.6883 17.3258L15.6864 18.1243C15.9525 18.1243 17.2167 18.0577 17.8156 18.6566C17.9487 18.7897 18.0817 18.9227 18.1483 18.9893C18.614 19.455 19.0133 19.7877 19.0133 20.5862C19.0133 20.6527 18.9467 20.6527 18.9467 20.6527Z" fill="#F8F4F1"/>
<path d="M19.0123 18.7896C19.0123 18.7896 18.9458 18.7896 18.9458 18.7231C17.8812 16.9266 15.4193 16.9931 15.0201 16.9931L14.887 17.4589C14.887 17.5254 14.8204 17.5254 14.7539 17.5254C14.7539 17.5254 14.7539 17.5254 14.7539 17.4589L14.9535 16.86H15.0201C15.0201 16.86 17.9477 16.6604 19.1454 18.6566C19.1454 18.7231 19.1454 18.7231 19.0123 18.7896C19.0789 18.7896 19.0789 18.7896 19.0123 18.7896Z" fill="#F8F4F1"/>
<path d="M18.6143 18.9896C17.6162 17.7253 15.8197 17.8584 15.5535 17.9249L15.4205 18.058C15.4205 18.1246 15.3539 18.1246 15.2874 18.058C15.2874 18.058 15.2208 17.9915 15.2874 17.9249L15.487 17.7253C15.5535 17.7253 17.6162 17.4592 18.6808 18.8565C18.7474 18.8565 18.7474 18.923 18.6143 18.9896C18.6808 18.9896 18.6808 18.9896 18.6143 18.9896Z" fill="#F8F4F1"/>
<path d="M15.3522 37.6865C15.2856 37.6865 15.2191 37.6865 15.1525 37.6199C15.0195 37.5534 15.0195 37.3538 15.1525 37.2873L15.6183 36.8215C15.6848 36.6884 15.8845 36.6884 15.951 36.8215C16.0841 36.888 16.0841 37.0876 15.951 37.1542L15.4852 37.6199C15.4852 37.6199 15.4187 37.6865 15.3522 37.6865Z" fill="#F8F4F1"/>
<path d="M16.1515 38.5516C16.085 38.5516 16.085 38.5516 16.0184 38.485C15.8854 38.4185 15.8854 38.2854 15.9519 38.1523L16.4177 37.3539C16.4842 37.2208 16.6173 37.2208 16.7504 37.2874C16.8834 37.3539 16.8834 37.487 16.8169 37.62L16.3511 38.4185C16.3511 38.5516 16.2181 38.5516 16.1515 38.5516Z" fill="#F8F4F1"/>
<path d="M39.7056 6.54671C39.6391 6.54671 39.6391 6.54671 39.7056 6.54671C39.506 6.48017 39.4395 6.3471 39.4395 6.21402L39.6391 5.34903C39.6391 5.21595 39.7721 5.14941 39.9052 5.14941C40.0383 5.14941 40.1048 5.28249 40.1048 5.41557L39.9052 6.28056C39.9052 6.48017 39.7721 6.54671 39.7056 6.54671Z" fill="#F8F4F1"/>
<path d="M13.8894 32.2305C13.7564 32.2305 13.091 32.0309 12.8914 31.6316C12.8248 31.4986 12.8248 31.2324 12.9579 30.9663C13.1575 30.7001 13.3571 30.6336 13.5567 30.6336C14.089 30.567 14.5548 31.2324 14.6213 31.299L14.2221 31.6316C14.089 31.432 13.7564 31.1659 13.5567 31.1659C13.5567 31.1659 13.4902 31.1659 13.3571 31.299C13.2906 31.432 13.2906 31.4986 13.2906 31.4986C13.3571 31.6316 13.6898 31.7647 13.8894 31.8313V32.2305Z" fill="#F8F4F1"/>
<path d="M13.9542 31.0996C13.8211 31.0996 13.688 31.0996 13.555 31.0331C12.5569 30.8335 12.2907 29.8354 12.3573 29.3031C12.4238 28.9704 12.6234 28.6377 12.9561 28.6377H13.0226L14.7526 30.1015V30.1681C14.7526 30.2346 14.8192 30.5673 14.553 30.8334C14.4199 31.0331 14.2203 31.0996 13.9542 31.0996ZM12.8896 29.17C12.823 29.2365 12.823 29.3696 12.823 29.3696C12.823 29.3696 12.823 30.4342 13.6215 30.5673C13.8876 30.6338 14.0873 30.6338 14.2203 30.5008C14.2869 30.4342 14.2869 30.4342 14.2869 30.3677L12.8896 29.17Z" fill="#F8F4F1"/>
<path d="M17.1496 28.5707C17.083 28.5707 17.0165 28.5707 17.0165 28.5041C16.8834 28.4376 16.8834 28.238 16.95 28.1715L21.8738 21.9169C21.9403 21.7838 22.1399 21.7838 22.2065 21.8503C22.3395 21.9169 22.3395 22.1165 22.273 22.183L17.3492 28.4376C17.2826 28.5041 17.2161 28.5707 17.1496 28.5707Z" fill="#F8F4F1"/>
<path d="M17.882 28.9702C17.8155 28.9702 17.7489 28.9702 17.7489 28.9036C17.6158 28.8371 17.6158 28.6375 17.6824 28.5709L23.205 21.5179L29.4596 12.9345C30.99 11.4041 34.8492 7.21224 35.0488 6.14763C35.3149 5.08303 36.1799 4.15149 36.6457 3.8188L36.0469 3.2865C35.9138 3.21996 35.9138 3.02035 36.0469 2.95381C36.1134 2.82073 36.313 2.82073 36.3796 2.95381L37.178 3.61919C37.2445 3.68573 37.2446 3.75227 37.2446 3.8188C37.2446 3.88534 37.178 3.95188 37.1115 4.01842C37.1115 4.01842 35.7807 5.01649 35.448 6.28071C35.1819 7.67801 30.2581 12.7349 29.7258 13.2672L23.4712 21.8506L18.0816 28.8371C18.0151 28.9036 17.9485 28.9702 17.882 28.9702Z" fill="#F8F4F1"/>
<path d="M37.1106 4.08474C36.9775 4.08474 36.911 4.01821 36.8445 3.88513C36.7779 3.75205 36.8445 3.61898 36.9775 3.55244C36.9775 3.55244 37.3102 3.41936 37.4433 3.15321C37.5098 2.9536 37.5098 2.68745 37.3102 2.42129C37.2437 2.28822 37.3102 2.15514 37.4433 2.0886C37.5764 2.02207 37.7095 2.0886 37.776 2.22168C37.9756 2.68745 38.0422 3.02014 37.9091 3.41936C37.7095 3.88513 37.1772 4.08474 37.1772 4.08474C37.1772 4.08474 37.1772 4.08474 37.1106 4.08474Z" fill="#F8F4F1"/>
</svg>
