<svg width="91" height="63" viewBox="0 0 91 63" fill="none" xmlns="http://www.w3.org/2000/svg">
<path d="M37.8526 12.9084C37.5199 12.9084 37.2674 12.7765 37.0953 12.5126C37.015 12.3864 36.9576 12.2372 36.9232 12.0651C36.8888 11.893 36.8716 11.7151 36.8716 11.5315C36.8716 11.348 36.883 11.1644 36.906 10.9808C36.9289 10.7857 36.9576 10.5964 36.992 10.4128C37.0494 10.1145 37.1125 9.84484 37.1814 9.60388C37.2617 9.35145 37.342 9.11049 37.4223 8.88101V8.8638C37.3305 9.03591 37.2158 9.22523 37.0781 9.43177C36.9404 9.62683 36.8429 9.77026 36.7855 9.86205C36.7052 9.98827 36.6421 10.0514 36.5962 10.0514C36.5503 10.0514 36.5273 9.99974 36.5273 9.89647C36.5273 9.66699 36.5962 9.41456 36.7339 9.13918C36.8257 8.95559 36.9519 8.72037 37.1125 8.43352C37.2732 8.13519 37.4395 7.81391 37.6117 7.46969C37.7838 7.12546 37.9329 6.79271 38.0591 6.47143H36.906C36.8486 6.47143 36.8371 6.42554 36.8716 6.33374C36.906 6.24195 36.9576 6.15589 37.0265 6.07557C37.0953 5.98378 37.1469 5.93788 37.1814 5.93788H38.4894C38.6156 5.63955 38.7591 5.31828 38.9197 4.97405C39.0918 4.62983 39.2811 4.30855 39.4877 4.01022C39.7057 3.70042 39.9409 3.44799 40.1933 3.25293C40.4458 3.05787 40.7154 2.96034 41.0023 2.96034C41.1285 2.96034 41.2834 2.96034 41.467 2.96034C41.662 2.96034 41.7825 2.9546 41.8284 2.94313C41.5875 3.10376 41.3063 3.42504 40.9851 3.90696C40.6638 4.3774 40.3138 5.05437 39.9352 5.93788H41.6735C41.7079 5.93788 41.6965 5.98378 41.6391 6.07557C41.5817 6.15589 41.5071 6.24195 41.4153 6.33374C41.335 6.42554 41.2547 6.47143 41.1744 6.47143H39.6942C39.5451 6.85008 39.3787 7.26315 39.1951 7.71064C39.023 8.15814 38.8623 8.59989 38.7132 9.03591C38.5755 9.46045 38.4722 9.85058 38.4034 10.2063C38.3575 10.4243 38.3345 10.6251 38.3345 10.8087C38.3345 11.2447 38.4722 11.4627 38.7476 11.4627C38.9312 11.4627 39.1492 11.3709 39.4016 11.1873C39.6541 11.0037 39.9065 10.7513 40.1589 10.43C40.3884 10.1317 40.6064 9.81042 40.8129 9.46619C41.031 9.12197 41.2145 8.80643 41.3637 8.51957C41.4096 8.43925 41.4498 8.39909 41.4842 8.39909C41.553 8.39909 41.5875 8.49089 41.5875 8.67447C41.5875 8.76627 41.5702 8.87527 41.5358 9.00149C41.5129 9.11623 41.467 9.23097 41.3981 9.34571C41.2375 9.62109 41.0482 9.92516 40.8302 10.2579C40.6121 10.5792 40.3884 10.9005 40.1589 11.2217C39.9983 11.4283 39.786 11.6635 39.5221 11.9274C39.2697 12.1913 38.9943 12.4208 38.696 12.6159C38.4091 12.8109 38.128 12.9084 37.8526 12.9084Z" fill="#F8F4F1"/>
<path d="M45.3571 12.9084C44.967 12.9084 44.6974 12.7937 44.5482 12.5642C44.4105 12.3233 44.3417 12.0479 44.3417 11.7381C44.3417 11.4053 44.3933 11.0209 44.4966 10.5849C44.6113 10.1374 44.749 9.67846 44.9096 9.20802C45.0817 8.72611 45.2539 8.27861 45.426 7.86554C45.4833 7.72785 45.535 7.57869 45.5809 7.41805C45.6382 7.25741 45.6669 7.11399 45.6669 6.98777C45.6669 6.75829 45.5637 6.64355 45.3571 6.64355C45.2768 6.64355 45.185 6.66076 45.0817 6.69518C44.9785 6.71813 44.858 6.76976 44.7203 6.85008C44.4793 6.96482 44.2499 7.12546 44.0319 7.332C43.8138 7.52706 43.6647 7.67622 43.5844 7.77949C43.4352 7.96308 43.2918 8.16961 43.1541 8.39909C43.0164 8.6171 42.8959 8.84085 42.7926 9.07033C42.5632 9.56372 42.3796 10.0342 42.2419 10.4817C42.1157 10.9177 41.9952 11.2906 41.8804 11.6004C41.8116 11.7954 41.7428 11.9962 41.6739 12.2028C41.6051 12.4093 41.542 12.6101 41.4846 12.8052H39.8151C39.8151 12.8052 39.8553 12.6617 39.9356 12.3749C40.0159 12.088 40.1134 11.8012 40.2282 11.5143C40.756 10.1489 41.2551 8.75479 41.7255 7.332C42.196 5.9092 42.764 4.54377 43.4295 3.23572C43.7278 2.65053 44.0491 2.11125 44.3933 1.61786C44.749 1.12447 45.1219 0.734347 45.512 0.447492C45.9136 0.149164 46.3324 0 46.7684 0C47.1127 0 47.3479 0.0803192 47.4741 0.240958C47.6118 0.390122 47.6806 0.579446 47.6806 0.808929C47.6806 1.06136 47.629 1.32527 47.5257 1.60065C47.4225 1.87603 47.3192 2.11125 47.2159 2.30631C47.0094 2.71938 46.7398 3.18408 46.407 3.70042C46.0743 4.21676 45.7243 4.69867 45.3571 5.14617C45.2768 5.24943 45.1391 5.41581 44.9441 5.64529C44.749 5.8633 44.5482 6.08705 44.3417 6.31653C44.1466 6.54601 43.9917 6.72386 43.877 6.85008C44.2556 6.5747 44.5826 6.36243 44.858 6.21326C45.1334 6.0641 45.3686 5.96083 45.5637 5.90346C45.8964 5.81167 46.1718 5.76577 46.3898 5.76577C47.0438 5.76577 47.3708 6.05263 47.3708 6.62633C47.3708 6.86729 47.302 7.15415 47.1643 7.4869C47.0955 7.67048 46.9979 7.91718 46.8717 8.22698C46.7455 8.53678 46.6135 8.86954 46.4759 9.22523C46.3496 9.56946 46.2406 9.90221 46.1488 10.2235C46.0685 10.5448 46.0284 10.8087 46.0284 11.0152C46.0284 11.1414 46.0456 11.2562 46.08 11.3594C46.1259 11.4512 46.2062 11.4971 46.321 11.4971C46.4013 11.4971 46.516 11.457 46.6652 11.3766C46.9865 11.1931 47.2848 10.9349 47.5602 10.6021C47.847 10.2694 48.0994 9.91368 48.3175 9.53504C48.5469 9.15639 48.742 8.81216 48.9026 8.50236C48.9371 8.42204 48.9772 8.38188 49.0231 8.38188C49.0805 8.38188 49.1092 8.47941 49.1092 8.67447C49.1092 8.76627 49.0977 8.87527 49.0748 9.00149C49.0518 9.11623 49.0059 9.23097 48.9371 9.34571C48.7764 9.62109 48.5642 9.95958 48.3002 10.3612C48.0478 10.7628 47.761 11.1586 47.4397 11.5488C47.1184 11.9274 46.7799 12.2487 46.4242 12.5126C46.0685 12.7765 45.7128 12.9084 45.3571 12.9084ZM43.3778 6.7296C43.9515 6.05263 44.531 5.32975 45.1162 4.56098C45.7128 3.78074 46.2062 2.98902 46.5963 2.18583C46.6193 2.12846 46.6709 2.01372 46.7512 1.8416C46.8316 1.66949 46.9061 1.48017 46.975 1.27363C47.0438 1.05562 47.0782 0.872037 47.0782 0.722873C47.0782 0.527812 47.0037 0.430281 46.8545 0.430281C46.7053 0.430281 46.5275 0.533549 46.321 0.740084C46.1259 0.946619 45.9251 1.222 45.7186 1.56622C45.4547 2.00224 45.185 2.50711 44.9096 3.08082C44.6342 3.64305 44.3646 4.23971 44.1007 4.87079C43.8483 5.50187 43.6073 6.12147 43.3778 6.7296Z" fill="#F8F4F1"/>
<path d="M52.3015 12.5642C51.7736 12.8396 51.2172 12.9773 50.632 12.9773C50.1386 12.9773 49.6796 12.8568 49.2551 12.6159C48.8305 12.3749 48.5437 11.9905 48.3945 11.4627C48.3257 11.2217 48.2912 10.9693 48.2912 10.7054C48.2912 10.2694 48.3658 9.82189 48.515 9.36292C48.6756 8.89248 48.8822 8.4622 49.1346 8.07208C49.5247 7.46395 50.0181 6.95908 50.6148 6.55749C51.2114 6.15589 51.8712 5.95509 52.5941 5.95509C53.1333 5.95509 53.5521 6.09279 53.8505 6.36817C54.1488 6.64355 54.298 6.96482 54.298 7.332C54.298 7.76801 54.1488 8.1524 53.8505 8.48515C53.5636 8.80643 53.185 9.05312 52.7145 9.22523C52.485 9.30555 52.2384 9.36866 51.9744 9.41456C51.722 9.44898 51.4811 9.46619 51.2516 9.46619C50.7811 9.46619 50.4197 9.40308 50.1673 9.27687C49.9493 9.8391 49.8403 10.3554 49.8403 10.8259C49.8403 11.2504 49.9378 11.6004 50.1328 11.8758C50.3279 12.1397 50.6377 12.2716 51.0623 12.2716C51.4179 12.2716 51.7679 12.1741 52.1121 11.979C52.4678 11.784 52.7949 11.543 53.0932 11.2562C53.403 10.9693 53.6611 10.6939 53.8677 10.43C54.0283 10.235 54.166 10.0514 54.2808 9.87926C54.3955 9.70715 54.516 9.51209 54.6422 9.29408C54.7684 9.0646 54.9176 8.78348 55.0897 8.45073C55.1356 8.37041 55.1757 8.33025 55.2102 8.33025C55.279 8.33025 55.3134 8.42204 55.3134 8.60563C55.3134 8.7089 55.2962 8.82364 55.2618 8.94985C55.2388 9.0646 55.193 9.18507 55.1241 9.31129C54.9635 9.59815 54.7684 9.91368 54.5389 10.2579C54.3209 10.5907 54.0972 10.9119 53.8677 11.2217C53.6611 11.4971 53.4259 11.7496 53.162 11.979C52.8981 12.2085 52.6113 12.4036 52.3015 12.5642ZM50.7352 8.89822C50.7926 8.93264 50.8557 8.95559 50.9246 8.96706C50.9934 8.97854 51.0623 8.98428 51.1311 8.98428C51.3606 8.98428 51.5901 8.93264 51.8195 8.82938C52.049 8.71463 52.2441 8.59989 52.4047 8.48515C52.6686 8.30156 52.8924 8.08355 53.076 7.83112C53.2596 7.57869 53.3628 7.29184 53.3858 6.97056C53.3972 6.83287 53.3628 6.71813 53.2825 6.62633C53.2137 6.52307 53.0874 6.47143 52.9039 6.47143C52.8121 6.47143 52.6973 6.48864 52.5596 6.52307C52.376 6.56896 52.1925 6.65502 52.0089 6.78124C51.8253 6.90745 51.6474 7.05662 51.4753 7.22873C51.4179 7.2861 51.3147 7.40084 51.1655 7.57295C51.0278 7.73359 50.8959 7.91718 50.7697 8.12371C50.6434 8.31877 50.5803 8.49089 50.5803 8.64005C50.5803 8.76627 50.632 8.85232 50.7352 8.89822Z" fill="#F8F4F1"/>
<path d="M16.3163 38.8607C15.3721 39.1558 14.3788 39.4017 13.3363 39.5984C12.3134 39.8147 11.2414 39.9229 10.1202 39.9229C8.40893 39.9229 6.91401 39.6672 5.63546 39.1558C4.37658 38.6247 3.32423 37.9068 2.47842 37.0019C1.65228 36.0971 1.03268 35.0448 0.619605 33.8449C0.206535 32.645 0 31.3763 0 30.0387C0 28.6225 0.21637 27.3046 0.64911 26.0851C1.10152 24.8655 1.76047 23.8034 2.62595 22.8985C3.49143 21.9937 4.56344 21.2856 5.84199 20.7742C7.12054 20.2431 8.60563 19.9775 10.2972 19.9775C10.6513 19.9775 11.0742 19.9972 11.566 20.0365C12.0774 20.0562 12.6085 20.1054 13.1592 20.1841C13.71 20.2628 14.2706 20.3709 14.841 20.5086C15.4115 20.6266 15.9524 20.784 16.4638 20.9807L16.5228 21.2463L16.0212 24.1082H15.1951L15.0771 24.0197C14.9394 23.2329 14.4771 22.6232 13.6903 22.1904C12.9232 21.7577 11.743 21.5413 10.1497 21.5413C7.92701 21.5413 6.23539 22.0035 5.07486 22.928C4.60278 23.3018 4.19955 23.7443 3.86516 24.2558C3.53077 24.7672 3.24555 25.3278 3.00951 25.9376C2.79314 26.5473 2.62595 27.1964 2.50793 27.8849C2.40958 28.5537 2.3604 29.2224 2.3604 29.8912C2.3604 31.2091 2.54727 32.3893 2.921 33.4318C3.3144 34.4743 3.84549 35.3595 4.51427 36.0873C5.18305 36.7954 5.97968 37.3462 6.90417 37.7396C7.82866 38.1133 8.83183 38.3002 9.91368 38.3002C10.2481 38.3002 10.6218 38.2903 11.0349 38.2706C11.4676 38.2313 11.8807 38.1821 12.2741 38.1231C12.6872 38.0641 13.0511 37.9953 13.3658 37.9166C13.6805 37.8379 13.8969 37.7592 14.0149 37.6805C14.1722 37.5822 14.2509 37.3757 14.2509 37.0609C14.2509 36.9233 14.2509 36.7364 14.2509 36.5003C14.2509 36.2643 14.2509 36.0184 14.2509 35.7627C14.2509 35.4873 14.2411 35.2218 14.2214 34.9661C14.2214 34.6907 14.2116 34.4547 14.1919 34.258C14.1526 33.7465 14.0444 33.363 13.8674 33.1073C13.71 32.8319 13.5723 32.6549 13.4543 32.5762C13.2773 32.4385 13.0117 32.3598 12.6577 32.3401C12.3036 32.3008 11.9692 32.2811 11.6545 32.2811L11.507 32.1631L11.4184 31.514L11.4775 31.396C11.6151 31.396 11.8315 31.4058 12.1266 31.4255C12.4413 31.4452 12.756 31.4648 13.0707 31.4845C13.4051 31.5042 13.7198 31.5238 14.0149 31.5435C14.3296 31.5632 14.5558 31.573 14.6935 31.573H15.5786C15.7163 31.573 15.9032 31.5632 16.1392 31.5435C16.3753 31.5238 16.6212 31.5042 16.8769 31.4845C17.1326 31.4648 17.3785 31.4452 17.6145 31.4255C17.8505 31.4058 18.0374 31.396 18.1751 31.396L18.2341 31.514L18.1751 32.2221L18.0276 32.3401C17.4571 32.3401 17.0539 32.5073 16.8179 32.8417C16.6015 33.1564 16.4736 33.6285 16.4343 34.258C16.395 34.7497 16.3654 35.2808 16.3458 35.8512C16.3458 36.402 16.3458 36.8151 16.3458 37.0904C16.3458 37.3855 16.3458 37.7101 16.3458 38.0641C16.3654 38.3985 16.395 38.6149 16.4343 38.7132L16.3163 38.8607Z" fill="#F8F4F1"/>
<path d="M29.0627 20.3021C29.3184 20.3021 29.7019 20.3021 30.2134 20.3021C30.7445 20.2824 31.2755 20.2628 31.8066 20.2431C32.3377 20.2234 32.8098 20.2136 33.2229 20.2136C33.6556 20.1939 33.9212 20.1841 34.0195 20.1841L34.167 20.4791L34.049 23.6952H33.3114L33.1934 23.5771C33.154 23.1247 33.095 22.7707 33.0163 22.515C32.9573 22.2593 32.7606 22.0724 32.4262 21.9544C32.1115 21.8364 31.6296 21.7675 30.9805 21.7478C30.3314 21.7282 29.4167 21.7183 28.2365 21.7183H25.404L25.345 22.869C25.3254 23.1838 25.3057 23.4493 25.286 23.6657C25.286 23.882 25.2762 24.1476 25.2565 24.4623C25.2565 24.777 25.2565 25.1606 25.2565 25.613C25.2565 26.0457 25.2565 27.1079 25.2565 28.7995C25.8466 28.7799 26.4367 28.77 27.0268 28.77C27.6169 28.77 28.148 28.7602 28.6201 28.7405C29.1118 28.7209 29.5249 28.6815 29.8593 28.6225C30.1937 28.5438 30.4199 28.4356 30.5379 28.298C30.6953 28.1406 30.833 27.9832 30.951 27.8259C31.069 27.6685 31.128 27.4423 31.128 27.1473L31.2755 26.9997L31.7771 26.9407L31.8951 26.9997C31.8558 27.4521 31.8165 27.8455 31.7771 28.1799C31.7575 28.5143 31.7476 28.8979 31.7476 29.3306C31.7476 29.8027 31.7575 30.2453 31.7771 30.6584C31.8165 31.0518 31.8558 31.4845 31.8951 31.9566L31.7771 32.0156L31.246 31.9566L31.128 31.8681C31.128 31.5533 31.069 31.2681 30.951 31.0124C30.833 30.737 30.6953 30.5108 30.5379 30.3338C30.4199 30.2158 30.1937 30.1273 29.8593 30.0683C29.5249 30.0092 29.1217 29.9699 28.6496 29.9502C28.1775 29.9306 27.6464 29.9207 27.0563 29.9207C26.4662 29.9207 25.8663 29.9207 25.2565 29.9207V32.7827C25.2565 33.4908 25.2565 34.0711 25.2565 34.5235C25.2565 34.9563 25.2565 35.3497 25.2565 35.7037C25.2762 36.0381 25.2959 36.3528 25.3155 36.6479C25.3352 36.9233 25.3647 37.2478 25.404 37.6215C25.404 37.9953 25.6007 38.1821 25.9941 38.1821H28.5021C29.6823 38.1821 30.6068 38.1625 31.2755 38.1231C31.964 38.0641 32.4852 37.9559 32.8393 37.7986C33.1934 37.6412 33.4392 37.4052 33.5769 37.0904C33.7343 36.7561 33.8818 36.3233 34.0195 35.7922L34.1375 35.6742H34.9047L34.3736 39.4213L34.1375 39.7164C34.0392 39.7164 33.813 39.7066 33.4589 39.6869C33.1049 39.6869 32.7016 39.6771 32.2492 39.6574C31.8165 39.6377 31.3739 39.618 30.9215 39.5984C30.4887 39.5984 30.1445 39.5984 29.8888 39.5984H23.9288C23.7911 39.5984 23.5649 39.6082 23.2502 39.6279C22.9355 39.6475 22.6109 39.6672 22.2765 39.6869C21.9421 39.7066 21.6176 39.7262 21.3028 39.7459C20.9881 39.7656 20.7619 39.7754 20.6242 39.7754L20.5652 39.6574L20.6537 39.1263L20.8013 39.0083C21.116 39.0083 21.411 38.9984 21.6864 38.9788C21.9618 38.9394 22.188 38.8509 22.365 38.7132C22.5224 38.5755 22.6699 38.3985 22.8076 38.1821C22.965 37.9658 23.0633 37.5822 23.1027 37.0314C23.1027 36.8937 23.1027 36.7364 23.1027 36.5594C23.1223 36.3627 23.1322 36.1266 23.1322 35.8512C23.1518 35.5759 23.1617 35.2415 23.1617 34.8481C23.1617 34.4547 23.1617 33.9629 23.1617 33.3728V27.3833C23.1617 26.6948 23.1617 26.1146 23.1617 25.6425C23.1617 25.1704 23.1617 24.7672 23.1617 24.4328C23.1617 24.0984 23.1518 23.8132 23.1322 23.5771C23.1322 23.3411 23.1223 23.1051 23.1027 22.869C23.0633 22.3379 22.965 21.9642 22.8076 21.7478C22.6699 21.5118 22.5224 21.3249 22.365 21.1872C22.188 21.0496 21.9618 20.9709 21.6864 20.9512C21.411 20.9119 21.116 20.8922 20.8013 20.8922L20.6537 20.7742L20.5652 20.2431L20.6242 20.1251C20.7619 20.1251 20.9881 20.1349 21.3028 20.1546C21.6176 20.1742 21.952 20.1939 22.306 20.2136C22.6797 20.2332 23.0338 20.2529 23.3682 20.2726C23.7223 20.2923 24.0075 20.3021 24.2238 20.3021H29.0627Z" fill="#F8F4F1"/>
<path d="M45.9186 20.3021C46.1743 20.3021 46.5578 20.3021 47.0693 20.3021C47.6003 20.2824 48.1314 20.2628 48.6625 20.2431C49.1936 20.2234 49.6657 20.2136 50.0788 20.2136C50.5115 20.1939 50.7771 20.1841 50.8754 20.1841L51.0229 20.4791L50.9049 23.6952H50.1673L50.0493 23.5771C50.0099 23.1247 49.9509 22.7707 49.8722 22.515C49.8132 22.2593 49.6165 22.0724 49.2821 21.9544C48.9674 21.8364 48.4855 21.7675 47.8364 21.7478C47.1873 21.7282 46.2726 21.7183 45.0924 21.7183H42.2599L42.2009 22.869C42.1813 23.1838 42.1616 23.4493 42.1419 23.6657C42.1419 23.882 42.1321 24.1476 42.1124 24.4623C42.1124 24.777 42.1124 25.1606 42.1124 25.613C42.1124 26.0457 42.1124 27.1079 42.1124 28.7995C42.7025 28.7799 43.2926 28.77 43.8827 28.77C44.4728 28.77 45.0039 28.7602 45.476 28.7405C45.9677 28.7209 46.3808 28.6815 46.7152 28.6225C47.0496 28.5438 47.2758 28.4356 47.3938 28.298C47.5512 28.1406 47.6889 27.9832 47.8069 27.8259C47.9249 27.6685 47.9839 27.4423 47.9839 27.1473L48.1314 26.9997L48.633 26.9407L48.751 26.9997C48.7117 27.4521 48.6724 27.8455 48.633 28.1799C48.6133 28.5143 48.6035 28.8979 48.6035 29.3306C48.6035 29.8027 48.6133 30.2453 48.633 30.6584C48.6724 31.0518 48.7117 31.4845 48.751 31.9566L48.633 32.0156L48.1019 31.9566L47.9839 31.8681C47.9839 31.5533 47.9249 31.2681 47.8069 31.0124C47.6889 30.737 47.5512 30.5108 47.3938 30.3338C47.2758 30.2158 47.0496 30.1273 46.7152 30.0683C46.3808 30.0092 45.9776 29.9699 45.5055 29.9502C45.0334 29.9306 44.5023 29.9207 43.9122 29.9207C43.3221 29.9207 42.7222 29.9207 42.1124 29.9207V32.7827C42.1124 33.4908 42.1124 34.0711 42.1124 34.5235C42.1124 34.9563 42.1124 35.3497 42.1124 35.7037C42.1321 36.0381 42.1517 36.3528 42.1714 36.6479C42.1911 36.9233 42.2206 37.2478 42.2599 37.6215C42.2599 37.9953 42.4566 38.1821 42.85 38.1821H45.358C46.5382 38.1821 47.4627 38.1625 48.1314 38.1231C48.8199 38.0641 49.3411 37.9559 49.6952 37.7986C50.0493 37.6412 50.2951 37.4052 50.4328 37.0904C50.5902 36.7561 50.7377 36.3233 50.8754 35.7922L50.9934 35.6742H51.7606L51.2295 39.4213L50.9934 39.7164C50.8951 39.7164 50.6689 39.7066 50.3148 39.6869C49.9607 39.6869 49.5575 39.6771 49.1051 39.6574C48.6724 39.6377 48.2298 39.618 47.7774 39.5984C47.3446 39.5984 47.0004 39.5984 46.7447 39.5984H40.7847C40.647 39.5984 40.4208 39.6082 40.1061 39.6279C39.7913 39.6475 39.4668 39.6672 39.1324 39.6869C38.798 39.7066 38.4735 39.7262 38.1587 39.7459C37.844 39.7656 37.6178 39.7754 37.4801 39.7754L37.4211 39.6574L37.5096 39.1263L37.6572 39.0083C37.9719 39.0083 38.2669 38.9984 38.5423 38.9788C38.8177 38.9394 39.0439 38.8509 39.2209 38.7132C39.3783 38.5755 39.5258 38.3985 39.6635 38.1821C39.8209 37.9658 39.9192 37.5822 39.9585 37.0314C39.9585 36.8937 39.9585 36.7364 39.9585 36.5594C39.9782 36.3627 39.9881 36.1266 39.9881 35.8512C40.0077 35.5759 40.0176 35.2415 40.0176 34.8481C40.0176 34.4547 40.0176 33.9629 40.0176 33.3728V27.3833C40.0176 26.6948 40.0176 26.1146 40.0176 25.6425C40.0176 25.1704 40.0176 24.7672 40.0176 24.4328C40.0176 24.0984 40.0077 23.8132 39.9881 23.5771C39.9881 23.3411 39.9782 23.1051 39.9585 22.869C39.9192 22.3379 39.8209 21.9642 39.6635 21.7478C39.5258 21.5118 39.3783 21.3249 39.2209 21.1872C39.0439 21.0496 38.8177 20.9709 38.5423 20.9512C38.2669 20.9119 37.9719 20.8922 37.6572 20.8922L37.5096 20.7742L37.4211 20.2431L37.4801 20.1251C37.6178 20.1251 37.844 20.1349 38.1587 20.1546C38.4735 20.1742 38.8078 20.1939 39.1619 20.2136C39.5356 20.2332 39.8897 20.2529 40.2241 20.2726C40.5781 20.2923 40.8634 20.3021 41.0797 20.3021H45.9186Z" fill="#F8F4F1"/>
<path d="M57.6406 39.5984C57.5029 39.5984 57.2767 39.6082 56.962 39.6279C56.6472 39.6475 56.3227 39.6672 55.9883 39.6869C55.6539 39.7066 55.3293 39.7262 55.0146 39.7459C54.6999 39.7656 54.4737 39.7754 54.336 39.7754L54.277 39.6574L54.3655 39.1263L54.513 39.0083C54.7491 39.0083 55.0245 38.9984 55.3392 38.9788C55.6539 38.9394 55.8998 38.8607 56.0768 38.7427C56.2342 38.6247 56.3817 38.4378 56.5194 38.1821C56.6571 37.9264 56.7554 37.5429 56.8144 37.0314C56.8341 36.7364 56.8439 36.2938 56.8439 35.7037C56.8636 35.1136 56.8734 34.2383 56.8734 33.0778V25.7015C56.8734 25.3081 56.8734 24.8655 56.8734 24.3738C56.8734 23.8624 56.8538 23.3608 56.8144 22.869C56.7751 22.3379 56.6767 21.9544 56.5194 21.7183C56.3817 21.4823 56.2342 21.3053 56.0768 21.1872C55.8998 21.0889 55.7129 21.02 55.5162 20.9807C55.3392 20.9217 55.0048 20.8922 54.513 20.8922L54.3655 20.7742L54.277 20.2431L54.336 20.1251C54.4737 20.1251 54.6507 20.1349 54.8671 20.1546C55.1031 20.1742 55.3392 20.1939 55.5752 20.2136C55.8309 20.2332 56.0866 20.2529 56.3424 20.2726C56.5981 20.2923 56.8341 20.3021 57.0505 20.3021H58.1127C58.329 20.3021 58.5749 20.3021 58.8503 20.3021C59.1257 20.3021 59.401 20.3021 59.6764 20.3021C59.9715 20.2824 60.237 20.2726 60.4731 20.2726C60.7091 20.2726 60.896 20.2726 61.0336 20.2726C63.158 20.2726 64.6824 20.6857 65.6069 21.5118C66.5314 22.3183 66.9937 23.3903 66.9937 24.7278C66.9937 25.3179 66.915 25.8392 66.7576 26.2916C66.6199 26.744 66.4232 27.1473 66.1675 27.5013C65.9118 27.8357 65.6266 28.1308 65.3119 28.3865C64.9972 28.6225 64.6628 28.829 64.3087 29.0061C65.7446 29.2618 66.8461 29.8027 67.6133 30.6288C68.4001 31.455 68.7935 32.5958 68.7935 34.0514C68.7935 35.0349 68.6164 35.8807 68.2624 36.5889C67.9083 37.2773 67.4067 37.8477 66.7576 38.3002C66.1282 38.7329 65.3709 39.0574 64.4857 39.2738C63.6006 39.4902 62.6269 39.5984 61.5647 39.5984H57.6406ZM58.9683 29.8027C58.9683 30.3535 58.9683 31.0026 58.9683 31.75C58.9683 32.4975 58.9683 33.2351 58.9683 33.9629C58.988 34.671 58.9978 35.3103 58.9978 35.8807C59.0175 36.4512 59.0371 36.8347 59.0568 37.0314C59.0962 37.5625 59.2043 37.8871 59.3814 38.0051C59.5584 38.1231 59.7944 38.1821 60.0895 38.1821H61.8893C62.3614 38.1821 62.8728 38.1231 63.4236 38.0051C63.994 37.8871 64.5251 37.6805 65.0168 37.3855C65.5086 37.0904 65.9216 36.6774 66.256 36.1463C66.5904 35.6152 66.7576 34.9366 66.7576 34.1104C66.7576 33.4023 66.6298 32.7827 66.3741 32.2516C66.1184 31.7009 65.7643 31.2485 65.3119 30.8944C64.8595 30.5403 64.3284 30.2748 63.7186 30.0978C63.1285 29.9011 62.4794 29.8027 61.7713 29.8027H58.9683ZM60.355 28.711C60.9845 28.711 61.5844 28.6717 62.1548 28.593C62.7253 28.5143 63.2367 28.3078 63.6891 27.9734C64.1218 27.698 64.4759 27.3046 64.7513 26.7932C65.0267 26.2621 65.1644 25.6425 65.1644 24.9344C65.1644 23.8919 64.8693 23.0952 64.2792 22.5445C63.6891 21.9937 62.8531 21.7183 61.7713 21.7183H59.1158C59.0765 22.2888 59.047 22.7707 59.0273 23.1641C59.0273 23.5575 59.0175 23.9017 58.9978 24.1968C58.9781 24.4918 58.9683 24.7574 58.9683 24.9934C58.9683 25.2294 58.9683 25.4556 58.9683 25.672V27.5013C58.9683 27.9537 58.988 28.2684 59.0273 28.4455C59.0667 28.6225 59.2142 28.711 59.4699 28.711H60.355Z" fill="#F8F4F1"/>
<path d="M90.7173 20.2431L90.6288 20.7742L90.5108 20.8922C90.1961 20.8922 89.8912 20.9119 89.5961 20.9512C89.3207 20.9709 89.0945 21.0496 88.9175 21.1872C88.7601 21.3249 88.6126 21.502 88.4749 21.7183C88.3372 21.9347 88.2487 22.3183 88.2094 22.869C88.1897 23.1051 88.17 23.3411 88.1504 23.5771C88.1504 23.8132 88.1405 24.0984 88.1209 24.4328C88.1209 24.7672 88.1209 25.1704 88.1209 25.6425C88.1209 26.1146 88.1209 26.6948 88.1209 27.3833V33.0483C88.1209 34.0121 87.9733 34.9169 87.6783 35.7627C87.4029 36.5889 86.9702 37.3167 86.3801 37.9461C85.79 38.5559 85.0425 39.0378 84.1377 39.3918C83.2525 39.7459 82.21 39.9229 81.0102 39.9229C79.6333 39.9229 78.4629 39.7459 77.4991 39.3918C76.5549 39.0378 75.7878 38.5559 75.1977 37.9461C74.6076 37.3167 74.1748 36.5889 73.8995 35.7627C73.6437 34.9169 73.5159 34.0121 73.5159 33.0483V27.3833C73.5159 26.6948 73.5159 26.1146 73.5159 25.6425C73.5159 25.1704 73.5159 24.7672 73.5159 24.4328C73.5159 24.0984 73.5061 23.8132 73.4864 23.5771C73.4864 23.3411 73.4765 23.1051 73.4569 22.869C73.4175 22.3379 73.3192 21.9642 73.1618 21.7478C73.0241 21.5118 72.8766 21.3249 72.7193 21.1872C72.5422 21.0496 72.316 20.9709 72.0406 20.9512C71.7653 20.9119 71.4702 20.8922 71.1555 20.8922L71.008 20.7742L70.9194 20.2431L70.9785 20.1251C71.1161 20.1251 71.3424 20.1349 71.6571 20.1546C71.9718 20.1742 72.2963 20.1939 72.6307 20.2136C72.9651 20.2332 73.2897 20.2529 73.6044 20.2726C73.9191 20.2923 74.1453 20.3021 74.283 20.3021H74.8436C74.9813 20.3021 75.2075 20.2923 75.5222 20.2726C75.8369 20.2529 76.1615 20.2332 76.4959 20.2136C76.8303 20.1939 77.1548 20.1742 77.4696 20.1546C77.7843 20.1349 78.0105 20.1251 78.1482 20.1251L78.2072 20.2431L78.1187 20.7742L78.0006 20.8922C77.6859 20.8922 77.381 20.9119 77.086 20.9512C76.8106 20.9709 76.5844 21.0496 76.4074 21.1872C76.25 21.3249 76.1025 21.502 75.9648 21.7183C75.8271 21.9347 75.7386 22.3183 75.6993 22.869C75.6796 23.1444 75.6599 23.4001 75.6402 23.6362C75.6402 23.8722 75.6304 24.1476 75.6107 24.4623C75.6107 24.777 75.6107 25.1606 75.6107 25.613C75.6107 26.0654 75.6107 26.6457 75.6107 27.3538V32.2221C75.6107 34.3465 76.0828 35.8709 77.027 36.7954C77.9908 37.7199 79.3185 38.1821 81.0102 38.1821C82.7018 38.1821 84.0295 37.7199 84.9933 36.7954C85.9572 35.8709 86.4391 34.3465 86.4391 32.2221V27.3538C86.4391 26.6457 86.4391 26.0654 86.4391 25.613C86.4391 25.1606 86.4292 24.777 86.4096 24.4623C86.4096 24.1476 86.3997 23.8722 86.3801 23.6362C86.3801 23.4001 86.3702 23.1444 86.3506 22.869C86.3112 22.3183 86.2129 21.9347 86.0555 21.7183C85.9178 21.502 85.7703 21.3249 85.6129 21.1872C85.4556 21.0496 85.2294 20.9709 84.9343 20.9512C84.659 20.9119 84.3639 20.8922 84.0492 20.8922L83.9016 20.7742L83.8131 20.2431L83.8721 20.1251C84.0098 20.1251 84.2164 20.1349 84.4918 20.1546C84.7671 20.1742 85.0523 20.1939 85.3474 20.2136C85.6621 20.2332 85.9572 20.2529 86.2325 20.2726C86.5079 20.2923 86.7145 20.3021 86.8521 20.3021H87.5013C87.639 20.3021 87.8553 20.2923 88.1504 20.2726C88.4454 20.2529 88.7503 20.2332 89.065 20.2136C89.3994 20.1939 89.7141 20.1742 90.0092 20.1546C90.3042 20.1349 90.5206 20.1251 90.6583 20.1251L90.7173 20.2431Z" fill="#F8F4F1"/>
<path d="M11.6419 58.9105C11.1518 58.9105 10.7256 58.756 10.3633 58.447C10.0117 58.138 9.83594 57.6426 9.83594 56.9607C9.83594 56.4599 9.9265 55.9379 10.1076 55.3945C10.2888 54.8511 10.5445 54.345 10.8748 53.8762C11.2157 53.4074 11.6259 53.0238 12.1054 52.7255C12.5848 52.4272 13.1229 52.278 13.7195 52.278C14.2096 52.278 14.5879 52.3739 14.8542 52.5657C15.1313 52.7468 15.3284 52.9919 15.4456 53.3009C15.5628 53.6098 15.6214 53.9401 15.6214 54.2917C15.6214 54.5581 15.5894 54.8298 15.5255 55.1068C15.4722 55.3732 15.3923 55.6395 15.2858 55.9059C15.4669 56.119 15.696 56.2255 15.973 56.2255C16.2713 56.2255 16.5483 56.1137 16.804 55.8899C16.9532 55.7621 17.0864 55.6022 17.2036 55.4105C17.3314 55.208 17.4433 55.0216 17.5392 54.8511C17.5712 54.7872 17.6085 54.7552 17.6511 54.7552C17.7044 54.7552 17.731 54.8298 17.731 54.9789C17.731 55.0748 17.715 55.1867 17.683 55.3146C17.6617 55.4424 17.6085 55.5703 17.5232 55.6981C17.3634 55.9752 17.1983 56.1882 17.0278 56.3374C16.8573 56.4759 16.6655 56.5878 16.4524 56.673C16.2926 56.737 16.1221 56.7689 15.941 56.7689C15.6107 56.7689 15.3124 56.6677 15.046 56.4653C14.9608 56.6464 14.8542 56.8328 14.7264 57.0246C14.4174 57.5467 14.0179 57.9942 13.5278 58.3671C13.0376 58.7294 12.409 58.9105 11.6419 58.9105ZM12.2492 58.3032C12.4943 58.3032 12.7287 58.2233 12.9524 58.0635C13.1868 57.893 13.3999 57.6852 13.5917 57.4402C13.7835 57.1951 13.9486 56.9394 14.0871 56.673C14.2363 56.4067 14.3588 56.1723 14.4547 55.9698C14.0924 55.6608 13.9113 55.272 13.9113 54.8031C13.9113 54.4942 13.9966 54.2544 14.167 54.084C14.3375 53.9135 14.5719 53.8389 14.8702 53.8602C14.8596 53.6152 14.7956 53.4127 14.6784 53.2529C14.5612 53.0931 14.3695 53.0132 14.1031 53.0132C13.858 53.0132 13.6236 53.0878 13.3999 53.2369C13.1868 53.3861 12.9844 53.5779 12.7926 53.8123C12.6115 54.036 12.4463 54.2704 12.2971 54.5155C12.1586 54.7499 12.0414 54.963 11.9455 55.1548C11.807 55.4318 11.6792 55.7674 11.562 56.1616C11.4448 56.5558 11.3862 56.9234 11.3862 57.2644C11.3862 57.5627 11.4448 57.8131 11.562 58.0155C11.6898 58.2073 11.9189 58.3032 12.2492 58.3032Z" fill="#F8F4F1"/>
<path d="M15.2253 62.7461C14.6713 62.7461 14.2771 62.613 14.0427 62.3466C13.8083 62.0802 13.6911 61.7926 13.6911 61.4836C13.6911 61.2918 13.7337 61.1107 13.8189 60.9402C13.8935 60.7697 14 60.6472 14.1386 60.5726C14.2451 60.5193 14.341 60.4927 14.4262 60.4927C14.5434 60.4927 14.65 60.53 14.7459 60.6046C14.8418 60.6792 14.8897 60.7804 14.8897 60.9082C14.8897 60.9402 14.8897 60.9668 14.8897 60.9881C14.8791 61.0201 14.8684 61.0521 14.8577 61.084C14.7938 61.1373 14.7352 61.2172 14.6819 61.3238C14.618 61.4303 14.5754 61.5368 14.5541 61.6434C14.5434 61.6647 14.5381 61.6913 14.5381 61.7233C14.5381 61.7553 14.5381 61.7819 14.5381 61.8032C14.5381 61.9417 14.5807 62.0589 14.666 62.1548C14.7512 62.2507 14.8471 62.2987 14.9536 62.2987C15.2307 62.2987 15.497 62.1974 15.7527 61.995C16.0084 61.7926 16.2428 61.5368 16.4559 61.2279C16.6797 60.9295 16.8768 60.6259 17.0473 60.3169C17.2177 60.0079 17.3562 59.7416 17.4628 59.5178C17.9529 58.5269 18.4164 57.4934 18.8532 56.4173C19.3007 55.3412 19.7216 54.2917 20.1158 53.2689H19.6683C19.4765 53.2689 19.2741 53.3009 19.061 53.3648C18.8585 53.4287 18.6987 53.5672 18.5815 53.7803C18.411 54.1106 18.2246 54.4622 18.0222 54.8351C17.8304 55.208 17.612 55.5809 17.3669 55.9538C17.3243 56.0284 17.287 56.0657 17.255 56.0657C17.2018 56.0657 17.1751 55.9858 17.1751 55.826C17.1751 55.6342 17.2071 55.4744 17.271 55.3465C17.4308 55.0802 17.5853 54.7872 17.7345 54.4675C17.8943 54.1372 18.0381 53.8229 18.166 53.5246C18.2938 53.2263 18.3897 52.9812 18.4537 52.7894C18.5069 52.6403 18.5602 52.539 18.6135 52.4858C18.6774 52.4325 18.8053 52.4165 18.9971 52.4378L20.4035 52.5497C20.5313 52.2088 20.6538 51.8785 20.771 51.5588C20.8989 51.2285 21.0214 50.9142 21.1386 50.6159C21.3837 49.9979 21.666 49.4066 21.9857 48.8419C22.3053 48.2772 22.6995 47.8191 23.1683 47.4675C23.6478 47.1052 24.2285 46.9241 24.9103 46.9241C25.3046 46.9134 25.6402 46.972 25.9172 47.0999C26.1942 47.2277 26.3967 47.4675 26.5245 47.8191C26.5565 47.915 26.5725 48.0268 26.5725 48.1547C26.5725 48.3678 26.5192 48.5862 26.4126 48.8099C26.3061 49.0337 26.1623 49.1882 25.9811 49.2734C25.9279 49.3054 25.8693 49.3267 25.8053 49.3373C25.7414 49.348 25.6828 49.3533 25.6295 49.3533C25.491 49.3533 25.3685 49.316 25.2619 49.2415C25.1554 49.1669 25.1021 49.0603 25.1021 48.9218C25.1021 48.8579 25.1181 48.7886 25.1501 48.7141C25.3419 48.5755 25.475 48.3784 25.5496 48.1227C25.5603 48.0801 25.5656 48.0428 25.5656 48.0108C25.5763 47.9789 25.5816 47.9469 25.5816 47.915C25.5816 47.7019 25.5017 47.5474 25.3419 47.4515C25.2779 47.3982 25.2087 47.3662 25.1341 47.3556C25.0595 47.3343 24.9849 47.3236 24.9103 47.3236C24.5587 47.3236 24.2444 47.4888 23.9674 47.8191C23.6265 48.2133 23.3122 48.6981 23.0245 49.2734C22.7475 49.8488 22.4971 50.4348 22.2733 51.0314C22.0602 51.6281 21.8685 52.1555 21.698 52.6136C22.1348 52.6136 22.5557 52.6083 22.9606 52.5976C23.3761 52.5763 23.733 52.5497 24.0313 52.5177C24.3297 52.4751 24.5108 52.4325 24.5747 52.3899C24.5001 52.5923 24.3723 52.7521 24.1912 52.8693C24.0207 52.9865 23.7597 53.0718 23.4081 53.1251C23.163 53.1677 22.87 53.1996 22.529 53.2209C22.1881 53.2316 21.8365 53.2423 21.4742 53.2529L21.0108 54.5954C20.8616 55.0216 20.6805 55.517 20.4674 56.0817C20.2649 56.6464 20.0305 57.2377 19.7642 57.8557C19.4978 58.463 19.1995 59.0543 18.8692 59.6297C18.5496 60.205 18.198 60.7271 17.8144 61.1959C17.4415 61.6754 17.0366 62.0536 16.5998 62.3306C16.1736 62.6076 15.7154 62.7461 15.2253 62.7461Z" fill="#F8F4F1"/>
<path d="M31.0761 47.3876L34.9757 57.4402C35.1355 57.845 35.3166 58.1167 35.5191 58.2552C35.7215 58.3831 35.908 58.4523 36.0784 58.463V58.7826C35.8653 58.7613 35.6043 58.7507 35.2953 58.7507C34.9863 58.74 34.6774 58.7347 34.3684 58.7347C33.9528 58.7347 33.564 58.74 33.2017 58.7507C32.8394 58.7507 32.5464 58.7613 32.3227 58.7826V58.463C32.8661 58.4417 33.2124 58.3511 33.3615 58.1913C33.5107 58.0208 33.4787 57.6639 33.2656 57.1205L30.293 49.1775L30.5487 48.9698L27.7679 56.1936C27.5974 56.6198 27.4962 56.982 27.4642 57.2803C27.4322 57.568 27.4589 57.7971 27.5441 57.9676C27.64 58.138 27.7945 58.2606 28.0076 58.3351C28.2313 58.4097 28.5084 58.4523 28.8386 58.463V58.7826C28.5403 58.7613 28.226 58.7507 27.8957 58.7507C27.5761 58.74 27.2777 58.7347 27.0007 58.7347C26.7344 58.7347 26.5053 58.74 26.3135 58.7507C26.1324 58.7507 25.9619 58.7613 25.8021 58.7826V58.463C26.0152 58.4097 26.2336 58.2872 26.4573 58.0954C26.6811 57.893 26.8835 57.552 27.0647 57.0726L30.8204 47.3876C30.863 47.3876 30.9056 47.3876 30.9483 47.3876C30.9909 47.3876 31.0335 47.3876 31.0761 47.3876ZM33.0259 54.1799V54.4995H28.2633L28.4231 54.1799H33.0259Z" fill="#F8F4F1"/>
<path d="M44.3147 47.4675C44.2721 47.8723 44.2401 48.2666 44.2188 48.6501C44.2082 49.023 44.2029 49.3107 44.2029 49.5131C44.2029 49.7689 44.2082 50.0086 44.2188 50.2323C44.2295 50.4561 44.2401 50.6532 44.2508 50.8237H43.8832C43.8086 50.0778 43.7074 49.4918 43.5796 49.0657C43.4517 48.6288 43.228 48.3145 42.9083 48.1227C42.5887 47.9309 42.0932 47.835 41.422 47.835H40.4151C40.0529 47.835 39.7759 47.867 39.5841 47.9309C39.403 47.9842 39.2804 48.1067 39.2165 48.2985C39.1526 48.4797 39.1206 48.7673 39.1206 49.1615V57.0886C39.1206 57.4721 39.1579 57.7598 39.2325 57.9516C39.3177 58.1434 39.4775 58.2712 39.7119 58.3351C39.9463 58.3991 40.2873 58.4417 40.7348 58.463V58.7826C40.4578 58.7613 40.1062 58.7507 39.68 58.7507C39.2538 58.74 38.8223 58.7347 38.3854 58.7347C37.9699 58.7347 37.581 58.74 37.2188 58.7507C36.8565 58.7507 36.5635 58.7613 36.3398 58.7826V58.463C36.702 58.4417 36.9737 58.3991 37.1548 58.3351C37.3466 58.2712 37.4745 58.1434 37.5384 57.9516C37.6023 57.7598 37.6343 57.4721 37.6343 57.0886V49.1615C37.6343 48.7673 37.6023 48.4797 37.5384 48.2985C37.4745 48.1067 37.3466 47.9789 37.1548 47.915C36.9737 47.8404 36.702 47.7978 36.3398 47.7871V47.4675C36.734 47.4781 37.1495 47.4888 37.5864 47.4994C38.0232 47.4994 38.4547 47.5048 38.8809 47.5154C39.3071 47.5154 39.7013 47.5154 40.0635 47.5154C40.4365 47.5154 40.7401 47.5154 40.9745 47.5154C41.4646 47.5154 42.0187 47.5154 42.6366 47.5154C43.2652 47.5048 43.8246 47.4888 44.3147 47.4675ZM41.8375 53.0931C41.8375 53.0931 41.8375 53.1464 41.8375 53.2529C41.8375 53.3595 41.8375 53.4127 41.8375 53.4127H38.6412C38.6412 53.4127 38.6412 53.3595 38.6412 53.2529C38.6412 53.1464 38.6412 53.0931 38.6412 53.0931H41.8375ZM42.1412 50.9835C42.0986 51.5908 42.0773 52.0543 42.0773 52.3739C42.0879 52.6935 42.0932 52.9865 42.0932 53.2529C42.0932 53.5193 42.0986 53.8123 42.1092 54.1319C42.1199 54.4515 42.1465 54.915 42.1891 55.5223H41.8216C41.7789 55.1814 41.7257 54.8511 41.6617 54.5315C41.6085 54.2012 41.4806 53.9348 41.2782 53.7324C41.0864 53.5193 40.7561 53.4127 40.2873 53.4127V53.0931C40.6389 53.0931 40.9053 53.0238 41.0864 52.8853C41.2782 52.7362 41.4167 52.5497 41.5019 52.326C41.5872 52.1022 41.6458 51.8731 41.6777 51.6387C41.7097 51.3937 41.7416 51.1753 41.7736 50.9835H42.1412Z" fill="#F8F4F1"/>
<path d="M45.4388 47.4675C45.6626 47.4781 45.9556 47.4888 46.3178 47.4994C46.6801 47.5101 47.037 47.5154 47.3886 47.5154C47.8894 47.5154 48.3688 47.5101 48.827 47.4994C49.2851 47.4888 49.6101 47.4834 49.8019 47.4834C50.6649 47.4834 51.3788 47.606 51.9435 47.851C52.5188 48.0961 52.945 48.4317 53.222 48.8579C53.5097 49.2734 53.6535 49.7422 53.6535 50.2643C53.6535 50.5839 53.5896 50.9249 53.4617 51.2871C53.3339 51.6494 53.1101 51.9903 52.7905 52.31C52.4815 52.6296 52.0553 52.896 51.5119 53.1091C50.9686 53.3115 50.2813 53.4127 49.4503 53.4127H47.916V53.0931H49.2905C50.0469 53.0931 50.6223 52.9759 51.0165 52.7415C51.4214 52.4964 51.6931 52.1768 51.8316 51.7826C51.9807 51.3777 52.0553 50.9302 52.0553 50.4401C52.0553 49.5984 51.8529 48.9485 51.448 48.4903C51.0538 48.0215 50.3719 47.7871 49.4023 47.7871C48.9122 47.7871 48.5926 47.8777 48.4434 48.0588C48.2943 48.2399 48.2197 48.6075 48.2197 49.1615V57.0886C48.2197 57.4721 48.2516 57.7598 48.3156 57.9516C48.3795 58.1434 48.502 58.2712 48.6831 58.3351C48.8749 58.3991 49.152 58.4417 49.5142 58.463V58.7826C49.2691 58.7613 48.9602 58.7507 48.5873 58.7507C48.225 58.74 47.8574 58.7347 47.4845 58.7347C47.069 58.7347 46.6801 58.74 46.3178 58.7507C45.9556 58.7507 45.6626 58.7613 45.4388 58.7826V58.463C45.8011 58.4417 46.0728 58.3991 46.2539 58.3351C46.4457 58.2712 46.5735 58.1434 46.6375 57.9516C46.7014 57.7598 46.7334 57.4721 46.7334 57.0886V49.1615C46.7334 48.7673 46.7014 48.4797 46.6375 48.2985C46.5735 48.1067 46.4457 47.9789 46.2539 47.915C46.0728 47.8404 45.8011 47.7978 45.4388 47.7871V47.4675ZM47.9799 53.141C48.5553 53.1623 49.0081 53.189 49.3384 53.2209C49.6687 53.2423 49.9351 53.2636 50.1375 53.2849C50.3506 53.3062 50.553 53.3328 50.7448 53.3648C51.4587 53.482 51.9701 53.7004 52.2791 54.02C52.5987 54.329 52.8331 54.8138 52.9823 55.4744L53.3818 57.1045C53.4884 57.5733 53.5949 57.9143 53.7015 58.1274C53.8187 58.3298 53.9945 58.4257 54.2289 58.4151C54.41 58.4044 54.5592 58.3458 54.6763 58.2393C54.8042 58.1327 54.9374 57.9889 55.0759 57.8077L55.3156 57.9835C55.0919 58.3138 54.8575 58.5695 54.6124 58.7507C54.378 58.9211 54.0424 59.0064 53.6056 59.0064C53.2113 59.0064 52.8651 58.8892 52.5667 58.6548C52.2684 58.4204 52.0447 57.9622 51.8955 57.2803L51.5439 55.6822C51.448 55.224 51.3361 54.8298 51.2083 54.4995C51.0911 54.1585 50.9206 53.8922 50.6969 53.7004C50.4838 53.5086 50.1641 53.4127 49.738 53.4127H48.0119L47.9799 53.141Z" fill="#F8F4F1"/>
<path d="M59.8775 47.4675V47.7871C59.5152 47.7978 59.2382 47.8404 59.0464 47.915C58.8653 47.9789 58.7427 48.1067 58.6788 48.2985C58.6149 48.4797 58.5829 48.7673 58.5829 49.1615V57.0886C58.5829 57.4721 58.6149 57.7598 58.6788 57.9516C58.7427 58.1434 58.8653 58.2712 59.0464 58.3351C59.2382 58.3991 59.5152 58.4417 59.8775 58.463V58.7826C59.6324 58.7613 59.3234 58.7507 58.9505 58.7507C58.5882 58.74 58.2207 58.7347 57.8478 58.7347C57.4322 58.7347 57.0433 58.74 56.6811 58.7507C56.3188 58.7507 56.0258 58.7613 55.8021 58.7826V58.463C56.1643 58.4417 56.436 58.3991 56.6172 58.3351C56.8089 58.2712 56.9368 58.1434 57.0007 57.9516C57.0646 57.7598 57.0966 57.4721 57.0966 57.0886V49.1615C57.0966 48.7673 57.0646 48.4797 57.0007 48.2985C56.9368 48.1067 56.8089 47.9789 56.6172 47.915C56.436 47.8404 56.1643 47.7978 55.8021 47.7871V47.4675C56.0258 47.4781 56.3188 47.4888 56.6811 47.4994C57.0433 47.5101 57.4322 47.5154 57.8478 47.5154C58.2207 47.5154 58.5882 47.5101 58.9505 47.4994C59.3234 47.4888 59.6324 47.4781 59.8775 47.4675Z" fill="#F8F4F1"/>
<path d="M66.351 47.2437C67.0542 47.2437 67.6295 47.3503 68.077 47.5634C68.5352 47.7658 68.9401 48.0055 69.2917 48.2825C69.5047 48.4424 69.6646 48.4637 69.7711 48.3465C69.8883 48.2186 69.9682 47.9256 70.0108 47.4675H70.3784C70.3571 47.8617 70.3411 48.3411 70.3305 48.9058C70.3198 49.4705 70.3145 50.2163 70.3145 51.1433H69.9469C69.8723 50.6852 69.8031 50.3229 69.7392 50.0565C69.6752 49.7795 69.5953 49.5451 69.4994 49.3533C69.4142 49.1615 69.297 48.9698 69.1478 48.778C68.8175 48.3411 68.402 48.0268 67.9012 47.835C67.4005 47.6326 66.8731 47.5314 66.319 47.5314C65.797 47.5314 65.3228 47.6646 64.8966 47.9309C64.4811 48.1866 64.1189 48.5596 63.8099 49.0497C63.5115 49.5398 63.2771 50.1311 63.1067 50.8237C62.9468 51.5162 62.8669 52.294 62.8669 53.157C62.8669 54.052 62.9575 54.8458 63.1386 55.5383C63.3198 56.2202 63.5701 56.7956 63.8898 57.2644C64.2201 57.7332 64.6036 58.0901 65.0405 58.3351C65.488 58.5695 65.9674 58.6867 66.4788 58.6867C66.9583 58.6867 67.4591 58.5909 67.9811 58.3991C68.5032 58.2073 68.9134 57.8983 69.2117 57.4721C69.4461 57.1631 69.606 56.8275 69.6912 56.4653C69.7871 56.103 69.8723 55.5969 69.9469 54.947H70.3145C70.3145 55.9166 70.3198 56.6997 70.3305 57.2963C70.3411 57.8823 70.3571 58.3778 70.3784 58.7826H70.0108C69.9682 58.3245 69.8936 58.0368 69.7871 57.9196C69.6912 57.8024 69.5261 57.8184 69.2917 57.9676C68.8974 58.2446 68.4766 58.4896 68.0291 58.7027C67.5923 58.9052 67.0276 59.0064 66.335 59.0064C65.3228 59.0064 64.4332 58.7773 63.666 58.3192C62.9096 57.861 62.3182 57.2004 61.892 56.3374C61.4765 55.4744 61.2688 54.4356 61.2688 53.2209C61.2688 52.0276 61.4872 50.9835 61.924 50.0885C62.3608 49.1935 62.9575 48.4956 63.714 47.9949C64.4811 47.4941 65.3601 47.2437 66.351 47.2437Z" fill="#F8F4F1"/>
<path d="M76.587 47.3876L80.4866 57.4402C80.6464 57.845 80.8275 58.1167 81.03 58.2552C81.2324 58.3831 81.4189 58.4523 81.5893 58.463V58.7826C81.3763 58.7613 81.1152 58.7507 80.8062 58.7507C80.4972 58.74 80.1883 58.7347 79.8793 58.7347C79.4638 58.7347 79.0749 58.74 78.7126 58.7507C78.3503 58.7507 78.0573 58.7613 77.8336 58.7826V58.463C78.377 58.4417 78.7233 58.3511 78.8724 58.1913C79.0216 58.0208 78.9896 57.6639 78.7765 57.1205L75.8039 49.1775L76.0596 48.9698L73.2788 56.1936C73.1083 56.6198 73.0071 56.982 72.9751 57.2803C72.9431 57.568 72.9698 57.7971 73.055 57.9676C73.1509 58.138 73.3054 58.2606 73.5185 58.3351C73.7422 58.4097 74.0193 58.4523 74.3495 58.463V58.7826C74.0512 58.7613 73.7369 58.7507 73.4066 58.7507C73.087 58.74 72.7887 58.7347 72.5116 58.7347C72.2453 58.7347 72.0162 58.74 71.8244 58.7507C71.6433 58.7507 71.4728 58.7613 71.313 58.7826V58.463C71.5261 58.4097 71.7445 58.2872 71.9682 58.0954C72.192 57.893 72.3944 57.552 72.5756 57.0726L76.3313 47.3876C76.3739 47.3876 76.4165 47.3876 76.4592 47.3876C76.5018 47.3876 76.5444 47.3876 76.587 47.3876ZM78.5368 54.1799V54.4995H73.7742L73.934 54.1799H78.5368Z" fill="#F8F4F1"/>
</svg>
