<svg width="90" height="86" viewBox="0 0 90 86" fill="none" xmlns="http://www.w3.org/2000/svg">
<path fill-rule="evenodd" clip-rule="evenodd" d="M45 0C40.7568 0 37.3171 3.4499 37.3171 7.7056C37.3171 10.7794 39.1116 13.4329 41.7073 14.6696V22.1737C26.9643 23.5936 14.9696 34.4496 11.7982 48.6487C5.0953 49.822 0 55.6869 0 62.7454C0 69.6456 4.86935 75.4051 11.3497 76.7561C12.6815 81.9911 17.4144 85.8621 23.0488 85.8621H66.9512C72.5856 85.8621 77.3185 81.9911 78.6503 76.7561C85.1307 75.4051 90 69.6456 90 62.7454C90 55.6869 84.9047 49.822 78.2018 48.6487C75.0304 34.4496 63.0357 23.5936 48.2927 22.1737V14.6696C50.8884 13.4329 52.6829 10.7794 52.6829 7.7056C52.6829 3.4499 49.2432 0 45 0ZM79.0225 55.7804C79.0238 55.9003 79.0244 56.0204 79.0244 56.1406V69.7094C81.6201 68.4727 83.4146 65.8192 83.4146 62.7454C83.4146 59.6708 81.6192 57.0168 79.0225 55.7804ZM6.5854 62.7454C6.5854 59.6708 8.3808 57.0168 10.9775 55.7804C10.9762 55.9003 10.9756 56.0204 10.9756 56.1406V69.7094C8.3799 68.4727 6.5854 65.8192 6.5854 62.7454ZM17.561 56.1406C17.561 40.9418 29.8458 28.6207 45 28.6207C60.1542 28.6207 72.439 40.9418 72.439 56.1406V73.7533C72.439 76.7931 69.9821 79.2573 66.9512 79.2573H23.0488C20.018 79.2573 17.561 76.7931 17.561 73.7533V56.1406Z" fill="#F8F4F1"/>
<path fill-rule="evenodd" clip-rule="evenodd" d="M34.0226 50.6365C32.2041 50.6365 30.7299 52.115 30.7299 53.9389C30.7299 55.7627 32.2041 57.2413 34.0226 57.2413C35.8411 57.2413 37.3153 55.7627 37.3153 53.9389C37.3153 52.115 35.8411 50.6365 34.0226 50.6365ZM24.1445 53.9389C24.1445 48.4673 28.5671 44.0317 34.0226 44.0317C39.4781 44.0317 43.9006 48.4673 43.9006 53.9389C43.9006 59.4105 39.4781 63.8461 34.0226 63.8461C28.5671 63.8461 24.1445 59.4105 24.1445 53.9389Z" fill="#F8F4F1"/>
<path fill-rule="evenodd" clip-rule="evenodd" d="M55.9757 50.6365C54.1572 50.6365 52.683 52.115 52.683 53.9389C52.683 55.7627 54.1572 57.2413 55.9757 57.2413C57.7942 57.2413 59.2684 55.7627 59.2684 53.9389C59.2684 52.115 57.7942 50.6365 55.9757 50.6365ZM46.0977 53.9389C46.0977 48.4673 50.5202 44.0317 55.9757 44.0317C61.4312 44.0317 65.8538 48.4673 65.8538 53.9389C65.8538 59.4105 61.4312 63.8461 55.9757 63.8461C50.5202 63.8461 46.0977 59.4105 46.0977 53.9389Z" fill="#F8F4F1"/>
</svg>
