<svg width="45" height="46" viewBox="0 0 45 46" fill="none" xmlns="http://www.w3.org/2000/svg">
<path d="M41.1099 3.01761C40.9631 2.87086 40.9142 2.62627 41.0121 2.4306L40.3761 1.10982C40.2783 1.10982 40.2294 1.0609 40.1315 0.963066C39.9359 0.767396 40.0337 0.473891 40.2783 0.229302C40.5229 -0.015286 40.8653 -0.0642048 41.0121 0.0825482C41.1588 0.229301 41.1588 0.424973 41.0121 0.669561L41.7947 2.13709L41.8437 2.18601C42.0393 2.38168 41.9904 2.7241 41.7947 2.91977C41.5991 3.21328 41.3056 3.21328 41.1099 3.01761ZM41.3545 2.38168C41.4034 2.4306 41.4034 2.52843 41.3545 2.57735C41.3056 2.62627 41.2566 2.77302 41.3056 2.82194C41.3545 2.87086 41.4523 2.87086 41.5501 2.77302C41.648 2.67519 41.648 2.57735 41.5991 2.52843C41.5501 2.47951 41.5012 2.4306 41.5012 2.4306L40.7185 0.865231C40.6696 0.816313 40.6696 0.71848 40.7185 0.669562C40.8164 0.571727 40.8164 0.47389 40.8164 0.47389C40.8164 0.47389 40.7185 0.473891 40.5718 0.620644C40.425 0.767397 40.425 0.865231 40.425 0.865231C40.425 0.865231 40.425 0.865232 40.5229 0.865232C40.6207 0.865232 40.6696 0.91415 40.7185 0.963068L41.3545 2.38168Z" fill="#F8F4F1"/>
<path d="M40.0418 3.89716C39.895 3.75041 39.8461 3.50582 39.9439 3.31015L39.308 1.98937C39.2102 1.98937 39.1612 1.94045 39.0634 1.84262C38.8677 1.64695 38.9167 1.30453 39.1612 1.05994C39.4058 0.815348 39.7483 0.766431 39.9439 0.962101C40.0907 1.10885 40.0907 1.30452 39.9439 1.54911L40.7266 3.01664L40.7755 3.06556C40.9712 3.26123 40.9223 3.60365 40.7266 3.79932C40.5799 4.04391 40.2374 4.09283 40.0418 3.89716ZM40.3353 3.21231C40.3842 3.26123 40.3842 3.35906 40.3353 3.40798C40.2864 3.4569 40.2864 3.55474 40.3353 3.60365C40.3842 3.65257 40.482 3.65257 40.5799 3.55474C40.6777 3.4569 40.6777 3.35907 40.6288 3.31015C40.5799 3.26123 40.5309 3.21231 40.5309 3.21231L39.6504 1.74478C39.6015 1.69587 39.6015 1.59803 39.6504 1.54911C39.7483 1.45128 39.7483 1.35344 39.7483 1.35344C39.7483 1.35344 39.6015 1.30453 39.4548 1.45128C39.308 1.59803 39.308 1.69587 39.3569 1.74478C39.3569 1.74478 39.3569 1.74478 39.4548 1.74478C39.5526 1.74478 39.6015 1.7937 39.6504 1.84262L40.3353 3.21231Z" fill="#F8F4F1"/>
<path d="M38.7468 4.67889C38.6 4.53214 38.6 4.23863 38.7468 4.09188L38.3065 2.7711C38.2087 2.7711 38.1598 2.72218 38.1109 2.67327C37.9152 2.4776 38.013 2.18409 38.3065 1.98842C38.4044 1.89058 38.5511 1.84167 38.6979 1.79275C38.8446 1.74383 38.9914 1.79275 39.0892 1.89058C39.236 2.03734 39.187 2.28192 39.0403 2.42868L39.6273 3.89621L39.6762 3.94513C39.7741 4.04296 39.7741 4.14079 39.7741 4.23863C39.7251 4.38538 39.6762 4.53214 39.5784 4.62997C39.4805 4.72781 39.3338 4.77673 39.1381 4.77673C38.8935 4.82564 38.7957 4.72781 38.7468 4.67889ZM39.0892 4.04296C39.1381 4.09188 39.1381 4.18971 39.0892 4.23863C38.9914 4.33647 38.9914 4.4343 38.9914 4.4343C39.0403 4.48322 39.0403 4.48322 39.0403 4.48322C39.1381 4.48322 39.1381 4.48322 39.187 4.4343C39.236 4.38538 39.2849 4.33647 39.2849 4.23863C39.2849 4.23863 39.2849 4.23863 39.236 4.18971C39.187 4.1408 39.1381 4.09188 39.1381 4.09188L38.5511 2.52651C38.5022 2.47759 38.5022 2.37976 38.5511 2.33084C38.649 2.23301 38.649 2.13517 38.649 2.13517C38.649 2.13517 38.5511 2.13517 38.3554 2.23301C38.2576 2.33084 38.2087 2.4776 38.2087 2.4776C38.2087 2.4776 38.2087 2.4776 38.2576 2.42868C38.3554 2.42868 38.4044 2.4776 38.4533 2.52651C38.4533 2.52651 38.4533 2.52651 38.5022 2.57543L39.0892 4.04296Z" fill="#F8F4F1"/>
<path d="M37.4499 5.50946C37.401 5.46054 37.401 5.46054 37.4499 5.50946C37.3032 5.3627 37.3032 5.0692 37.4499 4.92245L37.0097 3.60167C36.9118 3.60167 36.8629 3.55275 36.814 3.50383C36.6183 3.30816 36.7161 3.01466 37.0097 2.81899C37.1075 2.72115 37.2542 2.67223 37.401 2.62331C37.5477 2.5744 37.6945 2.62331 37.7923 2.72115C37.9391 2.8679 37.8902 3.11249 37.7434 3.25924L38.3304 4.72677L38.3793 4.77569C38.4772 4.87353 38.4772 4.97136 38.4772 5.0692C38.4283 5.21595 38.3793 5.3627 38.2815 5.46054C38.1837 5.55837 38.0369 5.60729 37.8413 5.60729C37.5477 5.60729 37.4988 5.55837 37.4499 5.50946ZM37.7434 4.82461C37.7923 4.87353 37.7923 4.97136 37.7434 5.02028C37.6945 5.0692 37.6456 5.21595 37.6456 5.21595C37.6945 5.26487 37.6945 5.26487 37.6945 5.26487C37.7923 5.26487 37.7923 5.26487 37.8413 5.21595C37.8902 5.16703 37.9391 5.11812 37.9391 5.02028C37.9391 5.02028 37.9391 5.02028 37.8902 4.97136C37.8413 4.92245 37.7923 4.87353 37.7923 4.87353L37.2053 3.30816C37.1564 3.25924 37.1564 3.16141 37.2053 3.11249C37.3032 3.01466 37.3032 2.91682 37.3032 2.91682C37.3032 2.91682 37.2053 2.91682 37.0097 3.01466C36.9118 3.11249 36.8629 3.25924 36.8629 3.25924C36.8629 3.25924 36.8629 3.25924 36.9118 3.21033C37.0097 3.21033 37.0586 3.25925 37.1075 3.30816L37.7434 4.82461Z" fill="#F8F4F1"/>
<path d="M36.0534 6.19598C35.9067 6.04923 35.9067 5.75572 36.0534 5.60897L35.6132 4.28819C35.5153 4.28819 35.4664 4.23927 35.4175 4.19036C35.2218 3.99468 35.3197 3.70118 35.6132 3.50551C35.711 3.40767 35.8578 3.35876 36.0045 3.30984C36.1513 3.26092 36.298 3.30984 36.3959 3.40767C36.5426 3.55443 36.4937 3.79901 36.3469 3.94577L36.9339 5.4133L36.9829 5.46222C37.0807 5.56005 37.0807 5.65789 37.0807 5.75572C37.0318 5.90247 36.9829 6.04923 36.885 6.14706C36.7872 6.2449 36.6404 6.29381 36.4448 6.29381C36.2491 6.29381 36.1023 6.2449 36.0534 6.19598ZM36.3959 5.56005C36.4448 5.60897 36.4448 5.7068 36.3959 5.75572C36.298 5.85356 36.298 5.95139 36.298 5.95139C36.3469 6.00031 36.3469 6.00031 36.3469 6.00031C36.4448 6.00031 36.4448 6.00031 36.4937 5.95139C36.5426 5.90247 36.5915 5.85356 36.5915 5.75572C36.5915 5.75572 36.5915 5.75572 36.5426 5.7068C36.4937 5.65789 36.4448 5.60897 36.4448 5.60897L35.8578 4.0436C35.8088 3.99469 35.8088 3.89685 35.8578 3.84793C35.9556 3.7501 35.9556 3.65226 35.9556 3.65226C35.9556 3.65226 35.8578 3.65226 35.6621 3.7501C35.5643 3.84793 35.5153 3.99469 35.5153 3.99469C35.5153 3.99469 35.5153 3.99469 35.5643 3.94577C35.6621 3.94577 35.711 3.99468 35.7599 4.0436C35.7599 4.0436 35.7599 4.0436 35.8088 4.09252L36.3959 5.56005Z" fill="#F8F4F1"/>
<path d="M35.0886 6.88098C34.9419 6.73423 34.9419 6.53856 35.0397 6.34289L34.306 5.21778C34.2081 5.21778 34.1103 5.21778 34.0614 5.16887C33.9635 5.07103 33.9146 4.92428 33.9635 4.77752C33.9635 4.67969 34.0125 4.53294 34.1592 4.38618C34.306 4.23943 34.4527 4.09268 34.6484 4.09268C34.7462 4.09268 34.8441 4.09268 34.893 4.14159C35.0397 4.28835 35.0397 4.48402 34.9419 4.67969L35.7735 6.00047L35.8224 6.04938C36.0181 6.24505 36.0181 6.53856 35.8713 6.78315C35.7735 6.88098 35.6267 7.02774 35.48 6.97882C35.3332 7.02774 35.2354 7.02774 35.0886 6.88098C35.1376 6.9299 35.1376 6.9299 35.0886 6.88098ZM35.3332 6.24505C35.3821 6.29397 35.3821 6.39181 35.3332 6.44073C35.2843 6.48964 35.2843 6.58748 35.3332 6.6364C35.3332 6.6364 35.3821 6.68531 35.4311 6.63639C35.48 6.58748 35.5778 6.58748 35.6267 6.53856C35.7246 6.44073 35.7246 6.34289 35.6757 6.29397C35.6267 6.24505 35.5289 6.24505 35.5778 6.19614L34.6973 4.82644C34.6484 4.77752 34.6484 4.67969 34.6973 4.63077C34.7951 4.53294 34.7951 4.4351 34.7462 4.38618C34.7462 4.38618 34.5995 4.4351 34.5016 4.53294C34.4038 4.63077 34.3549 4.77752 34.4038 4.82644C34.4038 4.82644 34.4038 4.82644 34.4527 4.77752C34.5016 4.72861 34.6484 4.77752 34.6484 4.87536L35.3332 6.24505Z" fill="#F8F4F1"/>
<path d="M35.579 9.2286L33.9647 7.61431L33.769 7.80999L35.3833 9.42427L35.579 9.2286Z" fill="#F8F4F1"/>
<path d="M30.7454 14.8559L28.9355 13.0459L28.7398 13.2416L30.5498 15.0516L30.7454 14.8559Z" fill="#F8F4F1"/>
<path d="M24.1933 22.2882L22.041 20.1358L21.8453 20.3315L23.9977 22.4838L24.1933 22.2882Z" fill="#F8F4F1"/>
<path d="M34.3478 7.71177C34.3748 7.73879 34.4186 7.73879 34.4456 7.71177C34.4726 7.68476 34.4726 7.64095 34.4456 7.61394C34.4186 7.58692 34.3748 7.58692 34.3478 7.61394C34.3208 7.64095 34.3208 7.68475 34.3478 7.71177Z" fill="#F8F4F1"/>
<path d="M34.5995 7.95801C34.6265 7.98502 34.6703 7.98502 34.6973 7.95801C34.7243 7.93099 34.7243 7.88719 34.6973 7.86017C34.6703 7.83315 34.6265 7.83316 34.5995 7.86017C34.5724 7.88719 34.5724 7.93099 34.5995 7.95801Z" fill="#F8F4F1"/>
<path d="M34.7811 8.15217C34.8081 8.17919 34.8519 8.17919 34.8789 8.15217C34.906 8.12515 34.906 8.08135 34.8789 8.05434C34.8519 8.02732 34.8081 8.02732 34.7811 8.05434C34.7541 8.08135 34.7541 8.12515 34.7811 8.15217Z" fill="#F8F4F1"/>
<path d="M35.0311 8.39827C35.0581 8.42528 35.1019 8.42528 35.1289 8.39826C35.156 8.37125 35.156 8.32745 35.1289 8.30043C35.1019 8.27341 35.0581 8.27341 35.0311 8.30043C35.0041 8.32745 35.0041 8.37125 35.0311 8.39827Z" fill="#F8F4F1"/>
<path d="M35.2812 8.64097C35.3082 8.66799 35.352 8.66799 35.379 8.64097C35.406 8.61396 35.406 8.57015 35.379 8.54314C35.352 8.51612 35.3082 8.51612 35.2812 8.54314C35.2542 8.57016 35.2542 8.61396 35.2812 8.64097Z" fill="#F8F4F1"/>
<path d="M35.4627 8.83821C35.4898 8.86523 35.5336 8.86523 35.5606 8.83821C35.5876 8.81119 35.5876 8.76739 35.5606 8.74037C35.5336 8.71336 35.4898 8.71336 35.4627 8.74037C35.4357 8.76739 35.4357 8.81119 35.4627 8.83821Z" fill="#F8F4F1"/>
<path d="M23.8866 32.27C23.6909 32.4656 22.2723 34.0799 20.5602 34.031C19.8754 34.031 19.1905 34.3245 18.6035 34.9115C17.5762 35.9388 16.9892 37.6998 17.0381 38.6293C17.0871 39.95 16.1576 41.3686 15.326 42.4938C14.6901 43.3254 13.8585 43.8634 11.5594 44.8907C9.50482 45.7712 7.40136 43.7656 7.35244 43.7167C7.30353 43.6678 4.02604 40.4881 1.77583 38.1401C-0.376546 35.8899 0.601809 33.444 0.650726 33.2972C0.699645 33.2483 1.82475 29.3838 4.12388 28.9436C6.56977 28.4544 10.1897 25.6172 10.5321 25.2747C11.168 24.9323 12.1464 22.4864 12.4888 21.3613C13.3204 19.5514 14.2498 18.5241 15.3749 18.1817C16.2555 17.8882 16.9403 18.2795 17.0871 18.3284C17.2338 18.573 17.2827 18.7198 17.2827 18.7198C17.2338 18.7687 17.0871 18.8176 17.0381 18.8665V19.0622C16.9892 19.1111 15.2282 20.0895 15.1304 22.2418C15.0325 23.8072 16.3044 24.5899 17.1849 24.8834L16.6468 25.4215C16.5979 25.1769 16.5001 24.7856 16.2065 24.5899C16.0109 24.4921 15.7174 24.3942 15.326 24.5899C14.2498 25.0791 14.0053 26.302 13.9563 26.5466C13.8096 26.7912 12.6845 28.8946 11.3637 28.8457C9.79833 28.7479 8.42864 29.7262 8.23296 29.9219C7.30353 30.3622 5.64033 31.634 6.22734 33.3951L6.27626 33.444L7.40137 34.7648L6.86327 35.3029L10.5321 39.2652L11.8529 38.1401C12.2442 38.5314 13.3204 39.8033 12.9291 41.5643C12.7823 42.2981 12.8312 42.7383 13.1247 43.0318C13.1736 43.0808 13.1736 43.0808 13.2226 43.1297C13.8096 43.521 14.6901 42.934 14.7879 42.8362L14.8368 42.7873C14.9347 42.6894 16.7936 40.6349 16.7446 39.1184C16.6468 37.8466 17.4295 35.9877 17.4295 35.9877C17.4295 35.9877 18.31 34.1288 20.5113 33.4929C23.0061 32.7591 23.5442 31.5362 23.5442 31.5362C23.642 31.3405 23.6909 30.9981 23.5442 30.7535C23.2996 30.5089 22.8593 30.5578 22.1256 30.9003C20.707 31.5362 19.3862 30.9981 19.1416 30.9492C18.8481 30.6557 18.2122 29.9219 18.2611 29.3838V29.286L18.6524 28.8946C18.6035 29.2371 18.5546 29.5795 18.7013 29.9219C18.8481 30.2643 19.0438 30.46 19.3862 30.6068C20.6091 31.1449 22.0767 30.6557 22.1256 30.6068C22.1256 30.6068 23.2996 29.9219 23.8377 30.46C24.3269 30.8513 24.0334 31.9275 23.8866 32.27Z" fill="#F8F4F1"/>
<path d="M11.6601 37.9446C11.6112 37.8957 11.5623 37.8468 11.5623 37.7489C11.5623 37.6511 11.6112 37.6022 11.6601 37.5533L12.0025 37.9935L11.8558 38.1403C11.709 37.9935 11.6601 37.9446 11.6601 37.9446Z" fill="#F8F4F1"/>
<path d="M14.9414 33.4924C14.8436 33.5902 14.7947 33.5413 14.7458 33.4924C14.6969 33.4435 14.6969 33.3456 14.7458 33.2967L14.7947 33.2478C14.8436 33.1989 14.9414 33.1989 14.9904 33.2478C14.9414 33.3945 14.9414 33.4924 14.9414 33.4924Z" fill="#F8F4F1"/>
<path d="M17.0488 31.1939C16.9999 31.2429 16.902 31.2429 16.8531 31.1939C16.8042 31.145 16.8531 31.0961 16.902 31.0472L16.9509 30.9983C16.9999 30.9494 17.0977 30.9494 17.0977 30.9494C17.0977 31.0472 17.1466 31.0961 17.0488 31.1939Z" fill="#F8F4F1"/>
<path d="M14.6862 33.0523L14.4416 33.2969L14.1481 33.0034L14.3927 32.7588L14.6862 33.0523Z" fill="#F8F4F1"/>
<path d="M16.9871 30.7528L16.7425 30.9974L16.3023 30.5571L16.5469 30.3125L16.9871 30.7528Z" fill="#F8F4F1"/>
<path d="M18.8019 28.2579L19.0954 27.9644L19.34 28.209L18.6552 28.8938C18.6552 28.6003 18.753 28.4046 18.8019 28.2579Z" fill="#F8F4F1"/>
<path d="M17.7793 29.6757C17.7304 29.5289 17.7304 29.4311 17.7304 29.2354L17.975 29.48L17.7793 29.6757Z" fill="#F8F4F1"/>
<path d="M17.7676 29.6751L17.5231 29.4305L17.7676 29.1859C17.7187 29.4305 17.7676 29.5772 17.7676 29.6751Z" fill="#F8F4F1"/>
<path d="M12.1328 35.2857C12.0947 35.2476 12.0947 35.2476 12.1328 35.2857C12.1328 35.2095 12.1328 35.2095 12.1328 35.2857C12.1709 35.2476 12.1328 35.2095 12.1328 35.2857Z" fill="#F8F4F1"/>
<path d="M12.2001 35.1555L12.7382 34.5196L12.7871 34.5685L12.2001 35.1555C12.249 35.2044 12.249 35.2044 12.2001 35.1555Z" fill="#F8F4F1"/>
<path d="M12.103 35.3519L12.0541 35.303C12.0541 35.303 12.0541 35.303 12.103 35.3519C12.103 35.2541 12.0541 35.303 12.103 35.3519C12.1519 35.303 12.1519 35.303 12.1519 35.303L12.2498 35.2052C12.2987 35.2541 12.2498 35.303 12.2498 35.303L12.2008 35.3519C12.1519 35.4008 12.103 35.3519 12.103 35.3519Z" fill="#F8F4F1"/>
<path d="M12.1407 35.2048L12.2385 35.1069C12.2385 35.1069 12.2385 35.1069 12.2874 35.1559L12.1896 35.2537C12.1896 35.2537 12.1896 35.2537 12.1407 35.3026V35.2048C12.1407 35.3026 12.0917 35.2537 12.1407 35.2048C12.1896 35.2537 12.1407 35.3026 12.1407 35.2048Z" fill="#F8F4F1"/>
<path d="M12.0349 35.2048C12.0838 35.1559 12.1328 35.107 12.1817 35.1559L12.0349 35.2048Z" fill="#F8F4F1"/>
<path d="M12.0938 35.2541C12.0449 35.303 12.0449 35.303 12.0938 35.2541C12.0449 35.2052 12.0449 35.2052 12.0938 35.1562L12.1428 35.2052L12.0938 35.2541Z" fill="#F8F4F1"/>
<path d="M12.9782 34.2735L14.1034 32.9528L14.1523 33.0017L12.9782 34.2735Z" fill="#F8F4F1"/>
<path d="M12.7436 34.5205L12.9882 34.2759C12.9882 34.2759 12.9882 34.2759 13.0371 34.3248L12.7436 34.5205C12.7926 34.5694 12.7926 34.5694 12.7436 34.5205Z" fill="#F8F4F1"/>
<path d="M12.7307 34.5183L12.3883 34.1758L12.6329 33.9313L12.9753 34.2737L12.7307 34.5183Z" fill="#F8F4F1"/>
<path d="M14.4043 32.7589L14.1597 33.0035L14.1108 32.9546L14.3554 32.71L14.4043 32.7589Z" fill="#F8F4F1"/>
<path d="M16.3084 30.5584L14.4007 32.7597L14.3517 32.7108L16.2595 30.5095L16.3084 30.5584Z" fill="#F8F4F1"/>
<path d="M14.3404 32.7106L14.0958 32.9552L13.7534 32.6128L13.998 32.3682L14.3404 32.7106Z" fill="#F8F4F1"/>
<path d="M18.8085 28.2564C18.7596 28.4032 18.6618 28.5988 18.6618 28.8923L18.2704 29.2837C18.2704 29.1858 18.1726 29.088 18.0748 29.088H17.9769L18.8085 28.2564Z" fill="#F8F4F1"/>
<path d="M18.0219 29.0417C18.1198 29.0417 18.2176 29.1395 18.2176 29.2374L18.0219 29.4331L17.7774 29.1885L17.9241 29.0417C18.0219 29.0417 18.0219 29.0417 18.0219 29.0417Z" fill="#F8F4F1"/>
<path d="M17.9121 29.0416L17.7653 29.1883C17.8142 29.1394 17.8631 29.0905 17.9121 29.0416Z" fill="#F8F4F1"/>
<path d="M17.7167 29.2358L17.4721 29.4804L17.3742 29.3826L17.6188 29.138L17.7167 29.2358Z" fill="#F8F4F1"/>
<path d="M16.5586 30.3121L16.314 30.5567L16.2651 30.5078L16.5097 30.2632L16.5586 30.3121Z" fill="#F8F4F1"/>
<path d="M17.4219 29.3336L16.5414 30.312L16.4925 30.2631L17.373 29.2847L17.4219 29.3336Z" fill="#F8F4F1"/>
<path d="M16.5142 30.2643L16.2696 30.5088L15.9761 30.2153L16.2206 29.9708L16.5142 30.2643Z" fill="#F8F4F1"/>
<path d="M17.6719 29.0906L17.4273 29.3352L17.3784 29.2863L17.623 29.0417L17.6719 29.0906Z" fill="#F8F4F1"/>
<path d="M11.8046 34.9595C11.8536 35.0084 11.9025 35.1552 12.0492 35.2041L12.0003 35.253C11.9025 35.253 11.8536 35.2041 11.8046 35.1552C11.7557 35.1063 11.7557 35.0084 11.8046 34.9595Z" fill="#F8F4F1"/>
<path d="M17.6119 29.0392L17.3673 29.2838L17.0738 28.9903L17.2695 28.6968L17.6119 29.0392Z" fill="#F8F4F1"/>
<path d="M11.7928 34.9583L11.7439 34.9094L11.8417 34.8116C11.8907 34.8605 11.8907 34.8605 11.7928 34.9583Z" fill="#F8F4F1"/>
<path d="M11.7675 34.8116C11.7675 34.8878 11.7675 34.8878 11.7675 34.8116C11.7294 34.8497 11.8056 34.8497 11.7675 34.8116Z" fill="#F8F4F1"/>
<path d="M11.7186 34.9583C11.6697 34.9094 11.6697 34.9094 11.7186 34.8605C11.7186 34.8605 11.7186 34.8605 11.7675 34.8116C11.7675 34.9094 11.7675 34.9094 11.7186 34.9583C11.8164 34.9583 11.7675 35.0072 11.7186 34.9583Z" fill="#F8F4F1"/>
<path d="M12.6426 33.9308L12.398 34.1754L12.3491 34.1265L12.5937 33.8819L12.6426 33.9308Z" fill="#F8F4F1"/>
<path d="M11.7675 34.8116C11.7294 34.8497 11.8056 34.8497 11.7675 34.8116C11.7294 34.8497 11.7294 34.8497 11.7675 34.8116Z" fill="#F8F4F1"/>
<path d="M11.7439 34.8137L11.8417 34.7159C11.8417 34.7159 11.8417 34.7159 11.8907 34.7648L11.7439 34.8137Z" fill="#F8F4F1"/>
<path d="M13.7579 32.6108L12.6329 33.9313L12.5839 33.8826L13.709 32.5618L13.7579 32.6108Z" fill="#F8F4F1"/>
<path d="M11.8056 34.7639L12.3437 34.128L12.3926 34.1769L11.8056 34.7639Z" fill="#F8F4F1"/>
<path d="M11.7375 34.804C11.6994 34.8421 11.6994 34.8421 11.7375 34.804C11.6613 34.804 11.6994 34.7659 11.7375 34.804Z" fill="#F8F4F1"/>
<path d="M11.6156 34.8614C11.7134 34.8614 11.7134 34.8614 11.6156 34.8614C11.6645 34.9104 11.7134 34.9593 11.7134 34.9593L11.6156 34.8614Z" fill="#F8F4F1"/>
<path d="M11.6056 34.8619C11.6552 34.8124 11.6552 34.8124 11.6056 34.8619C11.6552 34.8124 11.6552 34.8124 11.6552 34.8124C11.7047 34.7628 11.6552 34.8124 11.6056 34.8619C11.7047 34.8619 11.7047 34.8619 11.6056 34.8619Z" fill="#F8F4F1"/>
<path d="M12.5922 33.8826L12.3476 34.1272L11.9563 33.7359L12.2009 33.4913L12.5922 33.8826Z" fill="#F8F4F1"/>
<path d="M11.6697 34.8137C11.7186 34.7648 11.7675 34.7159 11.8164 34.7648L11.6697 34.8137Z" fill="#F8F4F1"/>
<path d="M14.0076 32.3677L13.763 32.6123L13.7141 32.5634L13.9587 32.3188L14.0076 32.3677Z" fill="#F8F4F1"/>
<path d="M15.9512 30.2135L13.9945 32.3659L13.9456 32.317L15.9023 30.1646L15.9512 30.2135Z" fill="#F8F4F1"/>
<path d="M13.9456 32.317L13.7013 32.5612L13.3589 32.2188L13.6035 31.9742L13.9456 32.317Z" fill="#F8F4F1"/>
<path d="M16.2014 29.9708L15.9568 30.2154L15.9079 30.1665L16.1525 29.9219L16.2014 29.9708Z" fill="#F8F4F1"/>
<path d="M17.0977 28.9918L16.2172 29.9702L16.1683 29.9213L17.0488 28.9429L17.0977 28.9918Z" fill="#F8F4F1"/>
<path d="M16.1685 29.9191L15.924 30.1637L15.5815 29.8213L15.8261 29.5767L16.1685 29.9191Z" fill="#F8F4F1"/>
<path d="M17.0838 28.99L17.0349 28.9411L17.2306 28.6476L17.2795 28.6965L17.0838 28.99Z" fill="#F8F4F1"/>
<path d="M17.051 28.9421L16.7086 28.5997L16.9042 28.3062L17.2467 28.6486L17.051 28.9421Z" fill="#F8F4F1"/>
<path d="M11.3241 34.5685C11.4219 34.6663 11.5197 34.7642 11.6665 34.8131L11.6176 34.862C11.5197 34.862 11.4708 34.8131 11.4219 34.7642C11.373 34.7153 11.3241 34.5685 11.3241 34.5685Z" fill="#F8F4F1"/>
<path d="M11.3533 34.4197L11.4511 34.3218C11.5 34.3707 11.4511 34.4197 11.4511 34.4197L11.4022 34.4686C11.3044 34.4686 11.3533 34.4197 11.3533 34.4197Z" fill="#F8F4F1"/>
<path d="M11.373 34.4209L11.4226 34.4705L11.373 34.5201C11.373 34.5201 11.373 34.5201 11.3234 34.4705L11.373 34.4209Z" fill="#F8F4F1"/>
<path d="M11.3347 34.4622C11.3728 34.4241 11.3728 34.4241 11.3347 34.4622V34.4622Z" fill="#F8F4F1"/>
<path d="M11.1921 34.5115C11.2302 34.4734 11.2302 34.4734 11.1921 34.5115C11.2302 34.4734 11.2683 34.5115 11.1921 34.5115Z" fill="#F8F4F1"/>
<path d="M12.1817 33.4909L11.9371 33.7355L11.8882 33.6865L12.1328 33.4419L12.1817 33.4909Z" fill="#F8F4F1"/>
<path d="M11.2663 34.4134C11.3044 34.3753 11.3425 34.4134 11.2663 34.4134C11.3044 34.4515 11.3044 34.4515 11.2663 34.4134Z" fill="#F8F4F1"/>
<path d="M13.3633 32.2199L12.1893 33.4917L12.1404 33.4428L13.3144 32.1709L13.3633 32.2199Z" fill="#F8F4F1"/>
<path d="M11.2289 34.4622C11.2671 34.4241 11.2671 34.4241 11.2289 34.4622C11.3052 34.4622 11.3052 34.4622 11.2289 34.4622C11.2671 34.5003 11.2671 34.5003 11.2289 34.4622Z" fill="#F8F4F1"/>
<path d="M11.3123 34.3739L11.4101 34.2761C11.4101 34.2761 11.4101 34.2761 11.459 34.325L11.3612 34.4228L11.3123 34.3739Z" fill="#F8F4F1"/>
<path d="M11.374 34.324L11.9121 33.688L11.961 33.737L11.374 34.324Z" fill="#F8F4F1"/>
<path d="M11.1601 34.4209C11.1982 34.4591 11.1982 34.4591 11.1601 34.4209V34.4209Z" fill="#F8F4F1"/>
<path d="M12.1469 33.4431L11.9023 33.6877L11.5599 33.3452L11.8045 33.1006L12.1469 33.4431Z" fill="#F8F4F1"/>
<path d="M11.1789 34.4207C11.2285 34.3711 11.2285 34.3711 11.2285 34.3711L11.1789 34.4207Z" fill="#F8F4F1"/>
<path d="M13.6132 31.9771L13.3686 32.2217L13.3197 32.1728L13.5643 31.9282L13.6132 31.9771Z" fill="#F8F4F1"/>
<path d="M11.2068 34.3738C11.2557 34.3249 11.3046 34.2759 11.3535 34.3248L11.2068 34.3738Z" fill="#F8F4F1"/>
<path d="M15.5586 29.8229L13.6019 31.9753L13.553 31.9263L15.5097 29.774L15.5586 29.8229Z" fill="#F8F4F1"/>
<path d="M13.553 31.9263L13.3087 32.1706L12.9663 31.8281L13.2109 31.5835L13.553 31.9263Z" fill="#F8F4F1"/>
<path d="M15.8067 29.5802L15.5621 29.8248L15.5132 29.7759L15.7578 29.5313L15.8067 29.5802Z" fill="#F8F4F1"/>
<path d="M16.7012 28.6012L15.8207 29.5796L15.7718 29.5307L16.6523 28.5523L16.7012 28.6012Z" fill="#F8F4F1"/>
<path d="M15.774 29.5285L15.5294 29.7731L15.187 29.4307L15.4316 29.1861L15.774 29.5285Z" fill="#F8F4F1"/>
<path d="M16.8828 28.3053L16.6872 28.5988L16.6383 28.5499L16.8339 28.2564L16.8828 28.3053Z" fill="#F8F4F1"/>
<path d="M16.8404 28.2579L16.6447 28.5514L16.3023 28.209L16.5469 27.9644L16.8404 28.2579Z" fill="#F8F4F1"/>
<path d="M10.8631 34.1281C10.9121 34.177 10.961 34.1281 10.8631 34.1281C10.9121 34.177 11.0099 34.2748 11.1566 34.3237L11.1077 34.3727C11.0099 34.3727 10.961 34.3237 10.9121 34.2748C10.9121 34.2748 10.9121 34.177 10.8631 34.1281Z" fill="#F8F4F1"/>
<path d="M10.9121 34.0792C10.9121 34.1783 10.9121 34.1783 10.9121 34.1783C10.9121 34.1783 10.9127 34.1776 10.8631 34.1281L10.9121 34.0792Z" fill="#F8F4F1"/>
<path d="M10.988 34.1269C10.9391 34.078 10.9391 34.078 10.988 34.1269C10.9391 34.078 10.988 34.029 10.988 34.029L11.0859 33.9312C11.037 33.9801 11.037 34.078 10.988 34.1269Z" fill="#F8F4F1"/>
<path d="M10.8723 34.1209C10.7961 34.1209 10.7961 34.1209 10.8723 34.1209C10.8342 34.0828 10.8342 34.0828 10.8723 34.1209Z" fill="#F8F4F1"/>
<path d="M10.8686 34.1297C10.9182 34.0802 10.9182 34.0802 10.9182 34.0802L10.8686 34.1297Z" fill="#F8F4F1"/>
<path d="M11.8164 33.1002L11.5719 33.3448L11.5229 33.2959L11.7675 33.0513L11.8164 33.1002Z" fill="#F8F4F1"/>
<path d="M10.8718 34.0218C10.9099 33.9837 10.9099 33.9837 10.8718 34.0218C10.9099 34.0599 10.9099 34.0599 10.8718 34.0218Z" fill="#F8F4F1"/>
<path d="M12.9688 31.8292L11.7948 33.1011L11.7458 33.0522L12.9199 31.7803L12.9688 31.8292Z" fill="#F8F4F1"/>
<path d="M10.8711 34.0298L10.92 34.0788C10.8711 34.1277 10.8711 34.1277 10.8711 34.0298C10.8711 34.1277 10.8711 34.1277 10.8711 34.1277V34.0298C10.7733 34.1277 10.7733 34.1277 10.8711 34.0298C10.8222 34.0788 10.8222 34.0788 10.8711 34.0298Z" fill="#F8F4F1"/>
<path d="M10.9289 33.9808L10.9785 33.9312C10.9785 33.9312 10.9785 33.9312 11.028 33.9808L10.9289 33.9808C10.9785 34.0303 10.9785 34.0303 10.9289 33.9808Z" fill="#F8F4F1"/>
<path d="M10.8711 34.0147C10.833 33.9766 10.833 33.9766 10.8711 34.0147C10.9092 33.9766 10.9092 33.9766 10.8711 34.0147Z" fill="#F8F4F1"/>
<path d="M11.7643 33.0515L11.5197 33.2961L11.1773 32.9537L11.373 32.6602L11.7643 33.0515Z" fill="#F8F4F1"/>
<path d="M13.2208 31.5827L12.9763 31.8273L12.9273 31.7784L13.1719 31.5338L13.2208 31.5827Z" fill="#F8F4F1"/>
<path d="M15.1934 29.4318L13.2367 31.5842L13.1878 31.5352L15.1445 29.3829L15.1934 29.4318Z" fill="#F8F4F1"/>
<path d="M10.8631 33.9308C10.9121 33.8819 10.9121 33.8819 10.961 33.9308L10.8631 33.9308C10.9121 33.9797 10.9121 33.9797 10.8631 33.9308Z" fill="#F8F4F1"/>
<path d="M10.7844 34.0301L10.8339 33.9805C10.8339 33.9805 10.8339 33.9805 10.8835 34.0301C10.8339 33.9805 10.8339 33.9805 10.7844 34.0301Z" fill="#F8F4F1"/>
<path d="M13.1861 31.5349L12.9415 31.7794L12.5991 31.437L12.8437 31.1924L13.1861 31.5349Z" fill="#F8F4F1"/>
<path d="M15.4121 29.1857L15.1676 29.4303L15.1186 29.3814L15.3632 29.1368L15.4121 29.1857Z" fill="#F8F4F1"/>
<path d="M16.3084 28.2107L15.4279 29.1891L15.379 29.1402L16.2595 28.1618L16.3084 28.2107Z" fill="#F8F4F1"/>
<path d="M16.5586 27.964L16.314 28.2086L16.2651 28.1597L16.5097 27.9151L16.5586 27.964Z" fill="#F8F4F1"/>
<path d="M15.3795 29.1379L15.1349 29.3825L14.7925 29.04L15.0371 28.7955L15.3795 29.1379Z" fill="#F8F4F1"/>
<path d="M16.4949 27.9162L16.2503 28.1607L15.9079 27.8183L16.1525 27.5737L16.4949 27.9162Z" fill="#F8F4F1"/>
<path d="M35.5793 8.82843C35.5412 8.79033 35.5412 8.79033 35.5793 8.82843V8.82843Z" fill="#F8F4F1"/>
<path d="M35.5355 8.78723C35.5844 8.73831 35.5844 8.73831 35.5355 8.78723L17.6806 29.0881L17.6317 29.0391L35.5355 8.78723Z" fill="#F8F4F1"/>
<path d="M10.5468 33.688C10.5468 33.7859 10.6447 33.8837 10.8403 33.9815L10.7914 34.0305C10.6936 34.0305 10.6447 33.9815 10.5957 33.9326C10.5468 33.8837 10.5468 33.7859 10.5468 33.688Z" fill="#F8F4F1"/>
<path d="M10.5348 33.5895L10.5837 33.5406C10.6326 33.5895 10.5837 33.6384 10.5837 33.6384L10.5348 33.6874V33.5895Z" fill="#F8F4F1"/>
<path d="M10.5468 33.5899L10.5964 33.6395L10.5468 33.688C10.4477 33.688 10.4973 33.6395 10.5468 33.5899C10.4973 33.6395 10.4973 33.6395 10.5468 33.5899Z" fill="#F8F4F1"/>
<path d="M10.4011 33.7303C10.4392 33.6922 10.4392 33.6922 10.4011 33.7303V33.7303Z" fill="#F8F4F1"/>
<path d="M10.4402 33.5823C10.4783 33.5442 10.4783 33.5442 10.4402 33.5823C10.5164 33.5823 10.5164 33.5823 10.4402 33.5823C10.4783 33.6204 10.4783 33.6204 10.4402 33.5823Z" fill="#F8F4F1"/>
<path d="M11.3703 32.6119L11.1307 32.8613L11.1806 32.9093L11.4202 32.6598L11.3703 32.6119Z" fill="#F8F4F1"/>
<path d="M10.536 33.4904L11.123 32.9034L11.1719 32.9523L10.536 33.4904Z" fill="#F8F4F1"/>
<path d="M10.4787 33.5406C10.5168 33.5787 10.5168 33.5787 10.4787 33.5406V33.5406Z" fill="#F8F4F1"/>
<path d="M12.5743 31.4386L11.3513 32.6616L12.5253 31.3897L12.5743 31.4386Z" fill="#F8F4F1"/>
<path d="M10.4394 33.5899C10.489 33.6395 10.489 33.6395 10.4394 33.5899C10.4394 33.689 10.4394 33.689 10.4394 33.5899C10.4394 33.689 10.4394 33.689 10.4394 33.689C10.3898 33.6395 10.3898 33.6395 10.4394 33.5899Z" fill="#F8F4F1"/>
<path d="M10.334 33.5899C10.3836 33.6395 10.3836 33.6395 10.334 33.5899V33.5899Z" fill="#F8F4F1"/>
<path d="M11.3698 32.6609L11.1252 32.9055L10.7339 32.5142L10.9785 32.2696L11.3698 32.6609Z" fill="#F8F4F1"/>
<path d="M12.8245 31.1921L12.5799 31.4367L12.531 31.3877L12.7756 31.1431L12.8245 31.1921Z" fill="#F8F4F1"/>
<path d="M14.7969 29.0412L12.8402 31.1935L12.7913 31.1446L14.748 28.9922L14.7969 29.0412Z" fill="#F8F4F1"/>
<path d="M10.4954 33.5403C10.3976 33.5403 10.4465 33.5893 10.4954 33.5403C10.4954 33.4425 10.4954 33.4425 10.5933 33.4425L10.4954 33.5403Z" fill="#F8F4F1"/>
<path d="M10.3905 33.5402H10.4883L10.4394 33.5899C10.3905 33.6388 10.3905 33.638 10.3905 33.5402Z" fill="#F8F4F1"/>
<path d="M35.2886 8.5447C35.3864 8.5447 35.3375 8.59361 35.3375 8.59361L17.2868 28.6988L17.2379 28.6499L35.2886 8.5447Z" fill="#F8F4F1"/>
<path d="M12.7741 31.1438L12.5295 31.3884L12.1871 31.046L12.3828 30.7525L12.7741 31.1438Z" fill="#F8F4F1"/>
<path d="M14.775 29.0396L14.7261 28.9907L14.9706 28.7461L15.0196 28.7951L14.775 29.0396Z" fill="#F8F4F1"/>
<path d="M15.9023 27.8165L15.0218 28.7948L14.9729 28.7459L15.9023 27.8165Z" fill="#F8F4F1"/>
<path d="M16.1641 27.5734L15.9195 27.818L16.1152 27.5245L16.1641 27.5734Z" fill="#F8F4F1"/>
<path d="M14.9849 28.7468L14.7404 28.9914L14.3979 28.6489L14.6425 28.4043L14.9849 28.7468Z" fill="#F8F4F1"/>
<path d="M8.80472 34.91L8.4623 35.2525L10.7125 37.5027L11.0549 37.1603L8.80472 34.91ZM8.07096 35.1546L8.65797 34.5676C8.70689 34.5187 8.80472 34.5187 8.85364 34.5676L11.3484 37.0624C11.3974 37.1113 11.3974 37.2092 11.3484 37.2581L10.7614 37.8451C10.7125 37.894 10.6147 37.894 10.5658 37.8451L8.07096 35.3503C7.97312 35.3503 7.97312 35.2525 8.07096 35.1546Z" fill="#F8F4F1"/>
<path d="M16.1196 27.5226L15.924 27.8161L15.5815 27.4736L15.8261 27.2291L16.1196 27.5226Z" fill="#F8F4F1"/>
<path d="M35.1204 8.39735L16.923 28.3558L16.8741 28.3068L35.1204 8.39735C35.1204 8.29951 35.0714 8.34843 35.1204 8.39735Z" fill="#F8F4F1"/>
<path d="M10.1523 33.2974C10.1523 33.3952 10.2501 33.4931 10.3969 33.542L10.348 33.5909C10.2501 33.5909 10.2012 33.542 10.1523 33.4931C10.1034 33.4442 10.1034 33.3463 10.1523 33.2974Z" fill="#F8F4F1"/>
<path d="M10.1523 33.2974C10.0545 33.2974 10.0545 33.2966 10.1034 33.2477L10.1523 33.1988C10.1523 33.1988 10.1034 33.2485 10.1523 33.2974Z" fill="#F8F4F1"/>
<path d="M10.1306 33.1985L10.2285 33.1006C10.2774 33.1496 10.2285 33.1985 10.2285 33.1985L10.1795 33.2474C10.0817 33.2474 10.1306 33.1985 10.1306 33.1985Z" fill="#F8F4F1"/>
<path d="M9.95819 33.2977C10.0078 33.2481 10.0573 33.2977 9.95819 33.2977L10.0078 33.2481C10.0078 33.2481 10.0078 33.2481 10.0573 33.2977C10.0573 33.2977 10.0078 33.3472 9.95819 33.2977Z" fill="#F8F4F1"/>
<path d="M10.961 32.2692L10.7164 32.5138L10.6675 32.4649L10.961 32.2692C10.9121 32.2203 10.9121 32.2203 10.961 32.2692Z" fill="#F8F4F1"/>
<path d="M10.082 33.15L10.082 33.2491C10.0324 33.1995 10.0324 33.1995 10.082 33.15C10.0324 33.1995 10.0324 33.1995 10.082 33.15Z" fill="#F8F4F1"/>
<path d="M10.082 33.15V33.0513C10.082 33.0513 10.082 33.0513 10.1309 33.1002L10.082 33.15Z" fill="#F8F4F1"/>
<path d="M9.94703 33.2966L10.0449 33.1988C10.0449 33.1988 10.0449 33.1988 10.0938 33.2477L9.94703 33.2966C10.0449 33.2966 9.99595 33.2477 9.94703 33.2966Z" fill="#F8F4F1"/>
<path d="M12.3528 30.6997L12.1132 30.9493L12.1631 30.9972L12.4027 30.7476L12.3528 30.6997Z" fill="#F8F4F1"/>
<path d="M10.0331 33.1002C10.082 33.0513 10.082 33.0513 10.1309 33.1002L9.93522 33.2959C9.8863 33.247 9.93522 33.1981 10.0331 33.1002Z" fill="#F8F4F1"/>
<path d="M10.9098 32.2181L12.1328 30.9952L12.1817 31.0441L10.9098 32.2181Z" fill="#F8F4F1"/>
<path d="M14.3446 28.6668L12.3396 30.7696L12.3896 30.8173L14.3947 28.7145L14.3446 28.6668Z" fill="#F8F4F1"/>
<path d="M10.1414 33.0996L10.7284 32.5126L10.7773 32.5615L10.1414 33.0996Z" fill="#F8F4F1"/>
<path d="M12.3284 30.705L12.1328 30.9985L11.8882 30.7539L12.1328 30.5093L12.3284 30.705Z" fill="#F8F4F1"/>
<path d="M14.6543 28.4039L14.4097 28.6485L14.3608 28.5996L14.6054 28.355L14.6543 28.4039Z" fill="#F8F4F1"/>
<path d="M15.4704 27.4201L14.5605 28.3687L14.6104 28.4166L15.5203 27.468L15.4704 27.4201Z" fill="#F8F4F1"/>
<path d="M15.8067 27.2321L15.5621 27.4767L15.5132 27.4277L15.7578 27.1832L15.8067 27.2321Z" fill="#F8F4F1"/>
<path d="M34.9016 8.15125L16.5575 27.9629L16.5086 27.914L34.9016 8.15125C34.9016 8.05342 34.8527 8.10233 34.9016 8.15125Z" fill="#F8F4F1"/>
<path d="M14.5783 28.3543L14.3338 28.5989L14.187 28.4522L14.4316 28.2076L14.5783 28.3543Z" fill="#F8F4F1"/>
<path d="M15.7543 27.1812L15.5097 27.4257L15.2651 27.1812L15.5097 26.9366L15.7543 27.1812Z" fill="#F8F4F1"/>
<path d="M10.52 39.1658L6.85122 35.2035L7.38932 34.6654L7.53607 34.8121C7.58499 34.861 7.63391 34.91 7.73174 34.91C7.82958 34.91 7.8785 34.861 7.92741 34.8121L7.53607 35.2035L10.52 38.3831L11.5962 37.5026C11.5473 37.5515 11.4984 37.6004 11.4984 37.6983C11.4984 37.7961 11.5473 37.845 11.5962 37.8939C11.5962 37.8939 11.6452 37.9428 11.743 38.0407L10.52 39.1658Z" fill="#F8F4F1"/>
<path d="M16.6523 25.8101C16.6523 25.9079 16.5545 26.0058 16.4077 26.0547L16.6523 25.8101Z" fill="#F8F4F1"/>
<path d="M17.1827 24.7859L17.623 24.3457L17.8676 24.5903L17.623 24.8348C17.4762 24.8838 17.3295 24.8348 17.1827 24.7859Z" fill="#F8F4F1"/>
<path d="M17.5805 24.8823L16.7 25.7628C16.7 25.7628 16.7 25.5672 16.651 25.3226L17.1891 24.7845C17.3359 24.8334 17.4826 24.8823 17.5805 24.8823Z" fill="#F8F4F1"/>
<path d="M15.5336 26.9385L15.289 27.1831L15.0444 26.9385L15.289 26.6939L15.5336 26.9385Z" fill="#F8F4F1"/>
<path d="M16.1631 25.8134L16.6523 25.3243C16.7012 25.5689 16.7012 25.7645 16.7012 25.7645L16.4566 26.0091C16.2609 26.0091 16.1631 25.9113 16.1631 25.8134Z" fill="#F8F4F1"/>
<path d="M11.8142 30.3611C11.8631 30.3121 11.961 30.3122 12.0099 30.3611C12.0588 30.41 12.0588 30.5078 12.0099 30.5567L11.961 30.6057C11.9121 30.6546 11.8142 30.6546 11.7653 30.6057C11.7653 30.5078 11.7653 30.41 11.8142 30.3611Z" fill="#F8F4F1"/>
<path d="M9.45559 32.2185C9.84693 31.8272 10.5318 31.8272 10.9231 32.2185L10.6785 32.4631C10.385 32.1696 9.94477 32.2185 9.70018 32.4631C9.40667 32.7566 9.45559 33.1969 9.70018 33.4415L11.7547 35.496C12.0482 35.7895 12.4885 35.7406 12.7331 35.496C12.9777 35.2514 13.0266 34.8112 12.782 34.5666L13.0266 34.322C13.4179 34.7133 13.369 35.3493 12.9777 35.7406C12.5863 36.1319 11.9015 36.1319 11.5101 35.7406L9.45559 33.6861C9.06425 33.2947 9.06425 32.6099 9.45559 32.2185Z" fill="#F8F4F1"/>
<path d="M14.1034 28.1593C14.0544 28.2082 13.9566 28.2082 13.9077 28.1593C13.8588 28.1104 13.9077 28.0615 13.9566 28.0125L14.0055 27.9636C14.0544 27.9147 14.1523 27.9147 14.2012 27.9636C14.2501 28.0125 14.1523 28.1104 14.1034 28.1593Z" fill="#F8F4F1"/>
<path d="M7.5351 34.5196L7.92644 34.9109C7.87753 34.9598 7.82861 35.0088 7.73077 35.0088C7.63294 35.0088 7.58402 34.9598 7.5351 34.9109L7.38835 34.7642L7.58402 34.5685L7.5351 34.5196Z" fill="#F8F4F1"/>
<path d="M34.3161 7.66437C34.365 7.71329 34.4139 7.66437 34.3161 7.66437V7.66437Z" fill="#F8F4F1"/>
<path d="M16.1525 25.8102C16.1525 25.908 16.2503 26.0059 16.3971 26.0548L15.4677 26.9842L15.2231 26.7396L16.1525 25.8102Z" fill="#F8F4F1"/>
<path d="M33.6778 7.51661C33.9713 7.32094 34.2159 6.29367 34.2648 5.65774L34.2648 5.5599L42.3851 0.472464L42.5319 0.423546C43.1678 0.472463 43.657 0.668133 43.9505 1.05947C44.2929 1.49973 44.2929 2.08675 44.2929 2.18458C44.3418 2.33133 44.3418 2.82051 43.9505 3.21185C43.657 3.50536 43.2167 3.65211 42.5808 3.60319C41.2111 3.50536 41.1622 4.33696 41.1133 4.38588C41.1133 4.48371 40.8687 7.56552 39.499 8.44604C39.1077 8.73955 38.6185 8.83738 38.1293 8.64171C37.0531 8.34821 36.515 8.49496 36.2215 8.5928C35.9769 8.73955 35.8791 8.93522 35.928 8.98414L35.8791 9.13089L19.3449 28.2088L19.0514 27.9153L18.7579 28.2088C18.8068 28.1599 18.8068 28.062 18.8068 28.062L18.8557 28.0131L35.4388 8.8863C35.4388 8.8863 35.4877 8.83738 35.4388 8.78847C35.4877 8.64171 35.6345 8.49496 35.8791 8.34821C36.4172 8.00578 37.1999 8.00578 38.1782 8.29929C38.5696 8.39712 38.8141 8.34821 39.1077 8.15254C40.2817 7.36985 40.4773 4.43479 40.4773 4.43479C40.4773 4.43479 40.673 3.0651 42.483 3.21185C42.9232 3.26077 43.2167 3.16293 43.4124 2.96726C43.657 2.72268 43.6081 2.28242 43.6081 2.28242L43.6081 2.18458C43.6081 2.18458 43.657 1.74432 43.4124 1.4019C43.2167 1.20623 42.8743 1.05948 42.4341 1.01056L34.6561 5.85341C34.6072 6.29367 34.4116 7.56553 33.8735 8.00578C33.3843 8.39713 21.9865 20.2841 17.6328 24.9313L17.535 25.0291H17.4371L17.6817 24.7845L17.4371 24.54L17.3882 24.5889L17.3393 24.54C19.5406 22.2408 33.1886 7.90795 33.6778 7.51661Z" fill="#F8F4F1"/>
<path d="M13.2324 43.0301C13.1835 42.9811 13.1835 42.9811 13.1346 42.9322C12.89 42.6876 12.7922 42.1985 12.9389 41.4647C13.3303 39.7037 12.2541 38.4318 11.8627 38.0405L12.0095 37.8937L11.6671 37.4534L12.0095 37.111L8.87874 33.8825L7.94931 34.8119L7.55797 34.4205L7.41121 34.5673L6.28611 33.2465C6.23719 33.1976 6.23719 33.1976 6.23719 33.1976C5.65018 31.4366 7.31338 30.1647 8.24282 29.7244C8.43849 29.5288 9.80818 28.5504 11.3735 28.6483C12.7432 28.7461 13.8194 26.6916 13.9662 26.3491C14.0151 26.1045 14.3086 24.9305 15.3359 24.3924C15.7761 24.1478 16.0696 24.2457 16.2164 24.3924C16.5099 24.5881 16.6077 24.8816 16.6567 25.224L16.1675 25.7132C16.1675 25.7132 16.1675 25.7132 16.1186 25.6643C16.1186 25.4686 16.0696 25.0284 15.9229 24.8816C15.874 24.8327 15.6783 24.8327 15.5315 24.8816C14.6021 25.3219 14.4064 26.4959 14.4064 26.4959C14.4064 26.4959 14.3575 26.5448 14.4064 26.5937C14.3575 26.7405 13.0857 29.2842 11.2757 29.1374C9.80818 29.0396 8.53632 30.1158 8.53632 30.1158L8.4874 30.1647C8.38957 30.1647 6.23719 31.2409 6.72637 33.0019L7.80255 34.2738L8.68307 33.3933C8.73199 33.3444 8.78091 33.2954 8.87875 33.2954C8.97658 33.2954 9.0255 33.3444 9.07442 33.3933L9.41684 33.7357L12.5476 36.9643C12.6454 37.0621 12.6454 37.2578 12.5476 37.3556L12.2051 37.698C12.6943 38.1872 13.8194 39.6058 13.4281 41.5625C13.2324 42.3452 13.4281 42.5409 13.477 42.5898C13.6727 42.6876 14.1619 42.492 14.4064 42.3452C14.8956 41.7582 16.1675 40.095 16.1675 39.1166C16.1675 37.7469 16.9012 35.8392 16.9502 35.7902C16.9502 35.6924 17.9285 33.7357 20.4233 33.0019C22.6735 32.3171 23.1627 31.3387 23.1627 31.3387C23.2116 31.2898 23.2116 31.192 23.2116 31.192C23.2116 31.192 23.0159 31.192 22.38 31.4366C20.619 32.2192 19.0047 31.4855 18.9558 31.4366L18.9069 31.3877C18.809 31.2898 18.0263 30.605 17.8307 29.8223L18.2709 29.382C18.2709 29.382 18.3199 29.4309 18.2709 29.4799C18.222 30.018 18.8579 30.7517 19.1515 31.0452C19.3471 31.1431 20.7168 31.6322 22.1354 30.9963C22.8692 30.6539 23.3584 30.6539 23.554 30.8496C23.7497 31.0452 23.7008 31.3876 23.554 31.6322C23.554 31.6322 23.016 32.8552 20.5212 33.5889C18.222 34.2249 17.3904 36.0348 17.4393 36.0837C17.4393 36.0837 16.7056 37.9915 16.7545 39.2145C16.8034 40.6331 14.9445 42.7855 14.8467 42.8833L14.7978 42.9322C14.6999 42.8344 13.7705 43.4703 13.2324 43.0301Z" fill="#F8F4F1"/>
<path d="M20.6135 34.0792C22.3257 34.1281 23.7443 32.5138 23.9399 32.3181C24.1356 31.9268 24.3802 30.8995 23.891 30.4103C23.3529 29.8723 22.1789 30.5571 22.1789 30.5571C22.0321 30.606 20.6135 31.1441 19.4395 30.5571C19.0971 30.4103 18.8525 30.1658 18.7547 29.8722C18.6079 29.5298 18.6568 29.1874 18.7057 28.845L19.3906 28.1601L19.4395 28.2091L19.3417 28.3069C19.2928 28.4536 18.9993 29.1385 19.1949 29.6277C19.2928 29.8233 19.3906 29.9212 19.6352 30.0679C20.6625 30.5082 21.9832 30.0679 21.9832 30.0679C21.9832 30.0679 23.4508 29.1874 24.2824 30.019C25.065 30.8017 24.4291 32.416 24.4291 32.5138L24.3802 32.5627C24.2824 32.6606 22.717 34.6173 20.6135 34.5683C20.0754 34.5194 19.5863 34.8129 19.0971 35.3021C18.2166 36.1826 17.6296 37.748 17.6785 38.6774C17.7274 40.096 16.749 41.6614 15.8685 42.9333C15.1837 43.9116 14.2542 44.4497 11.8573 45.477C9.50923 46.4553 7.16118 44.303 7.11227 44.254C7.06335 44.2051 5.59582 42.8354 3.98153 41.2211C3.14993 40.3895 2.26942 39.509 1.53565 38.6774C-0.861313 36.1826 0.263791 33.2965 0.263791 33.2965C0.312708 33.1497 1.53565 29.0896 4.1772 28.6004C6.57417 28.1601 10.3897 25.0294 10.3897 25.0294L10.4387 24.9805C10.7811 24.8337 11.5638 22.9749 12.1997 21.3606C13.0802 19.4039 14.1564 18.2298 15.3793 17.8874C16.6023 17.545 17.5317 18.0831 17.5806 18.132L17.6785 18.2298C17.972 18.6212 18.0698 18.9147 17.972 19.2082C17.8741 19.5017 17.4828 19.5995 17.3361 19.6485C17.0915 19.7952 15.7707 20.6268 15.7218 22.3389C15.6239 23.9043 17.0915 24.3935 17.5806 24.4913L17.5317 24.4424L17.1404 24.8337C16.2599 24.5402 15.0369 23.8065 15.0858 22.1922C15.1837 20.0398 16.9447 19.0614 16.9936 19.0125H17.0915C17.1893 19.0125 17.3361 18.9636 17.3361 18.8658C17.385 18.8169 17.3361 18.6701 17.1404 18.4744C16.9447 18.3766 16.3088 18.0342 15.4283 18.3277C14.4499 18.6212 13.4716 19.6974 12.64 21.5073C12.2486 22.5835 11.3192 25.0783 10.6832 25.4207C10.2919 25.7143 6.672 28.5515 4.27504 29.0896C1.97591 29.5298 0.801884 33.4432 0.801884 33.4432C0.752967 33.59 -0.176469 36.0848 1.92699 38.2861C4.1772 40.6341 7.45469 43.8138 7.50361 43.8627C7.50361 43.8627 9.7049 45.8683 11.7105 45.0367C13.9607 44.0584 14.7923 43.5203 15.4772 42.6398C16.3088 41.5147 17.2871 40.0471 17.1893 38.7753C17.1404 37.748 17.7274 36.0848 18.7547 35.0575C19.2438 34.3727 19.8798 34.0303 20.6135 34.0792Z" fill="#F8F4F1"/>
</svg>
