<svg width="54" height="39" viewBox="0 0 54 39" fill="none" xmlns="http://www.w3.org/2000/svg">
<path d="M9.29012 38.0935C8.86017 38.0935 8.55305 37.7864 8.49163 37.7249L8.43021 37.6635C8.36879 37.4793 0.445298 18.4997 15.7395 9.65491C31.0336 0.810091 42.1511 14.3844 42.2739 14.5073C42.5196 14.9987 48.4776 25.4405 48.2319 31.7055C48.2319 32.0741 48.1091 32.3198 47.8634 32.4426C47.372 32.6883 46.6349 32.0741 46.5121 31.9512L46.3892 31.8284L46.4507 31.7055C47.9862 26.239 40.4927 15.2444 40.4313 15.1215C40.3699 15.0601 28.6996 3.26699 16.2923 11.4976C12.4227 14.0773 6.34185 20.4038 9.53581 33.6096C9.96577 35.4523 10.4571 36.6193 10.4571 36.6193V36.6808V36.7422C10.2729 37.4793 9.96577 37.9092 9.59723 38.0321C9.41297 38.0935 9.35154 38.0935 9.29012 38.0935ZM8.86017 37.4793C8.92159 37.5407 9.16728 37.7249 9.35154 37.6635C9.53581 37.6021 9.7815 37.295 9.90435 36.8036C9.7815 36.4965 9.41297 35.4523 8.98301 33.7939C5.78905 20.281 11.9927 13.8316 15.9852 11.1291C28.6996 2.65276 40.6155 14.6916 40.677 14.8144C40.9841 15.3058 48.2933 25.9318 46.8192 31.6441C47.1263 31.8284 47.4334 32.0127 47.6177 31.9512C47.6791 31.9512 47.7405 31.8284 47.7405 31.6441C47.9862 25.5633 41.9668 14.8758 41.9054 14.753C41.7826 14.753 30.9722 1.42431 15.9852 10.0849C1.42806 18.4997 8.43021 36.4351 8.86017 37.4793Z" fill="#F8F4F1"/>
<path d="M9.47292 33.794L9.04297 33.6712C9.04297 33.6097 9.28866 32.6884 10.0257 32.3813C10.5171 32.197 11.1313 32.2585 11.7456 32.6884C13.5268 33.7326 15.3695 32.627 15.3695 32.627H15.4309L25.8113 30.6C25.8727 30.2929 26.1798 29.6173 26.6712 29.433C26.9783 29.3716 27.2854 29.433 27.5925 29.6787C27.7154 29.433 27.8382 29.1873 28.1453 29.1873C28.5139 29.1259 28.8824 29.3716 29.2509 30.0472C30.2337 29.9858 36.2531 29.7401 37.6044 28.696C39.0785 27.5289 40.9212 27.836 41.2897 27.9589L42.641 27.4675C42.8867 27.2218 44.1151 26.1162 45.2822 26.1162C45.7121 26.1162 46.1421 26.3005 46.4492 26.6076L46.1421 26.9147C45.8964 26.669 45.6507 26.5462 45.3436 26.5462C44.238 26.5462 43.0095 27.7746 43.0095 27.7746L42.9481 27.836L41.4126 28.3888H41.3511C41.3511 28.3888 39.4471 27.8975 37.9729 29.0645C36.3759 30.3544 29.4966 30.5386 29.1895 30.5386H29.0667L28.9438 30.3544C28.5139 29.5559 28.2682 29.6173 28.2068 29.6173C28.0839 29.6173 27.9611 29.9244 27.8996 30.1087L27.8382 30.5386L27.5311 30.2315C27.3468 30.0472 27.0397 29.8016 26.794 29.863C26.4255 29.9858 26.2412 30.6 26.1798 30.8457V30.9686L15.6152 32.9955C15.3081 33.1798 13.404 34.1625 11.5613 33.0569C11.0085 32.7498 10.5785 32.627 10.2714 32.8113C9.65719 32.9955 9.47292 33.7326 9.47292 33.794Z" fill="#F8F4F1"/>
<path d="M10.6416 38.892C10.5188 38.892 10.4574 38.892 10.3345 38.8306C9.65888 38.6463 9.47461 37.7864 9.47461 37.7864L9.90457 37.725C9.90457 37.725 10.0274 38.3392 10.4574 38.4006C10.7645 38.462 11.4401 38.4006 12.8528 36.865L12.9143 36.8036C13.0371 36.7422 15.3712 35.9437 17.7052 36.1894C19.9164 36.4351 23.1104 34.961 23.1718 34.8995H23.2332L26.6729 34.3467L26.7343 34.4082C26.8571 34.531 27.2871 34.7767 27.5942 34.7153C27.7171 34.6538 27.8399 34.5924 27.9013 34.4082L27.9627 34.2239L28.147 34.2853C28.147 34.2853 28.8841 34.5924 29.3755 34.3467C29.6212 34.2239 29.744 34.0396 29.8054 33.7325C30.174 32.3198 39.9401 31.9513 42.9498 31.8898H43.0112L43.0727 31.9513C43.1341 32.0127 45.161 33.3025 46.328 31.7056L46.6966 31.9513C45.591 33.4868 43.7483 32.8726 42.8884 32.3812C36.9304 32.5655 30.4196 33.1797 30.2354 33.9168C30.1125 34.3467 29.8668 34.6538 29.5597 34.7767C29.0683 35.0224 28.4541 34.8995 28.147 34.7767C27.9627 35.0224 27.7785 35.0838 27.6556 35.1452C27.1643 35.2681 26.6729 34.961 26.4886 34.8381L23.3561 35.3295C22.9875 35.5138 19.9164 36.865 17.6438 36.6194C15.6168 36.3737 13.4671 37.0493 13.0985 37.1722C12.1158 38.3392 11.3173 38.892 10.6416 38.892Z" fill="#F8F4F1"/>
<path d="M26.4872 34.7765C25.7501 33.9781 25.7501 31.1526 25.7501 30.8455H26.2415C26.2415 31.7054 26.3644 33.9781 26.8557 34.4694L26.4872 34.7765Z" fill="#F8F4F1"/>
<path d="M30.358 33.9166L29.9281 33.6709C30.0509 33.4252 29.4981 31.7054 28.9453 30.2927L29.3753 30.1084C29.7438 31.0912 30.6651 33.3638 30.358 33.9166Z" fill="#F8F4F1"/>
<path d="M27.9621 34.5921C27.655 34.0393 27.5321 30.7225 27.4707 30.0469H27.9621C28.0235 31.521 28.2078 34.0393 28.392 34.3464L27.9621 34.5921Z" fill="#F8F4F1"/>
<path d="M11.5003 38.5234L11.0703 38.3391C11.0703 38.3391 11.746 36.7421 11.3774 35.6365L11.8074 35.5137C12.2373 36.8035 11.5003 38.4619 11.5003 38.5234Z" fill="#F8F4F1"/>
<path d="M43.3015 32.1264L43.1172 30.293L42.6894 30.336L42.8736 32.1694L43.3015 32.1264Z" fill="#F8F4F1"/>
<path d="M44.867 32.4464L43.7266 30.3398L43.2944 30.5738L44.4349 32.6804L44.867 32.4464Z" fill="#F8F4F1"/>
<path d="M45.2216 32.8112L44.8531 32.5041C45.3445 31.9513 44.9145 29.9858 44.6074 28.8802L45.0374 28.7573C45.1602 29.0644 46.0201 31.8899 45.2216 32.8112Z" fill="#F8F4F1"/>
<path d="M4.8052 34.101C4.2524 34.101 3.63818 33.8553 3.02395 33.4254L0.751323 32.8111L0.689901 32.7497C0.628479 32.6883 -0.35428 30.7228 0.137099 29.6172C0.567056 28.5116 2.77826 28.0202 3.1468 27.9588L4.68236 27.1603L4.8052 27.2217C4.98947 27.2831 5.60369 27.4674 5.60369 27.9588C5.66511 28.4501 4.98947 28.8187 4.86662 28.8801L4.8052 28.9415L3.26964 28.5116C2.53257 28.5116 0.874168 29.003 0.567056 29.74C0.259944 30.4771 0.812746 31.8284 1.05844 32.3812L3.26964 32.9954C4.00671 33.5482 4.68236 33.7325 5.29658 33.5482C6.34076 33.2411 6.83214 31.8284 6.83214 31.8284L7.2621 32.0126C7.2621 32.0741 6.70929 33.6096 5.41942 33.9782C5.23516 34.101 5.05089 34.101 4.8052 34.101ZM3.82244 28.0816L4.68236 28.3273C4.92805 28.2045 5.11231 28.0202 5.11231 27.8973C5.11231 27.8973 5.11231 27.7745 4.68236 27.5902L3.82244 28.0816Z" fill="#F8F4F1"/>
<path d="M0.136719 29.6786C0.136719 29.6172 0.136719 27.7131 2.96215 26.6689C2.96215 26.6689 3.6378 26.4232 4.1906 26.1161C4.86624 25.7475 6.4018 26.546 6.70891 26.7303L6.46322 27.1603C5.849 26.7917 4.7434 26.3618 4.43629 26.546C3.88348 26.9146 3.14642 27.1603 3.14642 27.1603C0.628098 28.0816 0.628098 29.6786 0.628098 29.74L0.136719 29.6786Z" fill="#F8F4F1"/>
<path d="M4.00741 32.8728C3.88456 32.8728 3.76172 32.8728 3.76172 32.8728L3.82314 32.4428C3.82314 32.4428 4.43736 32.5042 4.86732 32.1971C5.17443 32.0128 5.29728 31.6443 5.3587 31.2144L5.78866 31.2758C5.72723 31.89 5.48154 32.32 5.11301 32.5656C4.74448 32.8113 4.31452 32.8728 4.00741 32.8728Z" fill="#F8F4F1"/>
<path d="M1.67302 31.9513L1.18164 30.3543L1.30449 30.2315C1.55018 30.0472 2.96289 29.1259 3.69996 29.4944C3.88423 29.5558 4.06849 29.7401 4.12992 30.17C4.19134 30.5386 4.06849 30.8457 3.8228 31.1528C3.20858 31.8284 1.91871 31.8899 1.85729 31.8899L1.67302 31.9513ZM1.67302 30.6L1.98013 31.5213C2.34867 31.4599 3.08573 31.3371 3.45427 30.9685C3.57711 30.7843 3.63854 30.6 3.63854 30.3543C3.63854 30.1086 3.51569 30.0472 3.45427 30.0472C3.14716 29.8015 2.28724 30.2315 1.67302 30.6Z" fill="#F8F4F1"/>
<path d="M4.49819 25.9316C4.12965 25.9316 3.6997 25.8088 3.26974 25.5631C1.2428 24.4575 0.628579 23.5362 0.628579 23.4747V23.4133C0.628579 23.2905 0.0143549 20.6493 1.30423 20.0351C1.73418 19.8508 1.97987 19.6666 2.22556 19.5437C2.71694 19.2366 3.02405 19.0523 3.45401 19.2366L4.8053 19.6051C5.41953 19.4209 6.34086 19.1752 6.64797 19.5437C6.89366 19.8508 6.58655 20.2194 6.46371 20.4036C6.15659 20.8336 5.84948 21.0179 5.54237 20.9564C5.05099 20.895 4.74388 20.2808 4.62103 20.0351L3.33116 19.6666C3.08547 19.6051 2.90121 19.6666 2.47125 19.9737C2.22556 20.0965 1.91845 20.2808 1.48849 20.5265C0.690001 20.895 0.874268 22.6763 1.05854 23.3519C1.18138 23.4747 1.7956 24.3347 3.45401 25.256C5.17384 26.2388 6.27944 24.3961 6.34086 24.3347L6.70939 24.5804C6.77082 24.5189 5.9109 25.9316 4.49819 25.9316ZM5.11241 19.9123C5.23526 20.1579 5.41953 20.4036 5.60379 20.4036C5.78806 20.4036 5.97233 20.2194 6.09517 20.0351C6.27944 19.7894 6.21802 19.728 6.21802 19.728C6.15659 19.728 5.66521 19.7894 5.11241 19.9123Z" fill="#F8F4F1"/>
<path d="M1.11941 20.588L0.689453 20.5266C0.689453 20.4652 0.996565 18.9296 2.16359 18.4382L2.4707 18.3154C3.45346 17.9469 4.49764 17.5169 5.41898 17.8854C5.84893 18.0083 6.15604 18.0697 6.46316 18.0697C6.83169 18.0697 7.26165 18.1311 7.32307 18.4997C7.38449 18.8068 7.63018 19.4824 7.75303 19.6667L7.38449 19.9124C7.38449 19.851 7.01596 19.0525 6.95454 18.6225C6.89311 18.5611 6.70885 18.5611 6.52458 18.5611C6.21747 18.5611 5.78751 18.4997 5.35755 18.3154C4.55906 18.0083 3.69915 18.3768 2.71639 18.7453L2.40928 18.8682C1.42652 19.2367 1.18083 20.588 1.11941 20.588Z" fill="#F8F4F1"/>
<path d="M2.41013 22.492C2.16444 22.492 1.91876 22.4306 1.73449 22.2463C1.4888 22.0006 1.42738 21.6935 1.4888 21.2021C1.4888 21.1407 1.55022 20.6493 1.91876 20.4037C2.28729 20.0965 2.84009 20.0965 3.57716 20.2808C4.25281 20.4651 4.62134 20.7108 4.62134 21.0179C4.68276 21.5093 4.12996 21.8164 4.00712 21.8778L2.84009 22.4306C2.84009 22.492 2.65582 22.492 2.41013 22.492ZM2.84009 20.6493C2.5944 20.6493 2.34871 20.7108 2.22587 20.8336C1.98018 21.0179 1.98018 21.325 1.98018 21.325C1.91875 21.5707 1.91875 21.8164 2.10302 21.9392C2.28729 22.1235 2.65582 22.0621 2.77867 22.0006L3.88427 21.5093C4.06854 21.3864 4.25281 21.2022 4.25281 21.1407C4.25281 21.0793 4.06854 20.895 3.51574 20.7722C3.27005 20.6494 3.02436 20.6493 2.84009 20.6493Z" fill="#F8F4F1"/>
<path d="M4.06715 24.0278C3.82146 24.0278 3.51435 23.9664 3.33008 23.9664L3.45292 23.5365C3.51435 23.5365 5.41844 24.0278 5.97124 22.2466L6.4012 22.3694C5.97124 23.6593 4.92706 24.0278 4.06715 24.0278Z" fill="#F8F4F1"/>
<path d="M7.63164 17.6398C7.57022 17.6398 7.5088 17.6398 7.44738 17.6398C6.89458 17.5784 6.4032 17.1485 5.97324 16.35C4.86764 14.1388 4.06915 13.586 4.00772 13.586L3.9463 13.5245V13.4631C3.9463 13.4017 3.27066 11.8661 3.88488 10.8834C4.13057 10.5148 4.4991 10.2692 4.99048 10.1463C5.42044 9.2864 6.28035 9.22498 6.71031 9.2864H6.77173L7.20169 9.96204L8.92151 10.9448L10.3342 11.3748L10.3957 11.4362C11.1941 12.2961 10.9485 12.7875 10.7028 12.9717C10.2728 13.4017 9.29005 13.4631 9.04436 13.2174C8.92152 13.0946 8.92152 12.9717 9.04436 12.8489C9.04436 12.7261 8.79867 12.2347 8.43014 11.7433L5.60471 10.5763C4.92906 10.5763 4.4991 10.7605 4.25341 11.1291C3.82346 11.8047 4.25341 12.9717 4.31484 13.2174C4.56053 13.4017 5.35902 14.0773 6.34177 16.1657C6.64889 16.8414 7.01742 17.1485 7.44738 17.2099C8.0616 17.2713 8.67583 16.6571 8.67583 16.6571L9.04436 16.9642C9.10578 16.9028 8.43014 17.6398 7.63164 17.6398ZM9.59716 12.8489C9.84285 12.8489 10.3957 12.7875 10.5799 12.6032C10.7642 12.3575 10.4571 11.989 10.2728 11.8047L8.92151 11.4362C9.22863 11.8661 9.59716 12.4804 9.59716 12.8489ZM5.78897 10.0235L8.55298 11.1905L7.01742 10.2692L6.64889 9.71635C6.46462 9.71635 6.03466 9.71635 5.66613 10.0235C5.66613 10.0235 5.72755 10.0235 5.78897 10.0235Z" fill="#F8F4F1"/>
<path d="M12.2995 12.7871L11.8695 12.6029C12.0538 12.1729 11.9924 11.8044 11.8695 11.4973C11.4396 10.6988 10.2726 10.3303 10.2726 10.3303H10.2111L10.1497 10.2688C9.53549 9.59318 7.56998 9.59318 6.83291 9.71603L6.77148 9.28607C6.89433 9.28607 9.53549 9.04038 10.4568 9.96172C10.7639 10.0231 11.8695 10.4531 12.2995 11.313C12.4838 11.8044 12.4838 12.2958 12.2995 12.7871Z" fill="#F8F4F1"/>
<path d="M7.63092 14.9985C6.95527 14.9985 6.52531 14.63 6.52531 14.63L6.83243 14.2615C6.89385 14.2615 7.63092 14.9371 8.79794 14.0772L9.04363 14.4457C8.55225 14.8757 8.06087 14.9985 7.63092 14.9985Z" fill="#F8F4F1"/>
<path d="M5.78759 13.3401L5.66474 13.2787C5.5419 13.2173 4.74341 12.9102 4.62056 12.296C4.55914 11.9888 4.80483 11.6203 5.23479 11.3132C5.66474 11.0061 6.0947 10.9447 6.52466 11.0061C7.32315 11.1904 7.7531 11.9274 7.7531 11.9888L7.87595 12.1731L5.78759 13.3401ZM6.21754 11.4975C5.97185 11.4975 5.72616 11.5589 5.5419 11.7432C5.35763 11.866 5.11194 12.0503 5.17336 12.2345C5.17336 12.4802 5.60332 12.6645 5.78759 12.7873L7.26172 12.0503C7.07746 11.866 6.83177 11.5589 6.46323 11.4975C6.34039 11.4975 6.27897 11.4975 6.21754 11.4975Z" fill="#F8F4F1"/>
<path d="M14.1426 11.1905L11.9928 10.5763L11.9314 10.5149C11.87 10.392 9.90446 7.62802 10.1501 6.03104C10.3958 4.43406 11.6857 4.12694 11.8086 4.12694L12.0542 3.81983C12.0542 3.81983 12.6685 3.14419 13.5284 3.20561C14.204 3.26703 14.8797 3.69699 15.4939 4.49548C15.8624 4.61832 17.2137 5.04828 17.7051 5.41681C18.1351 5.78535 18.8107 7.13664 18.8107 7.99655C18.8107 8.36509 18.6264 8.54936 18.5036 8.61078L18.2579 8.24224C18.3193 8.18082 18.3193 8.05798 18.3807 7.99655C18.3807 7.32091 17.8279 6.09246 17.4594 5.84677C17.0909 5.53966 15.801 5.1097 15.3096 4.98686H15.2482L15.1868 4.92544C14.634 4.18837 14.0812 3.75841 13.5284 3.75841C13.2827 3.75841 13.0984 3.81983 12.9142 3.88125C14.2654 4.18837 15.5553 5.6625 15.801 5.96962L16.6609 6.21531C16.7223 6.27673 17.398 6.82953 17.2751 7.44375C17.2137 7.81229 16.9066 8.1194 16.4152 8.30367C15.9239 8.48793 15.6167 8.48793 15.3096 8.24224C14.8797 7.87371 15.0025 6.95237 15.0639 6.64526C14.3269 5.35539 12.1157 4.74117 11.7471 4.61832C11.5629 4.67975 10.7029 4.92544 10.5187 6.15388C10.3344 7.50518 11.87 9.83923 12.1771 10.2692L14.1426 10.822V11.1905ZM15.3096 6.03104C15.4325 6.15388 15.5553 6.33815 15.6167 6.52242L15.6782 6.58384V6.64526C15.6167 6.95237 15.5553 7.68944 15.801 7.87371C15.9239 7.99655 16.231 7.93513 16.4152 7.87371C16.6609 7.75086 16.968 7.62802 16.968 7.38233C17.0295 7.07522 16.7223 6.76811 16.5381 6.58384L15.6167 6.33815L15.5553 6.27673C15.4939 6.27673 15.4325 6.15388 15.3096 6.03104ZM12.2999 4.24979C12.8527 4.43406 14.0198 4.80259 14.8797 5.53966C14.204 4.92544 13.1598 4.12694 12.2999 4.24979Z" fill="#F8F4F1"/>
<path d="M12.9751 8.48782C12.9137 8.48782 12.9137 8.48782 12.8522 8.48782C12.4223 8.48782 12.1152 8.30355 11.9309 7.99644C11.3167 7.0751 11.9309 5.23243 11.9923 5.17101L12.0537 5.04816H12.1766C12.9751 4.92532 13.4665 5.47812 13.5893 5.84665C13.6507 5.9695 14.3264 7.44363 13.835 8.11928C13.7121 8.36497 13.405 8.48782 12.9751 8.48782ZM12.3609 5.4167C12.1766 5.9695 11.9309 7.19795 12.2994 7.75075C12.4223 7.93501 12.6065 8.05786 12.9137 8.05786C13.3436 8.05786 13.4665 7.93501 13.4665 7.87359C13.7736 7.44363 13.3436 6.33803 13.1593 6.03092C13.1593 5.90808 12.9137 5.4167 12.3609 5.4167C12.4223 5.4167 12.4223 5.4167 12.3609 5.4167Z" fill="#F8F4F1"/>
<path d="M13.3426 10.0851C13.2198 10.0851 13.1583 10.0851 13.0969 10.0851C12.4213 9.90083 12.1142 9.22518 12.0527 9.16376L12.4827 8.97949C12.4827 8.97949 12.7284 9.53229 13.1583 9.59372C13.5269 9.65514 14.0183 9.47087 14.5096 8.97949L14.8167 9.2866C14.3254 9.83941 13.834 10.0851 13.3426 10.0851Z" fill="#F8F4F1"/>
<path d="M20.9599 7.87358C19.9771 7.56647 18.1959 6.39944 18.7487 4.43393C19.4243 2.22272 19.8543 1.36281 19.9157 1.30139C19.9771 1.23996 20.7756 0.0729391 21.8812 0.0115167C22.3726 -0.0499057 22.864 0.134361 23.2939 0.564318L24.1538 0.994275C24.2153 1.0557 26.1194 1.97703 26.1808 3.75828C26.1808 4.12682 26.2422 4.49535 26.2422 4.74104C26.3036 5.66238 26.365 6.15376 25.5051 7.07509L25.198 6.76798C25.9351 6.03091 25.8737 5.66238 25.8122 4.80246C25.8122 4.49535 25.7508 4.18824 25.7508 3.75828C25.7508 2.83695 25.1366 2.1613 24.6452 1.79277C24.8295 2.59126 24.7681 3.69686 24.7681 4.06539L25.0138 4.74104C25.0752 4.98673 25.3209 6.09233 24.8909 6.52229C24.6452 6.70656 24.3381 6.70656 23.9696 6.52229C23.601 6.33802 23.3553 6.09233 23.2325 5.7238C23.0482 4.98673 23.6625 4.18824 23.8467 4.00397C23.9081 3.75828 24.461 2.22272 23.1097 0.932853C22.7411 0.564318 22.3726 0.441473 22.0041 0.441473C21.1441 0.502896 20.4071 1.48565 20.3457 1.54708C20.3457 1.54708 19.9157 2.40699 19.24 4.55677C18.6258 6.58371 21.0213 7.3822 21.1441 7.3822L20.9599 7.87358ZM24.2153 3.94255C24.1538 4.12682 24.0924 4.24966 24.0924 4.24966L24.031 4.31108C23.8467 4.49535 23.4168 5.171 23.5396 5.66238C23.601 5.84664 23.7239 6.03091 23.9696 6.15376C24.0924 6.21518 24.3381 6.2766 24.461 6.21518C24.6452 6.03091 24.5838 5.35526 24.461 4.92531L24.1538 4.18824V4.12682C24.2153 4.06539 24.2153 4.00397 24.2153 3.94255Z" fill="#F8F4F1"/>
<path d="M21.3281 5.72378C20.9596 5.72378 20.6525 5.47809 20.284 4.86386C19.854 4.18822 19.7926 3.57399 19.9768 3.08261C20.3454 2.2227 21.451 1.97701 21.6353 1.97701C21.8195 1.91559 21.9424 1.97701 22.1266 2.03843C22.5566 2.34555 22.618 3.38973 22.6794 3.63542C22.618 4.00395 22.2495 5.60093 21.451 5.72378C21.3896 5.72378 21.3896 5.72378 21.3281 5.72378ZM21.8195 2.40697H21.7581C21.7581 2.40697 20.7139 2.59123 20.4068 3.26688C20.2225 3.63542 20.3454 4.12679 20.6525 4.61817C20.8982 5.04813 21.1439 5.29382 21.3281 5.2324C21.6967 5.17098 22.0652 4.18822 22.1266 3.57399C22.1881 3.14404 22.0652 2.52981 21.8195 2.40697C21.8809 2.40697 21.8809 2.40697 21.8195 2.40697Z" fill="#F8F4F1"/>
<path d="M21.3876 6.39963L21.3262 5.96968C21.3262 5.96968 22.3089 5.84683 22.5546 5.04834L22.9846 5.17119C22.7389 6.21537 21.449 6.39963 21.3876 6.39963Z" fill="#F8F4F1"/>
<path d="M33.9798 8.73343L33.7341 8.36489C35.2697 7.32071 35.0854 6.27653 34.9626 5.41662C34.9011 5.04808 34.8397 4.74097 34.9011 4.43386C35.0854 3.51252 34.3483 1.97696 34.3483 1.91554C34.3483 1.91554 33.6113 0.809938 31.9529 1.23989C30.3559 1.60843 30.3559 4.31101 30.3559 4.61813C30.4787 4.98666 30.9087 6.33795 30.4173 6.82933C30.1716 7.0136 29.8645 7.0136 29.4345 6.82933C28.9432 6.58364 28.6975 6.27653 28.636 5.908C28.5746 5.29377 29.1274 4.80239 29.4345 4.5567C29.0046 3.14399 30.233 1.54701 30.9701 0.809938C30.4173 1.05563 29.8645 1.91554 29.6802 2.28407L28.6975 3.81963C28.2061 4.24959 27.899 4.67955 27.899 5.23235C27.8376 6.15369 28.5746 7.0136 28.5746 7.0136L28.2675 7.32071C28.2061 7.25929 27.3462 6.33795 27.469 5.23235C27.5304 4.61813 27.8376 4.0039 28.3904 3.51252L29.3117 2.03839C29.4345 1.7927 30.6016 -0.111398 31.7072 0.379981L32.0143 0.502826L31.7686 0.748516C31.7686 0.748516 31.6457 0.87136 31.4001 1.11705C31.5229 1.05563 31.7072 0.932783 31.8914 0.932783C33.9184 0.441404 34.7783 1.85412 34.7783 1.85412C34.8397 1.91554 35.5768 3.63537 35.3925 4.67955C35.3311 4.92524 35.3925 5.17093 35.4539 5.53946C35.5154 6.27653 35.761 7.50498 33.9798 8.73343ZM29.8645 4.67955L29.7417 4.74097C29.5574 4.86381 29.0046 5.35519 29.0046 5.78515C29.0046 5.96942 29.1889 6.21511 29.5574 6.33795C29.8031 6.4608 29.9873 6.4608 30.0488 6.39937C30.233 6.27653 30.1102 5.41662 29.8645 4.67955ZM30.1716 2.3455C29.8031 3.02114 29.5574 3.75821 29.8031 4.43386C29.8645 4.12675 29.8645 3.20541 30.1716 2.3455Z" fill="#F8F4F1"/>
<path d="M33.6136 6.52221L32.3851 4.00389C32.2009 3.94247 31.7709 3.69678 31.6481 3.32824C31.5866 3.14397 31.5866 2.83686 31.7709 2.46833C31.8323 2.40691 32.2009 1.91553 32.6922 1.91553C32.8765 1.91553 33.1222 1.97695 33.3679 2.34548C33.9821 3.2054 33.9821 4.80238 33.9821 4.8638V4.92522L33.6136 6.52221ZM32.2009 2.71402C32.078 2.89829 32.078 3.02113 32.1394 3.14398C32.2009 3.38966 32.5694 3.57393 32.6922 3.57393L32.7537 3.63535L33.5522 5.23234L33.675 4.80238C33.675 4.55669 33.6136 3.26682 33.1222 2.59117C32.9379 2.34548 32.8151 2.34548 32.8151 2.34548C32.508 2.40691 32.2623 2.6526 32.2009 2.71402Z" fill="#F8F4F1"/>
<path d="M33.1193 7.07521C32.0752 7.07521 31.5838 6.2153 31.4609 5.72392L31.8909 5.60107C31.8909 5.6625 32.1366 6.70668 33.2422 6.58383L33.3036 7.01379C33.2422 7.07521 33.1808 7.07521 33.1193 7.07521Z" fill="#F8F4F1"/>
<path d="M32.5665 0.932947C32.5051 0.74868 31.9523 0.687257 31.4609 0.687257V0.195878C31.6452 0.195878 32.7508 0.134456 32.9965 0.687257L32.5665 0.932947Z" fill="#F8F4F1"/>
<path d="M40.1218 12.9103L40.0604 12.4804C41.1046 12.2961 41.596 11.4362 42.0259 10.6377C42.2102 10.3306 42.333 10.0235 42.5173 9.77779C43.0701 9.04072 43.3158 7.13663 43.3158 6.82952C43.2544 6.64525 42.8859 5.78534 41.7802 4.61831C41.3503 4.18836 40.8589 4.06551 40.3061 4.3112C39.6305 4.55689 39.1391 5.17111 39.1391 5.17111C39.1391 5.17111 38.2177 5.72391 36.6822 6.89094C35.2695 7.93512 36.4979 9.65495 36.5593 9.77779L36.1908 10.0235C35.638 9.28641 35.0238 7.56659 36.4365 6.52241C37.8492 5.47823 38.7091 4.92542 38.8934 4.80258C39.0162 4.67973 39.569 4.12693 40.2447 3.81982C40.9818 3.51271 41.6574 3.69698 42.2102 4.24978C43.5615 5.66249 43.8072 6.64525 43.8686 6.70667V6.7681V6.82952C43.8686 6.95236 43.6843 9.16357 42.9473 10.0849C42.763 10.3306 42.6402 10.5763 42.4559 10.8834C41.9645 11.6819 41.4117 12.6646 40.1218 12.9103Z" fill="#F8F4F1"/>
<path d="M38.0953 8.73351C37.7882 8.73351 37.4811 8.4264 37.4197 8.30356C37.0511 7.8736 36.9283 7.50507 36.9897 7.19795C37.0511 6.82942 37.3582 6.70657 37.6039 6.58373C37.6653 6.52231 37.7882 6.46089 37.8496 6.46089C37.9725 6.09235 39.8765 4.61821 40.9821 3.7583L41.2893 4.12683C40.9821 4.37252 40.675 4.61821 40.3679 4.8639C40.5522 4.74106 40.7365 4.61821 40.9207 4.61821C41.8421 4.43395 42.8862 5.04817 42.8862 5.04817L42.6406 5.4167C42.6406 5.4167 41.7806 4.8639 40.9821 5.04817C40.3679 5.17101 39.3237 6.39946 38.8938 6.95226C38.8938 7.44364 38.8324 8.61067 38.2796 8.79494C38.1567 8.73351 38.1567 8.73351 38.0953 8.73351ZM39.6923 5.23244C38.8938 5.84666 38.2796 6.39946 38.2181 6.58373C38.1567 6.768 37.9725 6.89084 37.7882 6.95226C37.6039 7.01369 37.4197 7.13653 37.4197 7.25938C37.4197 7.3208 37.4197 7.56649 37.7882 7.99645C37.9725 8.24213 38.0953 8.30356 38.1567 8.30356C38.341 8.24213 38.4638 7.50507 38.4638 6.82942V6.768L38.5253 6.70657C38.5253 6.52231 39.0781 5.84666 39.6923 5.23244Z" fill="#F8F4F1"/>
<path d="M41.5352 9.47042C41.4738 9.47042 41.4123 9.47042 41.3509 9.409C41.0438 9.22473 41.1666 8.61051 41.2895 8.11913C40.9824 7.44348 40.8595 6.82926 41.0438 6.33788C41.2281 5.78508 41.7195 5.53939 41.7809 5.53939L41.8423 5.47797H41.9037C41.9651 5.47797 43.0707 5.8465 43.255 6.82926C43.3779 7.44348 43.0707 8.18055 42.3337 8.91762C42.088 9.22473 41.7809 9.47042 41.5352 9.47042ZM41.8423 6.03077C41.7195 6.09219 41.5352 6.27646 41.4738 6.52215C41.3509 6.89068 41.4123 7.38206 41.7195 7.99628L41.7809 8.05771L41.7195 8.18055C41.5966 8.48766 41.5352 8.8562 41.5352 9.04046C41.5966 8.97904 41.7195 8.91762 41.9651 8.67193C42.6408 8.05771 42.8865 7.44348 42.7636 7.01353C42.7022 6.3993 42.088 6.09219 41.8423 6.03077Z" fill="#F8F4F1"/>
<path d="M40.1846 10.6988C39.8775 10.6988 39.6318 10.6374 39.4475 10.4532C39.0176 10.0232 39.0176 9.34756 39.0176 9.28613L39.4475 9.34755C39.4475 9.34755 39.3861 9.90036 39.6932 10.146C39.8775 10.2689 40.0618 10.3303 40.4303 10.2689L40.5531 10.6988C40.4303 10.6988 40.3074 10.6988 40.1846 10.6988Z" fill="#F8F4F1"/>
<path d="M46.0207 19.3596C45.7136 19.3596 45.4065 19.2982 45.0994 19.1754L43.9323 18.6226L44.1166 18.1926L45.2836 18.7454C45.8364 18.9297 46.4507 18.9297 46.942 18.684C48.3547 18.0083 49.0918 15.8585 49.0918 15.8585C49.0918 15.8585 49.706 13.7702 48.539 12.0504C48.4162 11.8661 48.2319 11.6818 48.1091 11.559C47.0649 10.7605 45.775 11.8047 45.775 11.8047L45.7136 11.8661L43.6252 12.726C41.844 13.4631 42.2739 14.5687 42.3354 14.6301L41.9054 14.8144C41.9054 14.8144 41.2912 13.2174 43.441 12.296L45.4679 11.4361C46.0207 11.0062 47.3106 10.392 48.3547 11.1904C48.539 11.3747 48.7233 11.559 48.9075 11.8047C50.2588 13.7088 49.5832 15.92 49.5218 15.9814C49.4603 16.1042 48.7233 18.3154 47.1263 19.0525C46.7578 19.2368 46.3892 19.3596 46.0207 19.3596Z" fill="#F8F4F1"/>
<path d="M44.7906 15.2441C44.6064 15.2441 44.3607 15.1213 44.1764 14.937C43.8079 14.6299 43.7464 14.3228 43.8079 14.0771C43.9307 13.5243 44.6678 13.1558 44.9749 13.0329C45.4048 12.1116 47.8617 11.4974 48.4145 11.3745L48.5374 11.8045C47.5546 12.0502 46.1419 12.4801 45.6505 12.9715C45.8962 12.8487 48.2303 11.743 49.0902 12.1116L48.8445 12.5415C48.3531 12.3573 46.8176 12.9101 45.8962 13.34L45.712 13.77C45.712 14.0157 45.5277 14.937 45.0363 15.1827C44.9749 15.2441 44.9135 15.2441 44.7906 15.2441ZM45.5277 13.0943C45.4663 13.1558 45.4048 13.2172 45.4048 13.2786L45.3434 13.4015L45.2206 13.4629C44.852 13.5857 44.2992 13.8928 44.2378 14.1999C44.2378 14.2614 44.1764 14.3842 44.4835 14.6299C44.6064 14.7527 44.7292 14.8142 44.852 14.8142C45.0977 14.7527 45.2206 14.1385 45.282 13.77V13.7086L45.5277 13.0943Z" fill="#F8F4F1"/>
<path d="M46.7567 16.7184L46.9409 16.0427C47.1866 15.1828 47.3095 14.3229 47.1252 14.2001C46.9409 14.2001 46.7567 14.0772 46.6952 13.9544C46.6338 13.7087 46.6952 13.4016 47.0023 13.2173C47.3709 12.9102 47.8623 12.8488 48.4151 13.0945L48.4765 13.1559C48.4765 13.1559 49.0293 13.7087 48.9679 14.5072C48.9064 15.1214 48.4765 15.6128 47.7394 16.1042L46.7567 16.7184ZM47.248 13.7701C47.3709 13.7701 47.4937 13.8315 47.5551 13.9544C47.8008 14.2615 47.678 14.9986 47.5551 15.6128C48.1694 15.2443 48.4765 14.8143 48.5379 14.3843C48.5993 13.893 48.2922 13.5244 48.2308 13.463C47.8008 13.2787 47.5551 13.4016 47.4323 13.5244C47.248 13.5859 47.1866 13.7701 47.248 13.7701Z" fill="#F8F4F1"/>
<path d="M46.4511 17.7626C46.3283 17.7626 46.2668 17.7626 46.144 17.7012C45.5298 17.4555 45.2227 16.4727 45.2227 16.3499L45.6526 16.2271C45.714 16.4727 45.9597 17.087 46.2668 17.2098C46.3897 17.2712 46.5739 17.2098 46.7582 17.087L47.0039 17.4555C46.8196 17.7012 46.6354 17.7626 46.4511 17.7626Z" fill="#F8F4F1"/>
<path d="M48.9069 27.5902C48.4155 27.5902 47.8013 27.4059 47.1257 26.8531L47.4328 26.4846C48.9069 27.7744 49.8283 26.8531 49.8897 26.7917C49.8897 26.7302 50.9953 25.3175 52.7151 24.2734C53.1451 24.0277 53.3908 23.7205 53.4522 23.352C53.575 22.7378 53.2679 22.0621 53.0836 21.8165C52.7765 21.8165 52.1623 21.6322 51.9166 20.6494C51.6709 19.7281 50.6267 19.6667 50.4425 19.6053C50.1354 19.6667 49.214 19.7281 47.8627 19.7895C45.7744 19.7895 45.5901 21.3865 45.5901 21.4479L45.1602 21.3865C45.1602 21.3865 45.4058 19.2981 47.8627 19.2981C49.9511 19.2981 50.3196 19.1753 50.3196 19.1753H50.3811H50.4425C50.9953 19.1753 52.1009 19.4824 52.408 20.5266C52.6537 21.4479 53.2065 21.3865 53.2065 21.3865L53.3293 21.3251L53.3908 21.4479C53.3908 21.5093 54.0664 22.4307 53.8821 23.4134C53.7593 23.9048 53.4522 24.3348 52.9608 24.6419C51.3024 25.6246 50.2582 27.0374 50.2582 27.0374C50.1968 27.0988 49.7054 27.5902 48.9069 27.5902Z" fill="#F8F4F1"/>
<path d="M50.8107 23.7205L49.7051 20.895H50.0736C50.135 20.895 52.2234 21.0179 52.4077 22.3077C52.4691 22.6763 52.4077 22.922 52.162 23.1676C51.732 23.659 50.9335 23.7205 50.9335 23.7205H50.8107ZM50.4421 21.3864L51.1178 23.2291C51.3021 23.1676 51.6706 23.1062 51.8549 22.8605C51.9777 22.7377 51.9777 22.5534 51.9777 22.3692C51.9163 21.7549 50.9949 21.5092 50.4421 21.3864Z" fill="#F8F4F1"/>
<path d="M48.2934 22.1848C48.0477 22.1848 47.8634 22.1234 47.5563 22.062C47.372 22.0006 46.7578 21.8163 46.7578 21.3863C46.7578 20.7107 48.1091 20.1579 48.5391 19.9736H48.6005H51.9787V20.2807H52.1016V20.7721H49.5832C49.5832 21.0792 49.5218 21.5706 49.0919 21.8777C48.9076 22.1234 48.6619 22.1848 48.2934 22.1848ZM48.6619 20.4036C47.8634 20.7107 47.1878 21.1407 47.1878 21.3249C47.1878 21.3863 47.2492 21.5092 47.6791 21.5706C48.1705 21.6935 48.5391 21.6935 48.7848 21.5092C49.1533 21.2021 49.0919 20.5264 49.0919 20.5264V20.3422L48.6619 20.4036Z" fill="#F8F4F1"/>
<path d="M49.7044 25.3175C49.4587 25.3175 49.213 25.2561 49.0288 25.1332C48.4145 24.7033 48.5374 23.6591 48.5374 23.5977L48.9673 23.6591C48.9673 23.9048 48.9673 24.519 49.2744 24.7647C49.5816 24.9489 50.0729 24.8261 50.38 24.7033L50.5643 25.1332C50.3186 25.2561 50.0115 25.3175 49.7044 25.3175Z" fill="#F8F4F1"/>
</svg>
