<svg width="22" height="49" viewBox="0 0 22 49" fill="none" xmlns="http://www.w3.org/2000/svg">
<path d="M11.6364 48.3997C10.5251 48.3997 9.59912 48.2763 9.41392 48.2763C9.16698 48.338 7.37668 48.5232 6.08025 48.0293C5.33943 47.7206 4.90729 46.9798 5.09249 46.1773C5.21596 45.6217 5.2777 44.4487 4.66035 41.9793C3.61086 37.3492 0.956266 21.9155 0.894531 21.7303C0.894531 21.6686 0.894533 21.5451 0.956267 21.5451C1.018 21.4834 1.07974 21.4834 1.2032 21.4834C1.32667 21.5451 14.044 25.4962 20.4644 22.2859C20.5262 22.2242 20.6496 22.2859 20.7114 22.2859C20.7731 22.3477 20.8348 22.4094 20.7731 22.5329L17.0073 41.0533L15.5257 45.1278C15.7109 45.3747 16.0195 45.9303 15.8961 46.5477C15.7726 47.0416 15.4639 47.412 14.9083 47.7206C14.044 48.2763 12.7476 48.3997 11.6364 48.3997ZM9.41392 47.7824C9.47565 47.7824 13.118 48.2763 14.6614 47.412C15.0935 47.165 15.3404 46.8564 15.4022 46.5477C15.5257 45.9303 15.0935 45.3747 15.0935 45.3747C15.0318 45.313 15.0318 45.2513 15.0318 45.1278L16.5751 40.9298L20.2175 22.8416C14.1058 25.5579 3.54912 22.6564 1.38841 21.9773C1.82055 24.3849 4.10473 37.5962 5.09249 41.8558C5.58637 43.9548 5.70984 45.4365 5.52463 46.3007C5.40116 46.8564 5.70984 47.412 6.20372 47.5972C7.50014 48.0293 9.35218 47.7824 9.41392 47.7824Z" fill="#F8F4F1"/>
<path d="M13.1797 22.2861C10.0313 22.2861 6.01852 21.8539 1.45015 20.3723L1.26495 20.3105V20.1253C1.26495 19.3228 0.956273 12.3468 1.69709 11.1738C2.2527 10.3095 2.19097 6.85238 2.0675 5.61769V5.18555L2.43791 5.24728C2.56138 5.24728 14.5996 7.96361 19.7854 6.04983L20.1558 5.92636L20.2175 6.29677C20.2792 6.66718 21.6374 15.6187 21.1435 18.0264C20.6496 20.3105 20.7731 20.9896 20.7731 20.9896L20.8348 21.2366L20.5879 21.2983C20.5262 21.36 17.7481 22.2861 13.1797 22.2861ZM1.8823 19.8167C11.6981 22.9651 18.7976 21.1748 20.1558 20.8044C20.1558 20.434 20.2175 19.5697 20.5879 17.9029C21.02 15.8657 19.9706 8.51922 19.7236 6.79065C14.7231 8.39575 4.90729 6.42024 2.74658 5.9881C2.80831 7.22279 2.87005 10.4947 2.2527 11.4825C1.82056 12.2233 1.75883 16.9151 1.8823 19.8167Z" fill="#F8F4F1"/>
<path d="M0.895376 21.7923C0.648437 21.2985 0.586703 20.9281 0.710172 20.4959C0.895376 19.9403 1.45099 19.7551 1.51272 19.6934L1.75966 20.249C1.75966 20.249 1.45099 20.3724 1.32752 20.6811C1.26578 20.8663 1.32752 21.1133 1.45099 21.4219L0.895376 21.7923Z" fill="#F8F4F1"/>
<path d="M20.7744 22.6567L20.3422 22.2246C20.4657 22.1011 20.5892 21.9159 20.5274 21.7924C20.5274 21.5455 20.2188 21.2986 20.2188 21.2986L20.5892 20.8047C20.6509 20.8664 21.083 21.2368 21.1448 21.7307C21.2065 21.9776 21.1448 22.2863 20.7744 22.6567Z" fill="#F8F4F1"/>
<path d="M2.37777 5.80306C2.31603 5.80306 1.51348 5.67959 1.26654 5.00051C1.0196 4.4449 1.20481 3.70408 1.88389 2.8398C1.94562 2.77806 2.00736 2.77806 2.06909 2.71633L3.42726 2.59286C3.42726 2.46939 3.48899 2.40765 3.55072 2.28418C4.41501 0.987756 10.0946 0.0617347 10.712 0C11.0206 0 16.8237 0.308674 19.1696 1.79031C19.4783 1.97551 19.7252 2.22245 19.9104 2.40765C20.4043 3.14847 20.5895 3.76582 20.4043 4.25969C20.1574 4.93878 19.4165 5.06225 19.3548 5.06225L12.7492 5.55612C12.6257 5.55612 6.02011 4.93878 3.98287 4.6301C3.30379 4.56837 2.87164 4.32143 2.80991 3.95102C2.74818 3.64235 2.87164 3.33367 3.11858 3.025L2.19256 3.14847C1.69869 3.82755 1.51348 4.38316 1.69868 4.75357C1.88389 5.18571 2.4395 5.24745 2.4395 5.30918L2.37777 5.80306ZM3.55072 3.2102C3.30379 3.45714 3.11858 3.70408 3.18032 3.88929C3.24205 4.07449 3.48899 4.19796 3.98287 4.25969C6.02011 4.50663 12.6257 5.12398 12.6875 5.18571L19.2313 4.69184C19.2313 4.69184 19.7869 4.56837 19.9104 4.13623C20.0339 3.82755 19.9104 3.33367 19.54 2.77806C19.54 2.77806 19.54 2.77806 19.54 2.8398C19.3548 3.64235 18.3053 4.07449 18.1818 4.13623H18.1201C17.5645 4.19796 12.3788 4.6301 11.8849 4.56837C11.391 4.50663 8.24256 4.01275 7.87215 3.95102C7.25481 4.01275 4.29154 4.38316 3.55072 3.2102ZM7.74869 3.51888C7.81042 3.51888 11.2676 4.07449 11.8232 4.13623C12.1936 4.13623 15.7125 3.88929 17.9966 3.70408C18.3053 3.58061 18.9844 3.2102 19.0461 2.71633C19.1079 2.53112 19.0461 2.34592 18.8609 2.16071C16.6385 0.802551 10.7737 0.493878 10.712 0.493878C9.04511 0.740816 4.53848 1.6051 3.92113 2.59286C3.8594 2.71633 3.8594 2.77806 3.8594 2.77806C4.10634 3.82755 6.82267 3.64235 7.74869 3.51888Z" fill="#F8F4F1"/>
<path d="M13.6734 2.40731C13.7351 2.83945 12.6239 3.08639 11.5744 3.14813C10.5249 3.20986 9.47541 2.77772 9.47541 2.28384C9.41367 1.8517 10.4014 1.60476 11.4509 1.48129C12.5621 1.41955 13.6734 1.97517 13.6734 2.40731Z" fill="#F8F4F1"/>
<path d="M7.19234 14.9395L6.9454 14.8778L6.88367 14.6309C6.88367 14.5691 6.88367 14.5691 6.82193 14.5691C6.82193 14.5691 6.69846 14.5691 6.63673 14.6309L6.45152 14.6926L6.26632 14.6309C5.03162 13.8901 2.56224 7.03751 2.06836 5.67935L2.62397 5.49414C3.67346 8.45741 5.58724 13.211 6.45152 14.0135C6.57499 13.9518 6.82193 13.9518 7.00713 14.0135C7.06887 14.0135 7.1306 14.0753 7.1306 14.137C7.68622 13.2727 9.16785 10.4947 10.4643 7.90179C10.4025 7.84006 10.3408 7.77832 10.2791 7.65486C10.1556 7.40792 10.2173 7.09924 10.3408 6.79057L10.8964 7.03751C10.8347 7.22271 10.8347 7.34618 10.8347 7.40792C10.8964 7.46965 10.9582 7.53139 10.9582 7.53139L11.2668 7.65486L11.1434 7.96353C7.93316 14.5074 7.43928 14.9395 7.19234 14.9395Z" fill="#F8F4F1"/>
<path d="M11.7592 8.39597C11.4506 8.39597 11.1419 8.2725 10.7715 8.02556L11.1419 7.53169C11.5123 7.77863 11.7592 7.84036 11.9444 7.77862C12.1296 7.65516 12.1914 7.28475 12.1914 7.03781L12.8087 6.97607C12.8087 7.09954 12.8705 7.96383 12.2531 8.2725C12.0679 8.39597 11.9444 8.39597 11.7592 8.39597Z" fill="#F8F4F1"/>
<path d="M5.958 15.6807C5.83453 15.6807 5.7728 15.619 5.71106 15.4955L2.19219 9.19855C2.13045 9.07508 2.19219 8.88988 2.31566 8.76641C2.43912 8.70467 2.62433 8.76641 2.7478 8.88988L5.83453 14.446C5.89627 14.3843 5.958 14.2608 6.01974 14.1991C6.14321 14.0756 6.39015 14.0139 6.57535 14.0139C6.76055 14.0139 6.88402 14.1991 6.82229 14.3843C6.82229 14.5695 6.63708 14.6929 6.45188 14.6312C6.39015 14.6312 6.39015 14.6312 6.39015 14.6312C6.26668 14.7547 6.26668 15.0633 6.26668 15.3103C6.26668 15.4338 6.20494 15.5572 6.01974 15.619C6.01974 15.6807 5.958 15.6807 5.958 15.6807Z" fill="#F8F4F1"/>
<path d="M7.0074 17.0391C6.94566 17.0391 6.94566 17.0391 6.88393 17.0391C6.14311 16.9156 5.71097 15.7426 5.64923 15.4957C5.5875 15.3105 5.71097 15.187 5.83444 15.1253C6.01964 15.0636 6.14311 15.187 6.20485 15.3105C6.32832 15.7426 6.69872 16.4217 6.94566 16.4835C7.06913 16.4835 7.25434 16.2983 7.31607 16.2365C7.56301 15.9278 7.62474 15.6809 7.56301 15.434C7.50127 15.187 7.13087 15.0018 7.0074 14.9401C6.82219 14.8784 6.76046 14.6932 6.82219 14.5697C6.88393 14.3845 7.06913 14.3227 7.1926 14.3845C7.1926 14.3845 7.93342 14.6314 8.11862 15.2488C8.24209 15.6809 8.11862 16.113 7.80995 16.6069C7.56301 16.9156 7.25434 17.0391 7.0074 17.0391Z" fill="#F8F4F1"/>
<path d="M7.93172 15.8655C7.74652 15.8655 7.62305 15.742 7.62305 15.5568C7.62305 15.3716 7.74652 15.2481 7.93172 15.2481C8.48733 15.0629 10.3394 11.2971 11.7593 7.90171C11.821 7.71651 12.0062 7.65478 12.1914 7.71651C12.3766 7.77824 12.4384 7.96345 12.3766 8.14865C11.0802 11.0502 8.91948 15.8655 7.93172 15.8655Z" fill="#F8F4F1"/>
<path d="M11.5758 21.4836C11.5141 21.4836 11.3906 21.4219 11.3289 21.3602L7.37785 16.5449C7.25438 16.4214 7.31611 16.2362 7.43958 16.1127C7.56305 15.9892 7.74826 16.051 7.87172 16.1744L11.8227 20.9898C11.9462 21.1132 11.8845 21.2984 11.761 21.4219C11.6993 21.4219 11.6375 21.4836 11.5758 21.4836Z" fill="#F8F4F1"/>
<path d="M10.2782 22.1628C10.1547 22.1628 10.0312 22.1011 9.96952 21.9776C9.84605 21.5455 7.93227 18.8292 6.57411 17.1006L2.9935 20.6812C2.87003 20.8047 2.68482 20.8047 2.56135 20.6812C2.43788 20.5577 2.43788 20.3725 2.56135 20.2491L6.3889 16.3598C6.45064 16.298 6.51237 16.2363 6.63584 16.298C6.69758 16.298 6.82105 16.3598 6.88278 16.4215C7.25319 16.9154 10.3399 21.0516 10.5869 21.7924C10.6486 21.9776 10.5251 22.1011 10.4017 22.1628C10.3399 22.1011 10.3399 22.1628 10.2782 22.1628Z" fill="#F8F4F1"/>
<path d="M1.57473 20.3721C1.45126 20.3721 1.32779 20.2486 1.26606 20.1251C1.20432 19.9399 1.32779 19.8165 1.513 19.7547C2.87116 19.3843 5.09361 16.6063 5.83443 15.5568C5.95789 15.4333 6.1431 15.3716 6.26657 15.495C6.39004 15.6185 6.45177 15.8037 6.3283 15.9272C6.20483 16.1124 3.55024 19.8782 1.63647 20.3721C1.63647 20.3721 1.63647 20.3721 1.57473 20.3721Z" fill="#F8F4F1"/>
<path d="M17.1312 14.5693C17.0695 14.5693 17.0078 14.5693 16.946 14.5075C14.2297 12.2233 12.8715 7.3463 12.8715 7.09936C12.8098 6.91415 12.9333 6.79068 13.1185 6.72895C13.3037 6.66721 13.4271 6.79069 13.4889 6.97589C13.4889 7.03762 14.7853 11.9147 17.3782 14.0754C17.5016 14.1988 17.5016 14.3841 17.4399 14.5075C17.3164 14.5693 17.193 14.5693 17.1312 14.5693Z" fill="#F8F4F1"/>
<path d="M17.008 16.9769C16.9463 16.9769 16.8846 16.9769 16.8846 16.9769C16.329 16.8535 16.1438 15.804 16.082 15.3718C14.23 13.9519 12.0693 8.27233 12.0075 8.02539C11.9458 7.84019 12.0075 7.71672 12.1927 7.65499C12.3779 7.59325 12.5014 7.65499 12.5631 7.84019C12.5631 7.90193 14.8473 13.8285 16.5759 15.0014C16.6376 15.0632 16.6994 15.1249 16.6994 15.2484C16.7611 15.8657 16.9463 16.4213 17.0698 16.483C17.0698 16.483 17.1932 16.483 17.4402 16.1126C17.5636 15.9892 17.7489 15.9274 17.8723 16.0509C17.9958 16.1744 18.0575 16.3596 17.9341 16.483C17.7489 16.483 17.4402 16.9769 17.008 16.9769Z" fill="#F8F4F1"/>
<path d="M20.4039 19.6933C18.9223 19.6933 17.5024 16.6683 17.3171 16.2979C17.2554 16.1744 17.2554 16.1127 17.3171 15.9892C17.5024 15.6805 17.5641 15.3718 17.5024 15.1866C17.4406 14.878 17.1319 14.6928 17.0085 14.631C16.885 14.631 16.6381 14.7545 16.5763 15.1866C16.5763 15.3718 16.4529 15.4953 16.2677 15.4953C16.0825 15.4953 15.959 15.3718 15.959 15.1866C15.959 14.8162 16.0825 14.5075 16.3294 14.3223C16.6381 14.0137 17.0702 14.0137 17.0702 14.0137C17.1319 14.0137 17.1319 14.0137 17.1937 14.0137C17.1937 14.0137 17.9345 14.3223 18.1197 15.0014C18.2432 15.3718 18.1814 15.804 17.9345 16.1744C18.4901 17.4091 19.6631 19.1994 20.4656 19.0759C20.6508 19.0759 20.7743 19.1994 20.836 19.3229C20.836 19.5081 20.7126 19.6315 20.5891 19.6933C20.5273 19.6933 20.4656 19.6933 20.4039 19.6933Z" fill="#F8F4F1"/>
<path d="M17.8718 15.8044C17.7483 15.8044 17.6865 15.7426 17.6248 15.6809C17.5631 15.5574 17.5631 15.3722 17.7483 15.2488C18.736 14.6932 19.8473 11.236 20.1559 10.0013C20.2177 9.81612 20.3411 9.75438 20.5263 9.81612C20.7115 9.87785 20.7733 10.0013 20.7115 10.1865C20.5881 10.6804 19.3534 15.0018 17.9952 15.8044C17.9952 15.8044 17.9335 15.8044 17.8718 15.8044Z" fill="#F8F4F1"/>
<path d="M12.7487 21.2369C12.6252 21.2369 12.5635 21.1752 12.5018 21.1134C12.44 20.99 12.44 20.8048 12.6252 20.6813C12.9339 20.4961 14.6625 17.965 16.2058 15.6808C16.3293 15.5573 16.5145 15.4956 16.638 15.6191C16.7615 15.7425 16.8232 15.9277 16.6997 16.0512C15.9589 17.2242 13.4895 20.9282 12.9339 21.2369C12.8722 21.2369 12.8104 21.2369 12.7487 21.2369Z" fill="#F8F4F1"/>
<path d="M11.2657 22.2245C11.0188 22.1628 10.957 22.0393 10.957 21.8541C11.0188 21.422 11.3274 20.6811 12.0065 20.6194C12.6856 20.5577 13.2412 20.8046 13.5499 21.2368L16.9453 16.298C17.0688 16.1745 17.254 16.1128 17.3774 16.2362C17.5009 16.3597 17.5626 16.5449 17.4392 16.6684L13.7351 22.0393C13.6734 22.1628 13.5499 22.1628 13.4264 22.1628C13.3029 22.1628 13.2412 22.0393 13.1795 21.9158C13.056 21.422 12.6239 21.175 12.0065 21.2368C11.6361 21.2368 11.5126 21.9158 11.5126 21.9158C11.5744 22.101 11.4509 22.2245 11.2657 22.2245Z" fill="#F8F4F1"/>
<path d="M20.8969 20.0021C20.5265 20.0021 20.3413 19.7551 20.2795 19.6934C20.1561 19.5699 20.2178 19.3847 20.3413 19.2612C20.4647 19.1378 20.6499 19.1995 20.7734 19.323C20.7734 19.3847 20.8351 19.3847 20.8969 19.3847C20.8969 19.3847 21.0203 19.323 21.0821 19.1378C21.2055 18.9526 21.1438 18.8908 21.1438 18.8291C21.0821 18.7056 20.8969 18.5822 20.7734 18.5822C19.5387 18.7056 18.1188 16.051 17.8719 15.4954C17.8101 15.372 17.8719 15.1868 17.9953 15.0633C18.1188 15.0015 18.304 15.0633 18.4275 15.1868C19.0448 16.3597 20.1561 18.0883 20.7734 17.9031C20.8351 17.9031 20.8969 17.9031 20.9586 17.9031C21.0203 17.9031 21.576 18.0883 21.7612 18.5822C21.8229 18.7674 21.8846 19.0143 21.6994 19.3847C21.4525 19.8169 21.2055 20.0021 20.8969 20.0021Z" fill="#F8F4F1"/>
<path d="M2.19141 7.47011C2.12968 7.47011 2.00621 7.47011 1.88274 7.40838C1.6358 7.34664 1.14192 7.09971 1.08019 6.35889C1.01845 5.92675 1.14192 5.61807 1.38886 5.37113C1.75927 5.1242 2.19141 5.24766 2.19141 5.24766C2.37662 5.3094 2.43835 5.4946 2.37662 5.61807C2.31488 5.80328 2.12968 5.86501 2.00621 5.80328C1.94447 5.80328 1.821 5.74154 1.75927 5.80328C1.69753 5.86501 1.6358 5.98848 1.69753 6.23542C1.69753 6.60583 1.88274 6.66756 2.00621 6.7293C2.19141 6.79103 2.37662 6.7293 2.37662 6.7293C2.56182 6.66756 2.68529 6.79103 2.74702 6.9145C2.80876 7.09971 2.68529 7.22318 2.56182 7.28491C2.56182 7.40838 2.37662 7.47011 2.19141 7.47011Z" fill="#F8F4F1"/>
<path d="M2.13007 8.64284C1.94487 8.64284 1.75966 8.64285 1.57446 8.45764C1.45099 8.33417 1.32752 8.2107 1.26578 8.0255C1.20405 7.90203 1.08058 7.53162 1.26578 7.22295C1.32752 7.09948 1.51272 6.91427 1.8214 6.85254C2.0066 6.85254 2.13007 6.97601 2.13007 7.09948C2.13007 7.28468 2.0066 7.40815 1.88313 7.40815C1.8214 7.40815 1.75966 7.40815 1.75966 7.40815C1.75966 7.46989 1.75966 7.59336 1.8214 7.71682V7.77856C1.8214 7.84029 1.8214 7.84029 1.88313 7.84029C1.94487 7.90203 2.13007 7.90203 2.19181 7.90203C2.37701 7.84029 2.50048 7.96376 2.56221 8.14897C2.62395 8.33417 2.50048 8.45764 2.31527 8.51938C2.31527 8.64285 2.25354 8.64284 2.13007 8.64284Z" fill="#F8F4F1"/>
<path d="M0.771683 11.4825C0.586479 11.4825 0.339541 11.4207 0.092602 11.112C-0.0308673 10.9886 -0.0308673 10.8034 0.092602 10.6799C0.216071 10.5564 0.401276 10.5564 0.524745 10.6799C0.648215 10.8034 0.771684 10.8651 0.833419 10.8651C1.14209 10.7416 1.38903 9.63041 1.45077 8.64266C1.45077 8.45745 1.63597 8.33398 1.75944 8.33398C1.94464 8.33398 2.06811 8.51919 2.06811 8.64266C2.00638 9.19827 1.88291 11.112 1.08036 11.4207C0.956887 11.4207 0.895152 11.4825 0.771683 11.4825Z" fill="#F8F4F1"/>
<path d="M0.400853 9.69227C0.339118 9.69227 0.277384 9.69227 0.215649 9.63053C0.0921795 9.50706 0.0921795 9.32186 0.215649 9.19839L1.38861 7.9637C1.51208 7.84023 1.69728 7.84023 1.82075 7.9637C1.94422 8.08717 1.94422 8.27237 1.82075 8.39584L0.647792 9.63053C0.586058 9.69227 0.462587 9.69227 0.400853 9.69227Z" fill="#F8F4F1"/>
<path d="M19.8474 6.79075C19.7856 6.79075 19.6621 6.72901 19.6004 6.66728C19.4769 6.54381 19.4769 6.3586 19.6004 6.23513L20.5264 5.37085C21.329 4.87697 21.2673 4.81524 21.1438 4.50656C21.0203 4.25962 20.8968 4.01269 20.8968 3.58054C20.8968 3.39534 20.8351 3.3336 20.8351 3.3336C20.6499 3.21013 20.2178 3.27187 20.0326 3.3336C19.8474 3.39534 19.7239 3.3336 19.6621 3.1484C19.6004 2.96319 19.6622 2.83973 19.8474 2.77799C19.9091 2.71626 20.7116 2.46932 21.2055 2.83973C21.3907 2.96319 21.5759 3.21013 21.5142 3.64228C21.5142 3.88921 21.5759 4.07442 21.6994 4.25962C22.0081 4.87697 22.0081 5.24738 20.8968 5.92646L19.9708 6.72901C20.0326 6.79075 19.9708 6.79075 19.8474 6.79075Z" fill="#F8F4F1"/>
<path d="M17.3157 14.6925C17.2539 14.6925 17.2539 14.6925 17.1922 14.6925C17.0687 14.6308 16.9453 14.4456 17.0687 14.2604L20.032 8.21041C20.032 8.14867 20.0937 8.08694 20.1555 8.08694C20.1555 8.08694 20.3407 7.96347 20.7728 7.84C20.6493 7.65479 20.3407 7.34612 19.9702 7.03745C19.8468 6.97571 19.785 6.85224 19.7233 6.85224C19.5998 6.72877 19.5998 6.54357 19.7233 6.4201C19.8468 6.29663 20.032 6.29663 20.1555 6.35837C20.2172 6.4201 20.3407 6.48183 20.4024 6.54357C20.6493 6.72877 20.8963 6.85224 20.958 6.85224C21.0197 6.66704 20.958 6.29663 20.8963 6.2349C20.8963 6.2349 20.8345 6.2349 20.7728 6.2349C20.5876 6.29663 20.4641 6.17316 20.4024 5.98796C20.3407 5.80275 20.4641 5.67928 20.6493 5.61755C21.0197 5.49408 21.2667 5.61755 21.3901 5.74102C21.7606 6.11143 21.6371 6.79051 21.5754 6.97571C21.5136 7.16092 21.3902 7.34612 21.2667 7.40785C21.4519 7.65479 21.5136 7.84 21.5136 8.0252C21.5136 8.21041 21.3901 8.33388 21.2049 8.39561C20.8963 8.51908 20.7111 8.58081 20.6493 8.64255L17.7478 14.6308C17.5009 14.6308 17.3774 14.6925 17.3157 14.6925Z" fill="#F8F4F1"/>
<path d="M11.5128 46.733C10.0929 46.733 8.24089 46.4243 5.83324 45.4366C5.70977 45.3748 5.64803 45.2514 5.70977 45.1279C5.7715 45.0044 5.89497 44.9427 6.01844 45.0044C12.8093 47.7825 15.0317 45.1279 15.0934 45.0662C15.1552 44.9427 15.3404 44.9427 15.4021 45.0044C15.5256 45.0662 15.5256 45.2514 15.4638 45.3131C15.4021 45.4366 14.2909 46.733 11.5128 46.733Z" fill="#F8F4F1"/>
</svg>
