<svg width="22" height="48" viewBox="0 0 22 48" fill="none" xmlns="http://www.w3.org/2000/svg">
<path d="M5.00122 41.6165C4.01913 37.3198 1.68665 23.7546 1.31836 21.729C3.09841 22.2201 14.147 25.3505 20.2237 22.527L16.5409 40.6344L15.0063 44.8083C15.0063 44.8697 15.0063 44.931 15.0063 44.931C15.0063 44.931 15.4974 45.5449 15.3746 46.1587C15.3132 46.527 15.0677 46.8339 14.5767 47.0794C12.9808 47.9387 9.35928 47.5091 9.35928 47.5091C9.35928 47.5091 7.51785 47.816 6.16747 47.3249C5.61504 47.1408 5.30813 46.527 5.43089 45.9745C5.61504 45.1766 5.49227 43.7034 5.00122 41.6165Z" fill="#F8F4F1"/>
<path d="M14.6406 47.1407C15.0702 46.8952 15.3771 46.5883 15.4385 46.22C15.5613 45.6062 15.0702 44.9924 15.0702 44.9924C15.0088 44.931 15.0088 44.8696 15.0702 44.8696L16.6047 40.6957L20.2876 22.5883C14.2109 25.3504 3.10091 22.2814 1.32086 21.7289C1.68915 23.6931 4.02163 37.3197 5.00373 41.6164C5.49477 43.7034 5.61754 45.1765 5.43339 45.9744C5.31063 46.5269 5.61754 47.1407 6.16997 47.3248C7.45897 47.8159 9.3004 47.509 9.36178 47.509C9.42316 47.5704 13.0446 48.0614 14.6406 47.1407ZM20.4718 22.2814L16.7275 40.6957L15.193 44.8696C15.193 44.8696 16.3592 46.3427 14.7019 47.2635C13.0446 48.1842 9.36178 47.6931 9.36178 47.6931C9.36178 47.6931 7.45897 48 6.10858 47.4476C5.49477 47.2021 5.12649 46.5269 5.24925 45.9131C5.37201 45.2993 5.43339 44.133 4.81958 41.6164C3.83749 36.9514 1.13672 21.4834 1.13672 21.4834C1.13672 21.4834 13.9654 25.5959 20.4718 22.2814Z" fill="#F8F4F1"/>
<path d="M14.7005 47.2634C16.3578 46.3427 15.1916 44.8696 15.1916 44.8696L16.7261 40.6957L20.4704 22.2813C13.964 25.5959 1.13531 21.4834 1.13531 21.4834C1.13531 21.4834 3.7747 36.9514 4.87956 41.6164C5.43199 44.133 5.43199 45.3606 5.30923 45.9131C5.18646 46.5883 5.49337 47.2021 6.16856 47.4476C7.51895 47.9386 9.42176 47.6931 9.42176 47.6931C9.42176 47.6931 13.0432 48.2455 14.7005 47.2634ZM5.12508 45.9131C5.24785 45.3606 5.30923 44.1944 4.69542 41.6778C3.65194 37.0742 1.01255 21.7289 0.951172 21.5448C0.951172 21.4834 0.951171 21.422 1.01255 21.422C1.07393 21.3606 1.07393 21.3606 1.13531 21.422C1.25808 21.4834 13.964 25.4118 20.3476 22.22C20.409 22.22 20.4704 22.22 20.5317 22.22C20.5931 22.2813 20.5931 22.3427 20.5931 22.3427L16.8489 40.757L15.3143 44.8696C15.4371 45.0537 15.8054 45.6675 15.6826 46.2813C15.5599 46.7724 15.253 47.1407 14.7619 47.4476C13.964 47.9386 12.675 48 11.5701 48C10.4652 48 9.54452 47.8773 9.36038 47.8773C9.11485 47.9386 7.39618 48.1228 6.0458 47.6317C5.43199 47.3862 5.0637 46.8338 5.0637 46.22C5.12508 46.0972 5.12508 46.0358 5.12508 45.9131Z" fill="#F8F4F1"/>
<path d="M13.1044 22.0973C9.974 22.0973 5.98423 21.6676 1.44203 20.1945L1.31927 20.1331V19.9489C1.31927 19.151 1.01236 12.2149 1.74894 11.0487C2.30137 10.1894 2.23999 6.75202 2.11722 5.52439V5.09473L2.48551 5.15611C2.60827 5.15611 14.5776 7.85688 19.7336 5.95406L20.1019 5.8313L20.1633 6.19959C20.2246 6.56787 21.575 15.4681 21.084 17.862C20.5929 20.1331 20.7157 20.8083 20.7157 20.8083L20.7771 21.0538L20.5315 21.1152C20.4088 21.1766 17.6466 22.0973 13.1044 22.0973ZM1.8717 19.7034C11.6313 22.8339 18.6901 21.0538 20.0405 20.6855C20.0405 20.3172 20.1019 19.4579 20.4702 17.8006C20.8998 15.775 19.8564 8.47069 19.6108 6.75202C14.639 8.34792 4.87937 6.38373 2.73103 5.95406C2.79241 7.18168 2.8538 10.4349 2.23999 11.417C1.81032 12.0922 1.81032 16.7571 1.8717 19.7034Z" fill="#F8F4F1"/>
<path d="M0.890055 21.6675C0.644531 21.1765 0.58315 20.8082 0.705912 20.3785C0.890056 19.8261 1.44248 19.6419 1.50387 19.5806L1.74939 20.133C1.74939 20.133 1.44249 20.2558 1.31972 20.5627C1.25834 20.7468 1.31972 20.9923 1.44249 21.2992L0.890055 21.6675Z" fill="#F8F4F1"/>
<path d="M20.654 22.4655L20.2243 22.0358C20.3471 21.913 20.4698 21.7289 20.4085 21.6061C20.4085 21.3606 20.1629 21.1765 20.1016 21.1151L20.4698 20.624C20.5312 20.6854 20.9609 21.0537 21.0223 21.5447C21.0837 21.7903 21.0223 22.1586 20.654 22.4655Z" fill="#F8F4F1"/>
<path d="M2.36299 5.70844C2.30161 5.70844 1.50366 5.58568 1.25813 4.91049C1.01261 4.35806 1.19675 3.62148 1.87194 2.76215C1.93332 2.70077 1.9947 2.70077 2.05609 2.63939L3.40647 2.51662C3.40647 2.39386 3.46785 2.33248 3.52923 2.20972C4.38856 0.982098 9.97424 0.0613811 10.6494 0C10.9563 0 16.7262 0.306905 19.0586 1.78005C19.3655 1.96419 19.6111 2.20972 19.7952 2.39386C20.2863 3.13043 20.4704 3.74425 20.2863 4.23529C20.0407 4.91049 19.3042 5.03325 19.2428 5.03325L12.6136 5.5243C12.4909 5.5243 5.92309 4.91049 3.89752 4.60358C3.22233 4.5422 2.79266 4.29668 2.73128 3.92839C2.6699 3.62148 2.79266 3.31458 3.03818 3.00767L2.24023 3.06905C1.74918 3.74425 1.56504 4.29668 1.74918 4.66496C1.93332 5.09463 2.48575 5.21739 2.48575 5.21739L2.36299 5.70844ZM3.52923 3.19182C3.28371 3.43734 3.09956 3.68286 3.16094 3.86701C3.22233 4.05115 3.46785 4.17391 3.9589 4.17391C5.98447 4.41944 12.5522 5.03325 12.6136 5.09463L19.12 4.5422C19.12 4.5422 19.6725 4.41944 19.7952 3.98977C19.918 3.68286 19.7952 3.19182 19.4269 2.63939C19.4269 2.63939 19.4269 2.63939 19.4269 2.70077C19.2428 3.49872 18.1993 3.92839 18.0765 3.98977H18.0152C17.4627 4.05115 12.3067 4.48082 11.8157 4.41944C11.3246 4.35806 8.19419 3.86701 7.8259 3.80563C7.21209 3.98977 4.2658 4.35806 3.52923 3.19182ZM7.70314 3.43734C7.76453 3.43734 7.76453 3.43734 7.70314 3.43734C7.76453 3.43734 11.2019 3.98977 11.7543 4.05115C12.1226 4.11253 15.6213 3.80563 17.8924 3.62148C18.1993 3.49872 18.8745 3.13043 18.9359 2.63939C18.9973 2.45524 18.9359 2.2711 18.7517 2.08696C16.542 0.736573 10.7108 0.429667 10.6494 0.429667C8.99215 0.675192 4.51133 1.53453 3.89752 2.51662C3.83614 2.63939 3.83614 2.70077 3.83614 2.70077C4.08166 3.74425 6.78243 3.62148 7.70314 3.43734Z" fill="#F8F4F1"/>
<path d="M13.6571 2.3937C13.7185 2.82337 12.6136 3.0689 11.5702 3.13028C10.5267 3.19166 9.4832 2.76199 9.4832 2.27094C9.42182 1.84127 10.4039 1.59575 11.4474 1.47299C12.4909 1.41161 13.5957 1.90265 13.6571 2.3937Z" fill="#F8F4F1"/>
<path d="M7.15127 14.7928L6.90574 14.7314L6.84436 14.5473C6.84436 14.4859 6.84436 14.4859 6.78298 14.4859C6.78298 14.4859 6.66022 14.4859 6.59884 14.5473L6.4147 14.6087L6.23055 14.5473C5.00293 13.8107 2.54769 6.99742 2.05664 5.64703L2.60907 5.46289C3.65255 8.40918 5.55536 13.1355 6.4147 13.9335C6.53746 13.8721 6.78298 13.8721 6.96713 13.9335C7.02851 13.9335 7.08989 13.9949 7.08989 14.0562C7.64232 13.1969 9.11546 10.4348 10.4045 7.85675C10.3431 7.79537 10.2817 7.73399 10.2203 7.61123C10.0976 7.3657 10.1589 7.0588 10.2817 6.75189L10.8341 6.99742C10.7728 7.18156 10.7728 7.30432 10.7728 7.3657C10.8341 7.42709 10.8955 7.48847 10.8955 7.48847L11.2024 7.61123L11.141 7.85675C7.88784 14.3631 7.39679 14.7928 7.15127 14.7928Z" fill="#F8F4F1"/>
<path d="M11.693 8.3478C11.3861 8.3478 11.0792 8.22504 10.7109 7.97951L11.0792 7.48847C11.4475 7.73399 11.693 7.79537 11.8772 7.73399C12.0613 7.61123 12.1227 7.24294 12.1227 6.99742L12.7365 6.93604C12.7365 7.0588 12.7979 7.91813 12.1841 8.22504C11.9999 8.28642 11.8772 8.3478 11.693 8.3478Z" fill="#F8F4F1"/>
<path d="M5.92457 15.5296C5.80181 15.5296 5.74043 15.4682 5.67905 15.3455L2.18033 9.08461C2.11895 8.96184 2.18033 8.7777 2.30309 8.65494C2.42585 8.59356 2.61 8.65494 2.73276 8.7777L5.80181 14.302C5.86319 14.2406 5.92457 14.1179 5.98595 14.0565C6.10872 13.9337 6.35424 13.8723 6.53839 13.8723C6.72253 13.8723 6.84529 14.0565 6.78391 14.2406C6.78391 14.4248 6.59977 14.5475 6.41562 14.4861C6.35424 14.4861 6.35424 14.4861 6.35424 14.4861C6.23148 14.6703 6.23148 15.0386 6.23148 15.2227C6.23148 15.3455 6.1701 15.4682 5.98595 15.5296H5.92457Z" fill="#F8F4F1"/>
<path d="M6.96632 16.88C6.90494 16.88 6.90494 16.88 6.84356 16.88C6.10698 16.7573 5.67732 15.591 5.61594 15.3455C5.55455 15.1614 5.67732 15.0386 5.80008 14.9772C5.98422 14.9158 6.10699 15.0386 6.16837 15.1614C6.29113 15.591 6.65941 16.2662 6.90494 16.3276C7.0277 16.3276 7.21184 16.1435 7.27323 16.0821C7.51875 15.7752 7.58013 15.5297 7.51875 15.2841C7.45737 15.0386 7.08908 14.8545 6.96632 14.7931C6.84356 14.7317 6.78218 14.5476 6.84356 14.3634C6.90494 14.1793 7.08908 14.1179 7.21184 14.1793C7.21184 14.1793 7.94842 14.4248 8.13256 15.0386C8.25532 15.4683 8.13256 15.8979 7.82565 16.389C7.51875 16.8187 7.21184 16.88 6.96632 16.88Z" fill="#F8F4F1"/>
<path d="M7.88698 15.7747C7.70284 15.7747 7.58008 15.652 7.58008 15.4678C7.58008 15.2837 7.70284 15.1609 7.88698 15.1609C8.43941 14.9768 10.2808 11.2325 11.6926 7.85657C11.754 7.67243 11.9381 7.61105 12.1223 7.67243C12.3064 7.73381 12.3678 7.91796 12.3064 8.1021C11.0788 10.987 8.86908 15.7747 7.88698 15.7747Z" fill="#F8F4F1"/>
<path d="M11.5104 21.2992C11.449 21.2992 11.3262 21.2378 11.2648 21.1764L7.33645 16.3887C7.21368 16.2659 7.27507 16.0818 7.39783 15.959C7.52059 15.8362 7.70473 15.8976 7.82749 16.0204L11.7559 20.8081C11.8786 20.9309 11.8173 21.115 11.6945 21.2378C11.6331 21.2992 11.5717 21.2992 11.5104 21.2992Z" fill="#F8F4F1"/>
<path d="M10.2198 21.9743C10.097 21.9743 9.97426 21.9129 9.91288 21.7902C9.79012 21.3605 7.8873 18.6597 6.53692 16.9411L2.97682 20.5012C2.85406 20.6239 2.66991 20.6239 2.54715 20.5012C2.42439 20.3784 2.42439 20.1943 2.54715 20.0715L6.35278 16.2045C6.41416 16.1431 6.47554 16.0817 6.5983 16.1431C6.65968 16.1431 6.78244 16.2045 6.84382 16.2659C7.21211 16.7569 10.2812 20.8694 10.5267 21.606C10.5881 21.7902 10.4653 21.9129 10.3425 21.9743C10.2812 21.9743 10.2812 21.9743 10.2198 21.9743Z" fill="#F8F4F1"/>
<path d="M1.56506 20.1943C1.4423 20.1943 1.31954 20.0716 1.25815 19.9488C1.19677 19.7647 1.31953 19.6419 1.50368 19.5805C2.85406 19.2122 5.06378 16.4501 5.80035 15.4066C5.92311 15.2839 6.10726 15.2225 6.23002 15.3452C6.35278 15.468 6.41416 15.6521 6.2914 15.7749C6.16864 15.959 3.52925 19.7033 1.62644 20.1943C1.62644 20.1943 1.62644 20.1943 1.56506 20.1943Z" fill="#F8F4F1"/>
<path d="M17.0325 14.4862C16.9711 14.4862 16.9097 14.4862 16.8484 14.4248C14.1476 12.1537 12.7972 7.30458 12.7972 7.05906C12.7358 6.87492 12.8586 6.75215 13.0427 6.69077C13.2269 6.62939 13.3496 6.75215 13.411 6.9363C13.411 6.99768 14.7 11.8468 17.278 13.9951C17.4008 14.1179 17.4008 14.302 17.3394 14.4248C17.2167 14.4248 17.0939 14.4862 17.0325 14.4862Z" fill="#F8F4F1"/>
<path d="M16.9109 16.8184C16.8495 16.8184 16.7881 16.8184 16.7881 16.8184C16.2357 16.6957 16.0516 15.6522 15.9902 15.2225C14.1488 13.8107 12.0004 8.16368 11.939 7.91816C11.8777 7.73402 11.939 7.61125 12.1232 7.54987C12.3073 7.48849 12.4301 7.54987 12.4915 7.73402C12.4915 7.7954 14.7626 13.688 16.4812 14.8542C16.5426 14.9156 16.604 14.977 16.604 15.0997C16.6654 15.7136 16.8495 16.266 16.9723 16.3274C16.9723 16.3274 17.095 16.3274 17.3406 15.9591C17.4633 15.8363 17.6475 15.7749 17.7702 15.8977C17.893 16.0205 17.9544 16.2046 17.8316 16.3274C17.6475 16.3887 17.3406 16.8184 16.9109 16.8184Z" fill="#F8F4F1"/>
<path d="M20.2866 19.5191C18.8135 19.5191 17.4017 16.5115 17.2176 16.1432C17.1562 16.0204 17.1562 15.959 17.2176 15.8363C17.4017 15.5294 17.4631 15.2225 17.4017 15.0383C17.3403 14.7314 17.0334 14.5473 16.9107 14.4859C16.7879 14.4859 16.5424 14.6086 16.481 15.0383C16.481 15.2225 16.3582 15.3452 16.1741 15.3452C15.9899 15.3452 15.8672 15.2225 15.8672 15.0383C15.8672 14.67 15.9899 14.3631 16.2355 14.179C16.5424 13.8721 16.972 13.8721 16.972 13.8721C17.0334 13.8721 17.0334 13.8721 17.0948 13.8721C17.0948 13.8721 17.8314 14.179 18.0155 14.8542C18.1383 15.2225 18.0769 15.6521 17.8314 16.0204C18.3838 17.248 19.5501 19.0281 20.348 18.9053C20.5321 18.9053 20.6549 19.0281 20.7163 19.1508C20.7163 19.335 20.5935 19.4577 20.4708 19.5191C20.4094 19.5191 20.348 19.5191 20.2866 19.5191Z" fill="#F8F4F1"/>
<path d="M17.7705 15.7133C17.6478 15.7133 17.5864 15.6519 17.525 15.5905C17.4636 15.4678 17.4636 15.2836 17.6478 15.1609C18.5685 14.6085 19.7347 11.1711 20.0416 9.94349C20.103 9.75935 20.2258 9.69796 20.4099 9.75935C20.594 9.82073 20.6554 9.94349 20.594 10.1276C20.4713 10.6187 19.2437 14.9154 17.8933 15.7133C17.8933 15.7133 17.8319 15.7133 17.7705 15.7133Z" fill="#F8F4F1"/>
<path d="M12.6748 21.054C12.5521 21.054 12.4907 20.9926 12.4293 20.9312C12.3679 20.8084 12.3679 20.6243 12.5521 20.5015C12.859 20.3174 14.5776 17.8008 16.1122 15.5297C16.2349 15.4069 16.4191 15.3455 16.5418 15.4683C16.6646 15.591 16.726 15.7752 16.6032 15.898C15.8666 17.0642 13.35 20.7471 12.859 21.054C12.7976 21.054 12.7362 21.054 12.6748 21.054Z" fill="#F8F4F1"/>
<path d="M11.2014 22.0971C10.9559 22.0357 10.8945 21.9129 10.8945 21.7288C10.9559 21.2991 11.2628 20.5625 11.938 20.5011C12.6132 20.4398 13.1656 20.6853 13.4725 21.115L16.8485 16.2045C16.9713 16.0817 17.1554 16.0203 17.2782 16.1431C17.4009 16.2658 17.4623 16.45 17.3395 16.5728L13.6567 21.9129C13.5953 22.0357 13.4725 22.0357 13.3498 22.0357C13.227 22.0357 13.1656 21.9129 13.1043 21.7901C12.9815 21.2991 12.5518 21.0536 11.938 21.115C11.5697 21.115 11.447 21.7901 11.447 21.7901C11.5083 21.9743 11.3856 22.0971 11.2014 22.0971Z" fill="#F8F4F1"/>
<path d="M20.7778 19.8876C20.4096 19.8876 20.2254 19.642 20.164 19.5806C20.0413 19.4579 20.1027 19.2737 20.2254 19.151C20.3482 19.0282 20.5323 19.0896 20.6551 19.2124C20.6551 19.2737 20.7165 19.2737 20.7778 19.2737C20.7778 19.2737 20.9006 19.2124 20.962 19.0282C21.0847 18.8441 21.0234 18.7827 21.0234 18.7213C20.962 18.5985 20.7778 18.4758 20.6551 18.4144C19.3661 18.5372 18.0157 15.8978 17.7702 15.3453C17.7088 15.2226 17.7702 15.0384 17.8929 14.9157C18.0157 14.8543 18.1998 14.9157 18.3226 15.0384C18.9364 16.2047 20.0413 17.9234 20.6551 17.7392C20.7165 17.7392 20.7778 17.7392 20.8392 17.7392C20.9006 17.7392 21.453 17.9234 21.6372 18.4144C21.6986 18.5985 21.7599 18.8441 21.5758 19.2124C21.3303 19.642 21.0847 19.8262 20.7778 19.8876Z" fill="#F8F4F1"/>
<path d="M2.1791 7.3659C2.11772 7.3659 1.99495 7.3659 1.87219 7.30452C1.62667 7.24314 1.13562 6.99761 1.07424 6.26104C1.01285 5.83137 1.13562 5.52447 1.38114 5.27894C1.74943 5.03342 2.1791 5.15618 2.1791 5.15618C2.36324 5.21756 2.42462 5.4017 2.36324 5.52447C2.30186 5.70861 2.11771 5.76999 1.99495 5.70861C1.93357 5.70861 1.81081 5.64723 1.74943 5.70861C1.68805 5.76999 1.62667 5.89275 1.68805 6.13828C1.68805 6.50656 1.87219 6.56794 1.99495 6.62932C2.1791 6.69071 2.30186 6.62932 2.36324 6.62932C2.54738 6.56794 2.67014 6.69071 2.73153 6.81347C2.79291 6.99761 2.67014 7.12037 2.54738 7.18175C2.54738 7.3659 2.36324 7.3659 2.1791 7.3659Z" fill="#F8F4F1"/>
<path d="M2.11675 8.532C1.9326 8.532 1.74846 8.532 1.56432 8.34786C1.44156 8.2251 1.31879 8.10234 1.25741 7.91819C1.19603 7.79543 1.07327 7.42715 1.25741 7.12024C1.31879 6.99748 1.50293 6.81333 1.80984 6.75195C1.99398 6.75195 2.11675 6.87472 2.11675 6.99748C2.11675 7.18162 1.99398 7.30438 1.87122 7.30438C1.80984 7.30438 1.74846 7.30438 1.74846 7.30438C1.74846 7.36576 1.74846 7.48853 1.80984 7.61129V7.67267C1.80984 7.73405 1.80984 7.73405 1.87122 7.73405C1.9326 7.79543 2.11675 7.79543 2.17813 7.79543C2.36227 7.79543 2.48503 7.85681 2.54641 8.04096C2.60779 8.2251 2.48503 8.34786 2.30089 8.40924C2.30089 8.532 2.23951 8.532 2.11675 8.532Z" fill="#F8F4F1"/>
<path d="M0.767263 11.3555C0.583119 11.3555 0.337596 11.2942 0.0920716 10.9872C-0.0306905 10.8645 -0.0306905 10.6803 0.0920716 10.5576C0.214834 10.4348 0.398977 10.4348 0.52174 10.5576C0.644502 10.6803 0.767264 10.7417 0.828645 10.7417C1.13555 10.619 1.38107 9.5141 1.44246 8.532C1.44246 8.34786 1.6266 8.2251 1.74936 8.2251C1.9335 8.2251 2.05627 8.40924 2.05627 8.532C1.99489 9.08443 1.87212 10.9872 1.07417 11.2942C0.951406 11.3555 0.890025 11.3555 0.767263 11.3555Z" fill="#F8F4F1"/>
<path d="M0.399261 9.63691C0.33788 9.63691 0.2765 9.63691 0.215118 9.57553C0.0923563 9.45277 0.0923563 9.26863 0.215118 9.14587L1.38136 7.91824C1.50412 7.79548 1.68826 7.79548 1.81103 7.91824C1.93379 8.04101 1.93379 8.22515 1.81103 8.34791L0.644786 9.57553C0.583405 9.57553 0.460642 9.63691 0.399261 9.63691Z" fill="#F8F4F1"/>
<path d="M19.7946 6.75183C19.7332 6.75183 19.6105 6.69045 19.5491 6.62907C19.4263 6.50631 19.4263 6.32217 19.5491 6.1994L20.4698 5.34007C21.2678 4.84902 21.2064 4.78764 21.0836 4.48073C20.9609 4.23521 20.8381 3.98969 20.8381 3.56002C20.8381 3.37588 20.7767 3.31449 20.7767 3.31449C20.5926 3.19173 20.1629 3.25311 19.9788 3.31449C19.7946 3.37587 19.6719 3.31449 19.6105 3.13035C19.5491 2.94621 19.6105 2.82345 19.7946 2.76206C19.856 2.70068 20.654 2.45516 21.145 2.82345C21.3292 2.94621 21.5133 3.19173 21.4519 3.6214C21.4519 3.86692 21.5133 4.05107 21.6361 4.23521C21.943 4.84902 21.943 5.21731 20.8381 5.8925L19.9174 6.69045C19.9174 6.75183 19.856 6.75183 19.7946 6.75183Z" fill="#F8F4F1"/>
<path d="M17.2163 14.5475C17.1549 14.5475 17.1549 14.5475 17.0935 14.5475C16.9708 14.4861 16.848 14.302 16.9708 14.1178L19.9171 8.10249C19.9171 8.04111 19.9784 7.97973 20.0398 7.97973C20.0398 7.97973 20.224 7.85696 20.6536 7.7342C20.5309 7.55006 20.224 7.24315 19.8557 6.93625C19.7329 6.87487 19.6715 6.7521 19.6102 6.7521C19.4874 6.62934 19.4874 6.4452 19.6102 6.32244C19.7329 6.19967 19.9171 6.19967 20.0398 6.26106C20.1012 6.32244 20.224 6.38382 20.2854 6.4452C20.5309 6.62934 20.7764 6.7521 20.8378 6.7521C20.8992 6.56796 20.8378 6.19967 20.7764 6.13829C20.7764 6.13829 20.715 6.13829 20.6536 6.13829C20.4695 6.19967 20.3467 6.07691 20.2854 5.89277C20.224 5.70863 20.3467 5.58586 20.5309 5.52448C20.8992 5.40172 21.1447 5.52448 21.2674 5.64725C21.6357 6.01553 21.513 6.69072 21.4516 6.87487C21.3902 7.05901 21.2674 7.24315 21.1447 7.30453C21.3288 7.55006 21.3902 7.7342 21.3902 7.91834C21.3902 8.10249 21.2674 8.22525 21.0833 8.28663C20.7764 8.40939 20.5923 8.47077 20.5309 8.53215L17.646 14.4861C17.4004 14.4861 17.2777 14.5475 17.2163 14.5475Z" fill="#F8F4F1"/>
<path d="M11.4482 46.404C10.0364 46.404 8.195 46.0971 5.80114 45.115C5.67838 45.0536 5.617 44.9309 5.67838 44.8081C5.73976 44.6853 5.86252 44.624 5.98528 44.6853C12.7372 47.4475 14.9469 44.8081 15.0083 44.7467C15.0697 44.624 15.2538 44.624 15.3152 44.6853C15.438 44.7467 15.438 44.9309 15.3766 44.9922C15.3152 45.115 14.2103 46.404 11.4482 46.404Z" fill="#F8F4F1"/>
</svg>
