<svg width="64" height="40" viewBox="0 0 64 40" fill="none" xmlns="http://www.w3.org/2000/svg">
<path d="M63.1183 21.4428C60.1603 10.7611 51.9436 2.95525 32.963 1.31191C17.1048 -0.0849322 7.16253 3.20175 4.94402 11.3363C2.39684 13.4726 1 16.4307 1 20.2103C1 30.3991 13.2429 35.5756 28.526 38.2049C39.865 40.1769 49.5608 38.3693 53.7513 34.0144C60.8176 31.8781 64.7617 27.5232 63.1183 21.4428Z" stroke="#F8F4F1" stroke-width="0.5" stroke-miterlimit="10"/>
<path d="M4.94372 11.3364C4.94372 11.3364 0.588866 38.9446 53.751 33.9324" stroke="#F8F4F1" stroke-width="0.5" stroke-miterlimit="10"/>
<path d="M28.2795 9.11768C28.2795 9.11768 22.6099 10.5145 25.6501 15.8554" stroke="#F8F4F1" stroke-width="0.25" stroke-miterlimit="10" stroke-linecap="round"/>
<path d="M32.3047 9.11768C32.3047 9.11768 37.399 9.11768 40.6857 12.4865" stroke="#F8F4F1" stroke-width="0.25" stroke-miterlimit="10" stroke-linecap="round"/>
<path d="M31.4844 18.8956C31.4844 18.8956 37.5647 20.3746 40.1119 18.2383" stroke="#F8F4F1" stroke-width="0.25" stroke-miterlimit="10" stroke-linecap="round"/>
<path d="M34.1135 13.8016C34.8396 13.8016 35.4282 13.3601 35.4282 12.8156C35.4282 12.271 34.8396 11.8296 34.1135 11.8296C33.3874 11.8296 32.7988 12.271 32.7988 12.8156C32.7988 13.3601 33.3874 13.8016 34.1135 13.8016Z" stroke="#F8F4F1" stroke-width="0.5" stroke-miterlimit="10"/>
<path d="M35.3457 12.3223C35.3457 12.3223 38.3037 11.0076 41.6726 14.0478C41.6726 14.0478 43.3981 17.088 45.9453 17.088L49.5606 17.581C49.5606 17.581 53.0938 18.074 51.6148 21.032C50.1358 23.99 48.8211 23.3327 48.8211 23.3327C48.8211 23.3327 49.9714 19.7174 47.0956 18.8135C44.2197 17.9097 42.9051 16.595 42.9051 16.595C42.9051 16.595 40.8509 13.8835 39.8649 13.8013C39.8649 13.8013 36.6604 11.8293 35.3457 12.8153" stroke="#F8F4F1" stroke-width="0.25" stroke-miterlimit="10" stroke-linecap="round"/>
<path d="M35.1816 13.308C35.1816 13.308 38.5505 13.2259 40.5225 15.3622C42.4945 17.4986 44.7952 19.3884 44.7952 19.3884C44.7952 19.3884 48.657 21.1139 47.7532 22.5929C46.8494 24.0719 47.9175 24.3184 47.9175 24.3184C47.9175 24.3184 48.657 24.2363 48.9035 23.3324" stroke="#F8F4F1" stroke-width="0.25" stroke-miterlimit="10" stroke-linecap="round"/>
<path d="M34.9358 13.5547C34.9358 13.5547 34.4427 14.2942 35.4288 14.3764C36.4148 14.4585 38.3046 15.691 38.3046 15.691C38.3046 15.691 40.1123 17.17 40.3588 17.9917C40.6053 18.8134 43.5633 22.5931 43.5633 22.5931C43.5633 22.5931 46.1105 25.2224 47.6717 23.9899" stroke="#F8F4F1" stroke-width="0.25" stroke-miterlimit="10" stroke-linecap="round"/>
<path d="M11.5176 15.8556C11.5176 15.8556 21.1311 14.2123 22.7745 15.1161" stroke="#F8F4F1" stroke-width="0.25" stroke-miterlimit="10" stroke-linecap="round"/>
<path d="M16.6936 13.3082C16.6936 13.3082 21.0484 12.9795 22.1166 13.5547" stroke="#F8F4F1" stroke-width="0.25" stroke-miterlimit="10" stroke-linecap="round"/>
<path d="M18.5841 10.8432L22.6103 11.8292" stroke="#F8F4F1" stroke-width="0.25" stroke-miterlimit="10" stroke-linecap="round"/>
<path d="M11.023 11.8296C11.023 11.8296 10.7765 16.0201 12.5842 17.417L15.3779 20.2106" stroke="#F8F4F1" stroke-width="0.25" stroke-miterlimit="10" stroke-linecap="round"/>
<path d="M18.5838 7.80322C18.5838 7.80322 15.1328 12.1581 17.4334 16.9238" stroke="#F8F4F1" stroke-width="0.25" stroke-miterlimit="10" stroke-linecap="round"/>
<path d="M14.3932 11.3364C14.3932 11.3364 12.9142 12.2403 14.1467 13.8014" stroke="#F8F4F1" stroke-width="0.25" stroke-miterlimit="10" stroke-linecap="round"/>
<path d="M45.8633 12.4868C45.8633 12.4868 47.8353 11.5829 49.2321 9.85742" stroke="#F8F4F1" stroke-width="0.25" stroke-miterlimit="10" stroke-linecap="round"/>
<path d="M47.5881 12.8152C47.5881 12.8152 49.5601 11.8292 50.7105 11.254" stroke="#F8F4F1" stroke-width="0.25" stroke-miterlimit="10" stroke-linecap="round"/>
<path d="M50.2188 13.3083C50.2188 13.3083 52.3551 12.8974 52.7659 12.3223" stroke="#F8F4F1" stroke-width="0.25" stroke-miterlimit="10" stroke-linecap="round"/>
<path d="M48.5742 25.1406C48.5742 25.1406 51.2857 27.5235 52.7647 27.8521C54.2437 28.263 57.2018 31.0567 57.2018 31.0567" stroke="#F8F4F1" stroke-width="0.25" stroke-miterlimit="10" stroke-linecap="round"/>
<path d="M45.9453 25.8799L47.753 27.1946" stroke="#F8F4F1" stroke-width="0.25" stroke-miterlimit="10" stroke-linecap="round"/>
<path d="M53.1758 26.5371L57.202 28.7556" stroke="#F8F4F1" stroke-width="0.25" stroke-miterlimit="10" stroke-linecap="round"/>
<path d="M54.4082 26.1265L58.4344 27.852" stroke="#F8F4F1" stroke-width="0.25" stroke-miterlimit="10" stroke-linecap="round"/>
<path d="M4.36914 20.7031C4.36914 20.7031 6.75199 26.537 8.88833 27.1943" stroke="#F8F4F1" stroke-width="0.25" stroke-miterlimit="10" stroke-linecap="round"/>
<path d="M4.03906 23.0042L7.65442 22.2646" stroke="#F8F4F1" stroke-width="0.25" stroke-miterlimit="10" stroke-linecap="round"/>
<path d="M5.84766 24.8119L8.477 23.415" stroke="#F8F4F1" stroke-width="0.25" stroke-miterlimit="10" stroke-linecap="round"/>
<path d="M7.6543 27.8521C7.6543 27.8521 11.5983 31.4674 15.378 31.4674" stroke="#F8F4F1" stroke-width="0.25" stroke-miterlimit="10" stroke-linecap="round"/>
<path d="M13.1621 29.6598L14.3946 28.6738" stroke="#F8F4F1" stroke-width="0.25" stroke-miterlimit="10" stroke-linecap="round"/>
<path d="M11.8457 28.2625L12.2565 27.1943" stroke="#F8F4F1" stroke-width="0.25" stroke-miterlimit="10" stroke-linecap="round"/>
</svg>
